<svg width="100" height="100" viewBox="0 0 100 100" fill="none" xmlns="http://www.w3.org/2000/svg">
<circle cx="50" cy="50" r="50" fill="#FFD000"/>
<path d="M52.3662 67.2857C56.7682 63.8627 57.7529 60.9543 57.1519 59.3181C56.4197 57.322 54.2079 57.6426 53.3287 59.3927L51.9518 62.1448L50.1517 59.6489C49.5519 58.8194 48.6109 58.5812 47.9309 58.6361C47.1748 58.697 46.5339 59.3273 46.3716 60.1671C46.0394 61.8877 47.4762 64.61 52.3662 67.2857Z" fill="#163E7A"/>
<path d="M40.014 76.3474L40.7523 85.505L66.749 83.4091L66.05 74.7388C68.2047 71.8986 69.2686 68.2975 68.9815 64.736L66.1761 29.9403C66.0521 28.402 64.7045 27.2555 63.1662 27.3795C61.6279 27.5035 60.4814 28.8511 60.6054 30.3894L61.7382 44.44C61.8209 45.4656 61.0566 46.3639 60.031 46.4466C59.0055 46.5293 58.1071 45.765 58.0244 44.7394L56.5922 26.975C56.4682 25.4367 55.1206 24.2902 53.5823 24.4143C52.044 24.5383 50.8975 25.8859 51.0215 27.4242L52.4537 45.1886C52.5364 46.2141 51.772 47.1125 50.7465 47.1952C49.721 47.2779 48.8226 46.5135 48.7399 45.488L47.0083 24.0098C46.8842 22.4715 45.5366 21.325 43.9983 21.449C42.46 21.573 41.3135 22.9206 41.4375 24.4589L43.1692 45.9371C43.2519 46.9626 42.4875 47.861 41.462 47.9437C40.4364 48.0264 39.538 47.2621 39.4554 46.2365L38.0231 28.4721C37.8991 26.9338 36.5515 25.7873 35.0132 25.9113C33.4749 26.0354 32.3284 27.383 32.4524 28.9213L35.0886 61.6184L25.4351 55.0526C22.8345 53.6069 19.4038 54.2028 17.4383 56.4018C16.715 57.2081 16.8295 58.4591 17.687 59.1208L40.014 76.3474ZM42.7137 59.4618C43.1928 56.983 45.2143 55.1171 47.6315 54.9222C48.9843 54.8131 50.3242 55.1559 51.4447 55.8559C52.4386 54.9854 53.7063 54.4324 55.0591 54.3234C57.4782 54.1283 59.7769 55.655 60.6495 58.034C61.3417 59.9183 62.0413 64.9524 53.6288 70.9911L52.7179 71.6469L51.7119 71.1457C42.4458 66.5305 42.3326 61.4364 42.7137 59.4618Z" fill="#163E7A"/>
<path d="M53.5102 64.7416C58.3645 61.9976 59.7631 59.264 59.4073 57.5576C58.9742 55.476 56.7392 55.4704 55.6142 57.0735L53.8503 59.5952L52.4337 56.8634C51.9614 55.9552 51.0653 55.5823 50.3845 55.5373C49.6276 55.4873 48.9015 56.0173 48.6184 56.8244C48.0388 58.4781 49.0629 61.3809 53.5102 64.7416Z" fill="#3793DF"/>
<path d="M39.9678 71.9037L39.3619 81.071L65.3861 82.7912L65.9598 74.1117C68.5059 71.6163 70.0839 68.2091 70.3196 64.6437L72.6219 29.8112C72.7237 28.2712 71.5579 26.9403 70.0179 26.8386C68.478 26.7368 67.1471 27.9026 67.0453 29.4426L66.1156 43.508C66.0478 44.5347 65.1605 45.3119 64.1339 45.2441C63.1072 45.1762 62.33 44.2889 62.3979 43.2623L63.5733 25.4791C63.6751 23.9391 62.5092 22.6083 60.9693 22.5065C59.4293 22.4047 58.0985 23.5705 57.9967 25.1105L56.8212 42.8937C56.7534 43.9203 55.8661 44.6976 54.8395 44.6297C53.8129 44.5619 53.0356 43.6746 53.1035 42.648L54.5247 21.147C54.6264 19.6071 53.4606 18.2762 51.9206 18.1744C50.3807 18.0726 49.0498 19.2385 48.948 20.7784L47.5269 42.2794C47.459 43.306 46.5718 44.0832 45.5451 44.0154C44.5185 43.9475 43.7413 43.0603 43.8091 42.0336L44.9846 24.2504C45.0863 22.7105 43.9205 21.3796 42.3805 21.2778C40.8406 21.176 39.5097 22.3419 39.4079 23.8818L37.2444 56.6136L28.6525 48.7094C26.2906 46.8996 22.8098 46.9886 20.5444 48.8772C19.7112 49.5693 19.6418 50.8236 20.3937 51.6034L39.9678 71.9037ZM45.1026 55.5929C45.9383 53.2104 48.2105 51.6595 50.6303 51.8195C51.9845 51.909 53.2601 52.4436 54.2664 53.2996C55.3767 52.5835 56.7115 52.2214 58.0658 52.3109C60.4874 52.471 62.5387 54.3168 63.0548 56.7976C63.4646 58.7628 63.4222 63.8451 54.2184 68.5915L53.2216 69.1074L52.2996 68.4648C43.8061 62.5467 44.4375 57.4907 45.1026 55.5929Z" fill="#3793DF"/>
</svg>
