<svg width="600" height="975" viewBox="0 0 600 975" fill="none" xmlns="http://www.w3.org/2000/svg">
<g clip-path="url(#clip0)">
<g filter="url(#filter0_d)">
<path d="M580.137 917.017C23.5909 935.497 -24.2001 568.508 9.0519 435.499C35.0519 331.499 96.5519 292.999 96.5519 156.999C96.5519 96.5 88.9739 51.5 73.4739 0H598.552V916.597C592.489 916.667 586.351 916.807 580.137 917.017Z" fill="#FFCC00"/>
</g>
<mask id="mask0" mask-type="alpha" maskUnits="userSpaceOnUse" x="1" y="157" width="599" height="762">
<path d="M581.136 917.657C24.5899 936.137 -23.2011 569.149 10.0509 436.14C36.0509 332.14 97.5509 293.64 97.5509 157.64H599.551V917.237C593.488 917.307 587.35 917.447 581.136 917.657Z" fill="#FFCC00"/>
</mask>
<g mask="url(#mask0)">
<g filter="url(#filter1_d)">
<path d="M433.242 837.427C404.394 756.498 410.295 718.784 416.851 710.042L510.513 725.496C518.381 758.84 510.357 808.387 505.362 828.997C509.108 846.597 503.801 895.027 500.679 917.037C496.558 953.747 508.952 984.157 515.665 994.777C510.045 1003.39 498.337 996.487 493.186 991.967C495.808 977.727 488.034 938.887 483.82 921.247C472.58 880.417 476.014 842.727 479.136 828.997C476.889 822.247 471.643 801.827 469.302 792.467C468.178 799.957 461.653 825.557 458.531 837.427C462.652 851.287 465.243 904.387 466.024 929.207C464.9 938.947 468.99 976.977 471.175 994.777C465.93 999.267 457.126 994.777 453.379 991.967C460.872 971.357 454.628 941.547 450.57 929.207C437.832 897.737 435.584 874.577 436.052 866.927C436.052 860.177 434.179 844.447 433.242 837.427Z" fill="#163E7A"/>
<path d="M437.929 558.309C441.301 556.436 451.041 553.158 453.851 546.133C457.598 543.052 478.516 543.6 488.506 544.26C491.503 551.003 500.994 553.001 505.365 553.158C524.472 552.408 530.81 568.456 531.591 576.573C531.591 579.196 538.459 620.126 541.893 640.263C529.53 648.131 521.444 639.795 518.946 634.643C519.696 630.148 514.263 609.667 511.453 599.988L501.151 634.643C497.779 646.257 502.555 668.518 505.365 678.196C510.236 696.179 513.951 726.9 515.2 740.013C514.731 738.608 505.646 736.641 473.052 740.013C440.458 743.385 418.884 726.432 412.172 717.534C414.045 702.174 427.314 678.664 433.714 668.83C444.204 654.968 444.641 641.824 443.549 636.985C442.799 634.362 436.68 623.404 433.714 618.253L429.968 640.263C417.979 648.505 408.113 639.951 404.679 634.643C410.299 624.903 414.513 595.93 415.918 582.661C417.792 565.334 433.714 560.651 437.929 558.309Z" fill="#4588ED"/>
<path d="M451.972 555.969V543.324C457.123 537.705 488.032 529.275 488.032 534.427C488.032 538.548 491.154 545.822 492.715 548.944C481.944 564.867 451.972 560.184 451.972 555.969Z" fill="#2874E7"/>
<path d="M457.128 547.071C460.5 539.953 458.533 527.871 457.128 522.719C455.935 507.359 471.305 503.519 479.139 503.519C479.139 512.51 483.198 532.866 485.227 541.92C481.855 549.787 465.09 548.632 457.128 547.071Z" fill="url(#paint0_linear)"/>
<path d="M456.316 410.693L456.278 409.948C448.48 408.215 436.438 408.332 425.625 414.319C414.79 420.319 405.246 432.182 402.422 453.829C402.103 456.282 401.789 458.589 401.49 460.795C399.39 476.276 397.967 486.76 399.61 507.297C399.686 508.24 399.795 509.411 399.919 510.753C400.261 514.434 400.721 519.401 400.944 524.482C401.096 527.946 401.137 531.452 400.953 534.626C400.77 537.805 400.362 540.626 399.631 542.73L400.207 543.182C404.212 540.591 410.534 535.702 416.515 529.439C422.493 523.179 428.157 515.52 430.805 507.386L430.819 507.326C433.238 491.799 437.428 468.324 442.135 448.359C444.489 438.376 446.97 429.281 449.421 422.5C450.646 419.109 451.86 416.31 453.039 414.272C453.629 413.253 454.204 412.434 454.761 411.83C455.32 411.222 455.84 410.852 456.316 410.693Z" fill="black" stroke="black" stroke-width="0.774571" stroke-linejoin="bevel"/>
<path d="M411.241 485.725C404.123 451.258 418.578 437.958 426.695 435.616C469.78 418.008 487.107 454.192 490.385 474.486C488.137 496.965 479.614 514.292 469.311 522.722C452.827 536.209 442.149 531.776 438.871 527.873C413.395 510.639 409.836 492.594 411.241 485.725Z" fill="#F5DAC9"/>
<path d="M414.665 442.872L414.586 443.106C414.586 450.696 417.053 455.892 421.065 459.708C425.059 463.505 430.557 465.91 436.565 467.989C438.763 468.75 441.025 469.466 443.313 470.19C447.309 471.455 451.383 472.744 455.329 474.339C461.515 476.84 467.309 480.065 471.82 485.046L472.107 484.786L471.82 485.046C475.538 489.152 481.043 496.868 485.428 506.639C489.814 516.409 493.071 528.209 492.326 540.491L493.087 540.613C496.316 528.458 501.86 516.29 507.32 504.31C508.573 501.559 509.822 498.818 511.038 496.089C517.534 481.506 523.072 467.269 523.072 453.877L523.02 453.683C517.547 444.223 508.142 430.103 497.707 418.484C492.49 412.674 487.005 407.478 481.615 403.801C476.239 400.134 470.911 397.947 466.013 398.229C465.32 398.212 464.344 398.483 463.163 398.974C461.957 399.475 460.489 400.228 458.808 401.218C455.444 403.198 451.201 406.141 446.447 409.964C436.938 417.612 425.363 428.795 414.665 442.872Z" fill="black" stroke="black" stroke-width="0.774571" stroke-linejoin="bevel"/>
<path d="M400.93 660.871C392.313 656.375 399.525 641.826 404.208 635.114C407.486 630.587 417.04 625.186 429.029 639.797C441.017 654.408 464.308 645.885 474.455 639.797C476.703 641.67 475.391 648.383 474.455 651.505C470.334 652.629 464.62 658.217 462.279 660.871C438.301 672.485 411.389 665.71 400.93 660.871Z" fill="url(#paint1_linear)"/>
<path d="M452.057 479.333C452.931 478.779 453.19 477.622 452.636 476.748C452.082 475.874 450.925 475.615 450.051 476.169L442.932 480.684C442.059 481.238 441.799 482.395 442.354 483.269C442.908 484.143 444.065 484.402 444.939 483.848L452.057 479.333Z" fill="#131313"/>
<path d="M422.901 487.685C423.892 487.979 424.935 487.413 425.229 486.421C425.523 485.429 424.957 484.387 423.965 484.093L415.882 481.699C414.89 481.405 413.848 481.971 413.554 482.963C413.26 483.955 413.826 484.997 414.818 485.291L422.901 487.685Z" fill="#131313"/>
<path d="M419.413 496.134C422.908 495.909 425.622 493.893 425.477 491.632C425.331 489.371 422.379 487.72 418.885 487.946C415.39 488.171 412.676 490.187 412.822 492.448C412.968 494.71 415.919 496.36 419.413 496.134Z" fill="#F7CEB5"/>
<path d="M446.19 528.972C449.684 528.747 452.399 526.731 452.253 524.47C452.107 522.209 449.156 520.558 445.661 520.784C442.167 521.009 439.452 523.025 439.598 525.286C439.744 527.547 442.695 529.198 446.19 528.972Z" fill="#F7CEB5"/>
<path d="M452.489 490.086C456.139 489.294 458.682 486.738 458.17 484.376C457.657 482.014 454.283 480.742 450.633 481.534C446.983 482.326 444.44 484.882 444.952 487.244C445.465 489.606 448.839 490.878 452.489 490.086Z" fill="#F7CEB5"/>
<mask id="path-16-outside-1" maskUnits="userSpaceOnUse" x="431.246" y="507.136" width="18" height="10" fill="black">
<rect fill="white" x="431.246" y="507.136" width="18" height="10"/>
<path d="M433.246 515.224C436.681 514.756 444.205 512.882 446.827 509.136Z"/>
</mask>
<path d="M433.037 513.689C432.189 513.805 431.596 514.585 431.711 515.433C431.827 516.281 432.607 516.874 433.455 516.759L433.037 513.689ZM448.096 510.024C448.587 509.323 448.416 508.357 447.715 507.867C447.014 507.376 446.049 507.547 445.558 508.248L448.096 510.024ZM433.455 516.759C435.27 516.512 438.125 515.901 440.888 514.859C443.587 513.841 446.504 512.299 448.096 510.024L445.558 508.248C444.528 509.719 442.372 510.987 439.795 511.96C437.282 512.908 434.658 513.468 433.037 513.689L433.455 516.759Z" fill="#A40707" mask="url(#path-16-outside-1)"/>
<mask id="path-18-outside-2" maskUnits="userSpaceOnUse" x="425.992" y="488.935" width="7" height="18" fill="black">
<rect fill="white" x="425.992" y="488.935" width="7" height="18"/>
<path d="M429.958 489.935C429.802 492.12 429.303 496.772 428.553 497.896C426.682 502.111 425.277 503.984 431.832 505.389"/>
</mask>
<path d="M430.73 489.99C430.761 489.564 430.44 489.193 430.013 489.162C429.586 489.132 429.216 489.453 429.185 489.88L430.73 489.99ZM428.553 497.896L427.909 497.466L427.845 497.582L428.553 497.896ZM431.67 506.146C432.088 506.236 432.5 505.97 432.589 505.551C432.679 505.133 432.413 504.721 431.994 504.632L431.67 506.146ZM429.185 489.88C429.108 490.958 428.946 492.646 428.712 494.198C428.595 494.974 428.462 495.704 428.315 496.3C428.16 496.927 428.013 497.309 427.909 497.466L429.197 498.326C429.467 497.921 429.664 497.3 429.819 496.67C429.982 496.01 430.123 495.229 430.244 494.429C430.486 492.827 430.651 491.097 430.73 489.99L429.185 489.88ZM427.845 497.582C427.393 498.6 426.931 499.558 426.628 500.379C426.325 501.196 426.112 502.042 426.273 502.848C426.446 503.714 427.012 504.375 427.904 504.889C428.771 505.39 430.007 505.79 431.67 506.146L431.994 504.632C430.379 504.285 429.333 503.925 428.678 503.547C428.048 503.184 427.853 502.85 427.792 502.544C427.719 502.18 427.798 501.679 428.081 500.916C428.362 500.157 428.777 499.3 429.261 498.21L427.845 497.582Z" fill="black" mask="url(#path-18-outside-2)"/>
<path d="M499.734 644.478C494.864 634.737 480.534 637.922 473.977 640.732C470.98 653.47 475.226 654.469 477.724 653.376C487.839 653.75 496.612 647.6 499.734 644.478Z" fill="#F5DAC9"/>
<path d="M518.939 632.771C506.95 644.385 484.284 650.098 474.45 651.503C468.455 649.256 463.523 657.279 461.337 661.338C465.833 661.338 480.069 662.43 487.094 663.211C523.435 664.71 538.764 648.537 541.886 640.264C539.232 632.927 530.928 621.157 518.939 632.771Z" fill="url(#paint2_linear)"/>
<mask id="path-22-outside-3" maskUnits="userSpaceOnUse" x="410.174" y="472.702" width="15" height="6" fill="black">
<rect fill="white" x="410.174" y="472.702" width="15" height="6"/>
<path d="M422.945 476.357C419.979 475.108 413.673 473.36 412.174 476.357Z"/>
</mask>
<path d="M422.344 477.785C423.132 478.117 424.04 477.747 424.373 476.958C424.705 476.17 424.335 475.261 423.546 474.929L422.344 477.785ZM410.788 475.664C410.406 476.429 410.716 477.36 411.481 477.743C412.246 478.125 413.177 477.815 413.559 477.05L410.788 475.664ZM423.546 474.929C421.976 474.268 419.504 473.463 417.167 473.224C416.002 473.104 414.764 473.114 413.654 473.425C412.515 473.745 411.412 474.418 410.788 475.664L413.559 477.05C413.686 476.798 413.933 476.565 414.491 476.409C415.077 476.244 415.882 476.207 416.851 476.306C418.784 476.504 420.947 477.197 422.344 477.785L423.546 474.929Z" fill="black" mask="url(#path-22-outside-3)"/>
<mask id="path-24-outside-4" maskUnits="userSpaceOnUse" x="438.264" y="467.023" width="15" height="10" fill="black">
<rect fill="white" x="438.264" y="467.023" width="15" height="10"/>
<path d="M440.264 474.484C442.293 472.143 447.382 467.834 451.503 469.333Z"/>
</mask>
<path d="M439.093 473.469C438.533 474.116 438.603 475.094 439.249 475.655C439.896 476.215 440.874 476.145 441.434 475.499L439.093 473.469ZM450.973 470.789C451.777 471.081 452.666 470.667 452.959 469.862C453.251 469.058 452.836 468.17 452.032 467.877L450.973 470.789ZM441.434 475.499C442.363 474.427 444.014 472.887 445.875 471.809C447.786 470.702 449.567 470.277 450.973 470.789L452.032 467.877C449.317 466.89 446.494 467.87 444.322 469.128C442.101 470.415 440.193 472.2 439.093 473.469L441.434 475.499Z" fill="black" mask="url(#path-24-outside-4)"/>
<path d="M482.34 479.313C483.114 479.364 483.783 478.777 483.833 478.003C483.884 477.228 483.297 476.56 482.523 476.509C481.749 476.458 481.08 477.045 481.029 477.819C480.979 478.594 481.565 479.262 482.34 479.313Z" fill="white"/>
<mask id="path-27-outside-5" maskUnits="userSpaceOnUse" x="429.549" y="435.973" width="51" height="40" fill="black">
<rect fill="white" x="429.549" y="435.973" width="51" height="40"/>
<path d="M431.549 437.973C436.777 458.495 465.283 460.36 478.476 473.895Z"/>
</mask>
<path d="M433.05 437.591C432.839 436.762 431.995 436.261 431.166 436.472C430.337 436.683 429.836 437.526 430.048 438.355L433.05 437.591ZM477.366 474.976C477.964 475.589 478.944 475.602 479.557 475.004C480.17 474.407 480.182 473.426 479.585 472.814L477.366 474.976ZM430.048 438.355C432.845 449.337 441.873 455.201 451.332 459.939C453.711 461.131 456.152 462.267 458.55 463.394C460.956 464.525 463.324 465.649 465.598 466.832C470.156 469.204 474.24 471.768 477.366 474.976L479.585 472.814C476.116 469.254 471.689 466.509 467.028 464.084C464.693 462.868 462.274 461.721 459.868 460.59C457.453 459.455 455.055 458.339 452.719 457.169C443.32 452.461 435.481 447.131 433.05 437.591L430.048 438.355Z" fill="white" mask="url(#path-27-outside-5)"/>
<path d="M431.837 587.813C423.408 595.775 427.623 611.229 433.711 618.254C427.623 613.102 414.978 601.675 431.837 587.813Z" fill="url(#paint3_linear)" fill-opacity="0.16"/>
<path d="M503.48 610.293C497.111 624.53 482.406 624.654 475.85 622.937C480.72 633.053 492.553 633.084 497.86 631.835C500.857 627.339 502.856 615.6 503.48 610.293Z" fill="url(#paint4_linear)" fill-opacity="0.08"/>
<path d="M465.092 765.771C466.216 770.642 468.058 785.287 468.838 791.997C467.339 789.747 463.843 776.697 462.282 770.455C460.034 768.207 456.662 763.274 455.257 761.088C457.88 762.962 462.906 764.991 465.092 765.771Z" fill="black" fill-opacity="0.21"/>
<path d="M100.566 882.777C101.614 880.677 106.166 874.557 108.311 871.767L143.231 868.867C145.72 872.247 145.708 879.457 145.391 882.647C143.523 885.667 141.018 893.597 139.998 897.187C134.319 904.797 112.732 903.597 102.649 902.047C100.48 893.677 100.357 885.707 100.566 882.777Z" fill="#163E7A"/>
<path d="M210.429 860.697C208.326 859.367 198.514 852.807 193.871 849.687L190.712 844.817L160.421 863.287C158.139 869.737 159.34 877.487 160.226 880.557C170.29 884.057 183.907 884.127 189.458 883.717C190.268 882.527 192.378 881.647 193.332 881.357C217.315 888.387 238.927 884.747 239.903 882.537C240.684 880.777 241.43 876.947 241.706 875.257C238.073 868.257 213.059 862.357 210.429 860.697Z" fill="#163E7A"/>
<path d="M83.4199 646.634C85.9679 639.531 88.5749 619.5 89.5599 610.372L169.54 606.227C172.473 612.175 183.057 634.935 187.983 645.572C188.163 649.048 190.765 657.046 192.043 660.61C190.152 669.132 191.301 707.242 192.111 725.233C193.264 736.21 190.384 743.476 188.8 745.736C184.546 759.318 186.784 802.967 188.434 823.087C191.607 833.667 193.616 845.697 194.223 850.377C190.799 846.207 183.047 852.777 179.599 856.587C163.577 868.167 156.718 867.577 155.291 865.837C153.351 862.157 154.986 845.877 156.046 838.197C155.64 830.377 153.022 807.977 151.763 797.757C146.295 771.03 148.874 746.716 150.848 737.9C148.718 724.94 143.277 706.706 140.823 699.209C139.052 710.047 141.999 740.658 143.694 754.609C145.077 764.413 143.265 819.017 142.186 845.087L146.082 871.027C133.064 878.677 112.059 875.697 103.184 873.257C103.034 870.357 106.223 856.877 107.837 850.497C107.06 846.767 102.472 826.697 100.275 817.127C94.9219 798.237 97.6639 769.097 99.7049 756.889C99.0839 750.531 93.3819 721.636 90.6089 707.983C89.0009 693.834 85.1459 661.188 83.4199 646.634Z" fill="#07367C"/>
<path d="M88.66 613.886L88.043 601.976C115.982 610.661 153.076 605.24 169.374 601.018L170.905 609.624C147.567 622.704 106.832 617.891 88.66 613.886Z" fill="#163E7A"/>
<path d="M31.1687 576.02C32.1317 572.193 36.0977 559.061 37.9817 553.396C44.2177 550.459 58.9227 557.023 66.2927 561.482C65.7087 567.032 62.7557 578.498 60.5557 582.727C66.6327 587.931 72.6267 600.861 74.8637 606.676C77.1017 612.491 91.3417 626.194 97.6887 631.917C100.319 630.624 102.672 630.117 103.758 630.061C106.841 644.715 102.353 651.869 98.8637 654.592C96.5577 654.711 94.9007 652.485 92.4157 649.146C83.6717 642.918 71.5707 631.768 62.8187 626.402C45.9477 616.058 32.0047 602.464 30.8457 598.772C26.8467 595.196 26.8397 593.935 26.2197 591.305C26.2537 586.365 30.2047 579.846 31.1687 576.02Z" fill="#F5AB75"/>
<path d="M193.457 573.582C193.261 569.801 189.953 561.735 188.324 558.174C185.01 549.963 203.119 536.996 209.184 542.513C214.036 546.928 220.654 564.032 223.356 572.032C225.008 576.029 221.677 583.783 219.806 587.16C217.574 594.274 200.312 617.573 191.96 628.333C190.427 632.204 185.149 640.958 182.702 644.851C172.784 643.032 169.688 630.703 169.381 624.765C172.733 622.55 175.821 623.581 176.946 624.373C179.631 620.443 182.67 609.375 183.853 604.332C186.906 590.761 191.528 578.177 193.457 573.582Z" fill="#F5AB75"/>
<path d="M65.2418 487.684L92.1788 481.554C93.9058 481.225 96.5368 479.165 97.0838 478.023L149.484 472.394C151.619 474.322 165.759 475.556 172.561 475.932C188.583 476.558 194.954 494.314 196.137 503.114C197.139 511.219 210 536.869 216.305 548.68C207.053 555.278 191.423 561.744 184.765 564.153C182.464 559.028 173.339 547.023 169.063 541.661L165.665 546.207C165.861 549.984 164.535 571.149 163.848 581.26L168.564 602.136C132.988 611.263 100.243 606.769 88.3178 603.382C87.1978 595.793 78.9378 541.597 76.2648 546.106C74.1258 549.713 72.0188 562.349 71.2328 568.216C67.2038 574.615 28.5658 565.329 30.4768 560.132C32.0058 555.974 37.1288 538.909 39.4998 530.896L41.4398 512.224C43.4548 495.004 57.3438 489.55 65.2418 487.684Z" fill="#5296FC"/>
<path d="M82.8518 407.86L78.5588 407.546C74.3515 407.239 70.6918 410.401 70.3846 414.608L70.0711 418.901C69.7638 423.108 72.9253 426.768 77.1326 427.075L81.4256 427.389C85.6329 427.696 89.2926 424.534 89.5998 420.327L89.9134 416.034C90.2206 411.827 87.0591 408.167 82.8518 407.86Z" fill="#F19857"/>
<path d="M156.037 404.794L151.744 404.48C147.537 404.173 143.877 407.335 143.57 411.542L143.256 415.835C142.949 420.042 146.11 423.702 150.318 424.009L154.611 424.323C158.818 424.63 162.478 421.468 162.785 417.261L163.098 412.968C163.406 408.761 160.244 405.101 156.037 404.794Z" fill="#F19857"/>
<path d="M102.038 473.853C103.017 470.333 102.49 454.554 102.104 447.104L135.046 445.397L136.149 466.664C138.245 473.495 145.755 474.6 149.249 474.298C146.106 492.099 132.071 497.718 125.447 498.302C106.333 499.293 96.13 488.256 93.418 482.613C98.571 481.19 101.312 476.18 102.038 473.853Z" fill="url(#paint5_linear)"/>
<path d="M79.1589 420.629L79.1902 420.713C79.2862 420.89 79.4569 421.063 79.6603 421.23C79.8696 421.401 80.1387 421.585 80.4593 421.78C81.1011 422.171 81.9715 422.617 83.0344 423.1C85.1618 424.067 88.0838 425.193 91.5431 426.33C98.4619 428.603 107.55 430.924 116.762 432.095C125.968 433.265 135.33 433.291 142.779 430.947C150.246 428.598 155.815 423.854 157.332 415.503C157.607 413.99 157.63 411.705 157.654 409.343C157.656 409.128 157.658 408.913 157.66 408.697C157.689 406.086 157.746 403.446 158.142 401.585C158.543 399.706 159.251 397.866 159.924 396.204C160.01 395.992 160.095 395.783 160.179 395.577C160.749 394.18 161.267 392.912 161.475 391.912L161.481 391.831C161.205 386.513 160.134 382.556 158.872 379.771C157.721 377.231 156.402 375.646 155.366 374.907C155.407 374.877 155.458 374.845 155.519 374.809C155.771 374.664 156.137 374.51 156.562 374.359C157.409 374.058 158.436 373.788 159.123 373.632L159.354 373.218C157.886 368.982 154.708 365.173 151.358 362.142C148.133 359.222 144.723 357.001 142.461 355.79C142.556 355.653 142.72 355.492 142.969 355.313C143.342 355.045 143.846 354.779 144.412 354.529C145.54 354.031 146.862 353.62 147.734 353.394L147.957 352.989C147.757 352.361 147.252 351.51 146.545 350.624C145.833 349.733 144.899 348.784 143.819 347.963C141.67 346.33 138.876 345.155 136.091 346.071C135.12 346.39 133.647 346.358 132.139 346.123C130.711 345.9 129.305 345.503 128.353 345.1C128.064 343.952 128.299 342.885 128.729 341.999C129.18 341.071 129.838 340.359 130.295 339.995L130.08 339.428C129.26 339.471 128.307 339.763 127.319 340.191C126.326 340.621 125.276 341.196 124.254 341.825C122.31 343.02 120.451 344.418 119.266 345.397C113.507 341.913 106.967 340.808 102.189 340.602C99.7708 340.497 97.7933 340.622 96.5826 340.789C96.2795 340.831 96.0215 340.876 95.8149 340.922C95.6145 340.966 95.4432 341.014 95.3253 341.069C95.2784 341.091 95.1826 341.138 95.1179 341.228C95.0788 341.283 95.0358 341.375 95.055 341.491C95.0734 341.603 95.1394 341.674 95.1846 341.71C95.2644 341.775 95.3619 341.8 95.4185 341.813C95.4887 341.828 95.5716 341.839 95.6633 341.847L95.6634 341.847C96.1448 341.887 96.7912 342.104 97.542 342.455C98.286 342.802 99.1059 343.268 99.9266 343.782C101.146 344.544 102.355 345.405 103.303 346.123C99.7997 345.887 95.3002 346.807 91.0098 348.085C86.3117 349.485 81.8119 351.331 79.0419 352.633L76.0305 351.044L75.6357 351.123C73.6929 353.496 73.1149 356.69 73.1598 359.675C73.2022 362.497 73.8016 365.178 74.3799 366.902C73.0096 367.411 71.1516 368.199 69.6976 369.037C68.9212 369.484 68.2345 369.96 67.803 370.431C67.5875 370.666 67.4151 370.921 67.3419 371.192C67.2644 371.477 67.3021 371.767 67.4847 372.026C68.4672 373.421 71.3276 376.69 72.7209 378.247C72.3983 380.646 71.9513 384.302 71.6332 387.662C71.4709 389.376 71.3418 391.017 71.2801 392.376C71.2189 393.723 71.2218 394.827 71.3359 395.448L71.3359 395.448C71.4495 396.063 71.74 396.871 72.1237 397.759C72.5096 398.652 72.9983 399.646 73.5199 400.642C74.544 402.596 75.7011 404.57 76.4717 405.819C76.5552 407.185 77.0141 409.902 77.5515 412.738C78.1016 415.642 78.7395 418.7 79.1589 420.629ZM95.535 341.186C95.5351 341.186 95.5362 341.186 95.5384 341.187C95.536 341.186 95.5349 341.186 95.535 341.186ZM95.5782 341.654C95.5781 341.654 95.5797 341.653 95.5837 341.651C95.5803 341.653 95.5784 341.654 95.5782 341.654ZM155.234 375.027C155.234 375.028 155.233 375.029 155.233 375.029C155.233 375.029 155.234 375.028 155.234 375.027Z" fill="black" stroke="black" stroke-width="0.636512" stroke-linejoin="bevel"/>
<path d="M87.3776 372.129C87.9768 372.173 88.4981 371.722 88.5418 371.123C88.5856 370.524 88.1353 370.003 87.5361 369.959C86.9369 369.915 86.4157 370.366 86.3719 370.965C86.3282 371.564 86.7785 372.085 87.3776 372.129Z" fill="white"/>
<path d="M90.3009 446.936C82.2819 442.987 80.2309 408.539 79.4869 391.846C78.7419 375.153 95.9019 373.536 101.578 378.334C113.335 388.273 125.832 381.412 129.721 376.876C137.226 368.122 151.539 379.019 152.009 388.088C154.778 408.022 153.366 442.213 149.112 443.888C144.857 445.564 137.144 452.632 133.819 455.957C129.348 460.428 116.275 459.485 112.893 457.041C103.497 450.254 96.3069 448.808 90.3009 446.936Z" fill="#F5AB75"/>
<path d="M135.541 426.942L135.026 426.642C131.746 429.319 126.05 431.326 120.212 432.741C114.389 434.153 108.481 434.965 104.823 435.279L104.563 435.732C106.417 439.673 110.067 441.404 113.744 442.127C117.165 442.8 120.664 442.61 122.874 442.491C123.037 442.482 123.193 442.474 123.341 442.466L123.369 442.463C126.554 442.013 128.872 441.132 130.564 439.967C132.26 438.801 133.312 437.362 133.981 435.825C134.648 434.293 134.933 432.669 135.105 431.136C135.173 430.53 135.222 429.946 135.27 429.387C135.345 428.508 135.415 427.69 135.541 426.942Z" fill="white" stroke="black" stroke-width="0.636512" stroke-linejoin="bevel"/>
<mask id="path-46-outside-6" maskUnits="userSpaceOnUse" x="117.349" y="397.479" width="9" height="27" fill="black">
<rect fill="white" x="117.349" y="397.479" width="9" height="27"/>
<path d="M118.349 398.479C119.085 401.832 120.548 407.085 120.967 409.97C121.387 412.855 123.684 416.854 124.781 418.493C124.258 421.334 123.267 422.571 119.663 423.845"/>
</mask>
<path d="M120.967 409.97L120.337 410.062L120.337 410.062L120.967 409.97ZM124.781 418.493L125.407 418.608L125.31 418.139L124.781 418.493ZM117.727 398.615C118.097 400.301 118.651 402.469 119.158 404.551C119.669 406.648 120.132 408.654 120.337 410.062L121.597 409.879C121.382 408.401 120.904 406.338 120.395 404.249C119.882 402.145 119.336 400.01 118.97 398.343L117.727 398.615ZM120.337 410.062C120.561 411.604 121.276 413.396 122.048 414.978C122.825 416.571 123.688 418.005 124.252 418.847L125.31 418.139C124.776 417.342 123.942 415.957 123.192 414.42C122.436 412.871 121.792 411.221 121.597 409.878L120.337 410.062ZM124.155 418.378C123.902 419.748 123.555 420.629 122.91 421.324C122.253 422.033 121.223 422.618 119.45 423.245L119.875 424.445C121.706 423.798 122.974 423.128 123.844 422.189C124.727 421.237 125.136 420.079 125.407 418.608L124.155 418.378Z" fill="black" mask="url(#path-46-outside-6)"/>
<mask id="path-48-outside-7" maskUnits="userSpaceOnUse" x="86.5166" y="392.529" width="23" height="12" fill="black">
<rect fill="white" x="86.5166" y="392.529" width="23" height="12"/>
<path d="M108.12 394.576C100.182 394.153 88.1827 396.54 88.5237 403.106Z"/>
</mask>
<path d="M108.052 395.847C108.754 395.885 109.354 395.346 109.391 394.644C109.428 393.942 108.89 393.342 108.187 393.305L108.052 395.847ZM87.2524 403.172C87.2889 403.874 87.8876 404.414 88.5897 404.377C89.2919 404.341 89.8315 403.742 89.795 403.04L87.2524 403.172ZM108.187 393.305C104.092 393.087 98.9384 393.587 94.8013 395.017C92.7352 395.731 90.8319 396.707 89.4488 398.021C88.0379 399.36 87.144 401.084 87.2524 403.172L89.795 403.04C89.733 401.845 90.211 400.808 91.2021 399.867C92.221 398.899 93.7496 398.074 95.6328 397.423C99.3946 396.124 104.209 395.642 108.052 395.847L108.187 393.305Z" fill="black" mask="url(#path-48-outside-7)"/>
<mask id="path-50-outside-8" maskUnits="userSpaceOnUse" x="121.488" y="390.398" width="23" height="8" fill="black">
<rect fill="white" x="121.488" y="390.398" width="23" height="8"/>
<path d="M123.488 393.565C129.451 391.847 141.164 391.451 142.904 396.434Z"/>
</mask>
<path d="M123.135 392.342C122.46 392.536 122.07 393.242 122.265 393.917C122.459 394.593 123.165 394.983 123.84 394.788L123.135 392.342ZM141.702 396.854C141.934 397.517 142.66 397.868 143.323 397.636C143.987 397.404 144.337 396.678 144.106 396.014L141.702 396.854ZM123.84 394.788C126.677 393.971 130.942 393.459 134.679 393.756C136.547 393.904 138.203 394.249 139.458 394.806C140.716 395.363 141.426 396.064 141.702 396.854L144.106 396.014C143.511 394.313 142.105 393.194 140.491 392.478C138.874 391.761 136.903 391.378 134.88 391.218C130.834 390.896 126.262 391.441 123.135 392.342L123.84 394.788Z" fill="black" mask="url(#path-50-outside-8)"/>
<path d="M104.064 406.726C104.022 405.926 103.34 405.311 102.54 405.353C101.74 405.394 101.125 406.076 101.167 406.876L101.505 413.395C101.546 414.195 102.228 414.809 103.028 414.768C103.828 414.727 104.443 414.044 104.402 413.245L104.064 406.726Z" fill="#131313"/>
<path d="M133.217 405.795C133.175 404.995 132.493 404.38 131.693 404.422C130.893 404.463 130.278 405.145 130.32 405.945L130.658 412.464C130.699 413.264 131.381 413.878 132.181 413.837C132.981 413.796 133.596 413.113 133.554 412.313L133.217 405.795Z" fill="#131313"/>
<mask id="path-54-outside-9" maskUnits="userSpaceOnUse" x="88.5488" y="366.079" width="25" height="11" fill="black">
<rect fill="white" x="88.5488" y="366.079" width="25" height="11"/>
<path d="M90.5488 369.042C92.4508 368.058 97.0178 366.975 100.07 370.52C101.931 372.499 106.778 376.163 111.28 374.995"/>
</mask>
<path d="M89.9639 367.911C89.3394 368.234 89.0951 369.003 89.4182 369.627C89.7412 370.251 90.5093 370.496 91.1338 370.173L89.9639 367.911ZM100.07 370.52L99.1051 371.351L99.1424 371.392L100.07 370.52ZM111.6 376.227C112.28 376.051 112.689 375.356 112.512 374.675C112.335 373.995 111.641 373.586 110.96 373.763L111.6 376.227ZM91.1338 370.173C91.9233 369.764 93.3284 369.313 94.8424 369.355C96.3183 369.397 97.8565 369.9 99.1051 371.351L101.035 369.689C99.2311 367.595 96.9598 366.867 94.9137 366.81C92.9058 366.754 91.0764 367.336 89.9639 367.911L91.1338 370.173ZM99.1424 371.392C100.159 372.474 101.952 373.98 104.109 375.073C106.253 376.16 108.925 376.921 111.6 376.227L110.96 373.763C109.133 374.237 107.13 373.75 105.26 372.802C103.402 371.86 101.841 370.545 100.997 369.648L99.1424 371.392Z" fill="white" mask="url(#path-54-outside-9)"/>
<path d="M98.5849 424.743C102.673 425.042 106.144 423.139 106.338 420.494C106.531 417.848 103.373 415.462 99.2846 415.163C95.1962 414.864 91.7252 416.767 91.532 419.412C91.3388 422.058 94.4965 424.444 98.5849 424.743Z" fill="#E99E72"/>
<path d="M138.888 422.654C134.852 423.374 131.203 421.84 130.738 419.229C130.272 416.618 133.166 413.917 137.202 413.198C141.237 412.478 144.886 414.012 145.352 416.623C145.818 419.234 142.923 421.935 138.888 422.654Z" fill="#E99E72"/>
<path d="M124.445 459.091C120.354 459.349 116.902 457.412 116.735 454.765C116.568 452.118 119.75 449.763 123.841 449.505C127.932 449.247 131.384 451.184 131.551 453.831C131.717 456.478 128.536 458.833 124.445 459.091Z" fill="#E99E72"/>
<path d="M144.951 674.444C141.927 678.204 140.978 692.667 140.882 699.428C143.269 690.296 145.895 681.151 147.835 678.348C156.096 673.867 159.337 667.393 161.38 663.684C157.727 665.074 147.975 670.684 144.951 674.444Z" fill="url(#paint6_linear)" fill-opacity="0.21"/>
<path d="M168.922 541.522C175.012 534.116 177.814 517.298 178.454 509.814C185.719 531.018 175.914 550.023 174.237 547.412C172.896 545.324 170.135 542.615 168.922 541.522Z" fill="url(#paint7_linear)" fill-opacity="0.1"/>
<mask id="path-61-outside-10" maskUnits="userSpaceOnUse" x="49.8447" y="568.965" width="151" height="15" fill="black">
<rect fill="white" x="49.8447" y="568.965" width="151" height="15"/>
<path d="M60.4527 582.595C58.5997 581.535 54.0837 580.151 50.8447 583.093L60.4527 582.595ZM194.098 573.742C194.551 572.563 196.378 570.156 200.068 569.965Z"/>
</mask>
<path d="M60.4527 582.595L60.4857 583.231L60.7688 582.042L60.4527 582.595ZM50.8447 583.093L50.4168 582.622L50.8777 583.729L50.8447 583.093ZM193.504 573.514C193.377 573.842 193.541 574.21 193.869 574.336C194.198 574.462 194.566 574.298 194.692 573.97L193.504 573.514ZM200.101 570.601C200.452 570.582 200.722 570.283 200.703 569.932C200.685 569.581 200.386 569.311 200.035 569.329L200.101 570.601ZM60.7688 582.042C59.7701 581.471 58.0843 580.826 56.2083 580.708C54.3207 580.59 52.1962 581.005 50.4168 582.622L51.2727 583.564C52.7322 582.238 54.4852 581.875 56.1286 581.978C57.7836 582.082 59.2823 582.659 60.1367 583.147L60.7688 582.042ZM50.8777 583.729L60.4857 583.231L60.4198 581.959L50.8118 582.457L50.8777 583.729ZM194.692 573.97C195.071 572.984 196.703 570.776 200.101 570.601L200.035 569.329C196.052 569.535 194.031 572.142 193.504 573.514L194.692 573.97Z" fill="black" mask="url(#path-61-outside-10)"/>
<path d="M153.825 570.049C148.308 588.523 126.808 596.497 116.747 598.174C127.237 599.814 149.609 601.712 155.179 596.183C160.75 590.653 156.598 576.456 153.825 570.049Z" fill="url(#paint8_linear)" fill-opacity="0.06"/>
<path d="M265.954 494.724C261.284 497.5 246.127 501.244 239.132 502.768C248.808 555.849 231.41 618.664 221.502 643.437C185.791 675.461 167.439 733.114 162.727 757.937C184.248 739.503 233.314 747.173 255.157 753.312C265.702 734.943 299.357 697.619 343.771 668.967C354.768 648.307 338.963 616.948 338.549 595.673C224.775 574.209 268.463 493.233 265.954 494.724Z" fill="url(#paint9_linear)"/>
<path d="M235.457 661.33C243.143 653.649 258.122 636.956 264.651 629.57C286.644 615.037 307.949 622.59 315.853 628.183C363.186 664.371 369.29 719.126 366.426 741.98L351.315 862.557C357.929 878.747 358.342 911.857 357.722 926.387C352.746 958.427 353.9 1014.36 355.099 1038.33C354.034 1042.99 357.065 1052.98 358.713 1057.39C356.939 1060.05 346.103 1060.61 340.906 1060.56C340.672 1054.77 343.029 1046.82 344.237 1043.57C342.171 1033.22 329.118 958.227 322.85 922.017C314.879 897.487 319.443 874.167 322.721 865.577C313.983 835.657 297.636 755.97 290.555 719.864C292.146 733.991 275.521 828.637 267.01 874.197C261.211 893.647 261.055 1009.53 261.702 1065.04C262.114 1069.41 263.989 1075.53 264.875 1078.05C257.19 1081.88 249.064 1078.06 245.961 1075.67C247.444 1060.01 235.666 1002.95 229.592 976.367C218.018 942.257 233.56 892.017 242.777 871.157C242.369 855.257 225.243 792.327 216.731 762.84C196.47 725.241 220.773 679.501 235.457 661.33Z" fill="url(#paint10_linear)"/>
<path d="M213.361 415.687C187.42 440.651 221.247 477.308 242.16 463.72C257.167 481.93 274.294 480.354 282.943 468.832C292.156 491.118 323.942 486.577 325.498 474.165C355.86 485.775 358.23 466.861 359.342 457.995C387.929 474.185 401.533 447.074 404.57 422.842C425.554 418.268 435.909 383.546 418.769 381.398C440.937 373.13 439.104 329.317 415.829 333.003C442.659 300.946 406.394 264.584 382.231 275.363C393.194 187.889 275.865 194.795 268.531 253.309C212.174 204.823 179.269 285.345 200.322 299.39C159.751 326.122 176.069 358.784 191.655 368.542C170.517 393.508 197.623 421.518 213.361 415.687Z" fill="#131313"/>
<path d="M519.023 659.648C504.837 661.712 486.713 653.997 479.424 649.882C469.675 641.456 443.437 668.785 462.573 669.382C477.881 669.86 487.912 677.961 491.014 681.951C495.621 691.173 505.243 699.343 509.478 702.275C516.63 702.691 514.676 697.524 512.805 694.888C508.551 690.513 507.44 683.41 507.416 680.405C522.43 679.405 531.253 689.796 533.788 695.117C537.746 701.856 540.954 698.616 542.063 696.154C542.774 690.48 534.433 680.389 530.174 676.053C535.375 676.705 541.205 682.239 543.47 684.924C546.66 690.126 550.019 690.147 551.3 689.507C554.021 683.124 542.784 674.432 536.825 670.884C541.377 669.053 545.814 671.01 547.464 672.217C556.269 678.604 559.554 677.935 560.096 676.802C562.048 672.724 553.031 667.712 548.279 665.716C555.002 664.757 554.707 662.319 552.418 661.432C549.934 660.469 536.756 657.068 519.023 659.648Z" fill="#834F30"/>
<path d="M278.001 489.628C290.828 486.913 291.63 460.72 290.427 447.962C296.99 441.581 303.801 446.636 306.385 449.962C302.003 477.268 318.54 487.105 327.356 488.61C330.485 498.127 330.865 526.07 330.664 538.852C328.411 560.661 301.447 566.007 288.246 565.953C270.218 568.016 258.673 551.241 255.154 542.595C253.21 523.621 269.575 499.378 278.001 489.628Z" fill="url(#paint11_linear)"/>
<path d="M347.958 394.835L339.503 393.775C333.025 392.963 327.114 397.557 326.302 404.036L325.243 412.491C324.431 418.969 329.024 424.88 335.503 425.692L343.958 426.751C350.437 427.563 356.347 422.969 357.159 416.491L358.219 408.036C359.031 401.557 354.437 395.647 347.958 394.835Z" fill="url(#paint12_linear)"/>
<path d="M342.005 432.121C344.616 432.449 346.999 430.597 347.326 427.986C347.653 425.374 345.802 422.992 343.19 422.665C340.579 422.337 338.197 424.189 337.869 426.8C337.542 429.412 339.394 431.794 342.005 432.121Z" fill="white"/>
<path d="M261.197 389.052L252.743 387.992C246.264 387.18 240.353 391.774 239.541 398.253L238.482 406.707C237.67 413.186 242.264 419.097 248.742 419.909L257.197 420.968C263.676 421.78 269.586 417.186 270.398 410.708L271.458 402.253C272.27 395.774 267.676 389.864 261.197 389.052Z" fill="url(#paint13_linear)"/>
<path d="M296.486 461.311C258.837 455.151 252.593 405.982 254.176 382.168C256.025 332.933 290.275 325.659 307.168 328.176C355.337 338.536 354.955 376.389 348.743 394.02C335.203 454.157 313.035 463.385 296.486 461.311Z" fill="#834F30"/>
<path d="M351.4 401.557C323.557 369.852 277.674 371.906 271.406 335.701C288.853 303.789 320.495 317.64 334.135 328.555C367.408 342.81 359.509 383.163 351.4 401.557Z" fill="#131313"/>
<path d="M247.974 388.595C246.155 345.623 262.398 335.773 270.747 336.219C280.847 359.096 262.727 385.841 252.404 396.354L252.997 391.625C252.466 388.197 249.427 388.176 247.974 388.595Z" fill="#131313"/>
<mask id="path-75-outside-11" maskUnits="userSpaceOnUse" x="268.501" y="379.148" width="69" height="14" fill="black">
<rect fill="white" x="268.501" y="379.148" width="69" height="14"/>
<path d="M270.501 386.634C276.563 381.373 284.026 379.307 290.085 383.068L270.501 386.634ZM315.866 383.915C322.196 382.908 330.273 383.92 334.852 390.497Z"/>
</mask>
<path d="M270.501 386.634L269.209 385.146L270.854 388.573L270.501 386.634ZM290.085 383.068L290.438 385.007L291.124 381.394L290.085 383.068ZM315.556 381.969C314.482 382.14 313.749 383.15 313.92 384.225C314.091 385.299 315.101 386.032 316.176 385.861L315.556 381.969ZM333.235 391.623C333.857 392.516 335.085 392.736 335.978 392.114C336.871 391.492 337.091 390.264 336.469 389.371L333.235 391.623ZM271.792 388.122C277.538 383.136 284.038 381.634 289.046 384.742L291.124 381.394C284.014 376.98 275.588 379.61 269.209 385.146L271.792 388.122ZM289.732 381.13L270.148 384.695L270.854 388.573L290.438 385.007L289.732 381.13ZM316.176 385.861C322.193 384.904 329.292 385.96 333.235 391.623L336.469 389.371C331.254 381.881 322.199 380.912 315.556 381.969L316.176 385.861Z" fill="#131313" mask="url(#path-75-outside-11)"/>
<path d="M319.928 398.813C320.091 397.507 319.165 396.316 317.86 396.152C316.554 395.989 315.363 396.914 315.199 398.22L313.866 408.859C313.702 410.165 314.628 411.356 315.934 411.519C317.24 411.683 318.431 410.757 318.594 409.451L319.928 398.813Z" fill="#131313"/>
<path d="M290.224 396.291C290.388 394.985 289.462 393.794 288.156 393.63C286.85 393.467 285.659 394.392 285.496 395.698L284.162 406.337C283.999 407.643 284.924 408.834 286.23 408.997C287.536 409.161 288.727 408.235 288.891 406.929L290.224 396.291Z" fill="#131313"/>
<mask id="path-79-outside-12" maskUnits="userSpaceOnUse" x="297.196" y="398.621" width="12" height="32" fill="black">
<rect fill="white" x="297.196" y="398.621" width="12" height="32"/>
<path d="M307.219 399.621C308.126 411.541 307.592 434.007 298.196 428.507Z"/>
</mask>
<path d="M308.201 399.546C308.16 399.004 307.687 398.597 307.144 398.639C306.602 398.68 306.195 399.153 306.236 399.696L308.201 399.546ZM298.694 427.657C298.224 427.382 297.62 427.54 297.346 428.009C297.071 428.479 297.229 429.082 297.698 429.357L298.694 427.657ZM306.236 399.696C306.687 405.623 306.774 414.121 305.602 420.416C305.01 423.599 304.127 426.03 302.962 427.334C302.404 427.958 301.822 428.28 301.199 428.356C300.564 428.433 299.745 428.272 298.694 427.657L297.698 429.357C298.995 430.117 300.249 430.457 301.438 430.312C302.639 430.165 303.633 429.541 304.432 428.647C305.981 426.912 306.937 424.013 307.54 420.777C308.757 414.234 308.657 405.539 308.201 399.546L306.236 399.696Z" fill="#131313" mask="url(#path-79-outside-12)"/>
<path d="M287.51 440.169L286.269 438.791L286.877 437.56L288.726 437.708C288.726 437.708 288.726 437.708 288.726 437.708C291.106 437.898 295.102 437.9 299.243 437.273L287.51 440.169ZM287.51 440.169C287.51 440.169 287.51 440.169 287.51 440.169C290.827 443.855 293.924 446.016 296.818 446.937L296.818 446.937M287.51 440.169L296.818 446.937M296.818 446.937C299.765 447.874 302.401 447.492 304.633 446.29C306.819 445.113 308.542 443.193 309.842 441.146L309.843 441.146M296.818 446.937L309.843 441.146M309.843 441.146C311.148 439.092 312.084 436.824 312.664 434.827L312.664 434.826M309.843 441.146L312.664 434.826M312.664 434.826L313.291 432.66L312.13 431.869M312.664 434.826L312.13 431.869M312.13 431.869L310.342 433.244L310.342 433.244M312.13 431.869L310.342 433.244M310.342 433.244C307.541 435.4 303.419 436.641 299.243 437.273L310.342 433.244Z" fill="#131313" stroke="#A40707" stroke-width="1.47783" stroke-linejoin="bevel"/>
<path d="M297.052 461.597C302.601 462.293 307.464 459.946 307.914 456.355C308.364 452.765 304.231 449.29 298.681 448.594C293.132 447.899 288.269 450.246 287.819 453.837C287.369 457.427 291.503 460.902 297.052 461.597Z" fill="#784527"/>
<path d="M279.338 420.954C284.887 421.65 289.75 419.303 290.2 415.712C290.65 412.122 286.517 408.647 280.968 407.952C275.418 407.256 270.555 409.603 270.105 413.194C269.655 416.784 273.789 420.259 279.338 420.954Z" fill="#784527"/>
<path d="M320.711 426.138C326.26 426.834 331.124 424.487 331.574 420.896C332.024 417.306 327.89 413.831 322.341 413.136C316.791 412.44 311.928 414.787 311.478 418.378C311.028 421.968 315.162 425.443 320.711 426.138Z" fill="#784527"/>
<mask id="path-85-outside-13" maskUnits="userSpaceOnUse" x="285.841" y="324.189" width="59" height="56" fill="black">
<rect fill="white" x="285.841" y="324.189" width="59" height="56"/>
<path d="M287.841 326.189C291.656 352.855 327.451 359.097 342.293 378.011Z"/>
</mask>
<path d="M289.791 325.91C289.637 324.833 288.639 324.084 287.562 324.238C286.484 324.393 285.736 325.391 285.89 326.468L289.791 325.91ZM340.743 379.227C341.415 380.084 342.653 380.233 343.509 379.561C344.365 378.889 344.515 377.651 343.843 376.795L340.743 379.227ZM285.89 326.468C287.932 340.737 298.549 349.383 309.866 356.664C312.712 358.495 315.644 360.265 318.523 362.017C321.412 363.775 324.254 365.518 326.968 367.325C332.41 370.946 337.225 374.745 340.743 379.227L343.843 376.795C339.94 371.82 334.715 367.746 329.151 364.044C326.363 362.189 323.461 360.408 320.572 358.65C317.672 356.886 314.792 355.148 311.998 353.35C300.752 346.115 291.565 338.307 289.791 325.91L285.89 326.468Z" fill="white" mask="url(#path-85-outside-13)"/>
<path d="M251.994 423.529C254.606 423.857 256.988 422.005 257.315 419.394C257.643 416.782 255.791 414.4 253.18 414.073C250.568 413.745 248.186 415.597 247.859 418.208C247.531 420.82 249.383 423.202 251.994 423.529Z" fill="white"/>
<mask id="path-88-outside-14" maskUnits="userSpaceOnUse" x="347.838" y="283.263" width="34" height="33" fill="black">
<rect fill="white" x="347.838" y="283.263" width="34" height="33"/>
<path d="M349.838 313.329C356.906 312.814 372.788 306.48 379.77 285.263Z"/>
</mask>
<path d="M349.695 311.364C348.609 311.443 347.794 312.387 347.873 313.472C347.952 314.558 348.896 315.373 349.981 315.294L349.695 311.364ZM381.642 285.879C381.982 284.845 381.42 283.732 380.386 283.391C379.352 283.051 378.238 283.613 377.898 284.647L381.642 285.879ZM349.981 315.294C357.785 314.726 374.392 307.91 381.642 285.879L377.898 284.647C371.184 305.05 356.026 310.902 349.695 311.364L349.981 315.294Z" fill="white" mask="url(#path-88-outside-14)"/>
<path d="M240.877 589.433C241.055 588.015 238.07 587.881 237.553 587.216C225.595 640.467 189.497 684.849 172.943 700.384C138.214 736.069 159.145 764.164 173.952 773.747C188.546 657.315 231.173 666.86 240.877 589.433Z" fill="#205BB3"/>
<path d="M205.648 568.812C212.218 539.379 230.712 512.521 239.138 502.771C243.92 522.1 241.311 560.475 239.41 577.245C233.436 590.424 211.047 626.319 200.6 642.62C195.692 647.287 165.942 662.089 151.68 668.906C142.933 665.889 143.017 650.211 144.152 642.749C152.429 638.023 173.071 625.962 182.357 620.523C188.683 616.032 200.52 584.178 205.648 568.812Z" fill="#205BB3"/>
<path d="M247.258 528.999C255.813 523.468 260.714 504.671 265.963 494.723C273.825 493.307 277.761 489.999 278.747 488.521C253.611 535.799 272.201 547.133 283.602 550.363C334.547 554.347 321.749 480.704 323.595 485.137C325.071 488.684 333.321 490.558 337.261 491.052C334.479 505.592 339.933 530.408 343.008 540.999C356.891 564.351 339.866 583.629 329.619 590.349C308.273 615.049 317.071 629.799 324.137 634.086C294.098 674.506 264.285 655 253.133 640.196C267.68 619.927 253.295 598.993 244.284 591.06C218.331 568.212 230.926 539.559 247.258 528.999Z" fill="url(#paint14_linear)"/>
<path d="M356.985 496.524C353.733 499.479 339.032 492.874 332.088 489.202C319.299 556.757 325.257 593.203 329.835 602.982C339.283 631.06 339.121 674.184 337.859 692.235C320.572 776.517 339.235 777.057 357.557 779.347C365.536 780.827 387.037 778.847 396.79 777.667C423.566 774.777 425.92 760.789 419.923 755.95C410.763 748.558 385.433 713.406 373.912 696.754C345.143 650.405 346.136 608.627 350.23 593.531C370.265 553.419 356.007 547.43 349.807 529.844C348.035 524.819 353.854 505.537 356.985 496.524Z" fill="#205BB3"/>
<path d="M393.237 580.917C387.51 561.469 366.635 516.95 356.913 497.121C345.975 507.757 335.466 562.871 355.925 581.644C372.293 596.662 382.341 613.57 385.319 620.147C405.345 651.953 435.964 663.114 448.77 664.719C451.785 663.656 456.779 648.714 458.899 641.375C441.997 634.454 422.312 612.376 414.582 602.202C413.637 602.084 410.1 602.841 408.45 603.235C403.485 600.692 396.239 587.297 393.237 580.917Z" fill="#205BB3"/>
<path d="M459.716 634.803L458.975 640.714C456.844 650.052 450.102 663.615 445.224 669.007C446.345 675.39 454.973 677.432 458.668 676.695C459.733 672.026 464.04 667.363 466.06 665.615C475.283 657.165 479.906 649.34 481.064 646.484C481.479 643.174 467.005 637.318 459.716 634.803Z" fill="#163F7C"/>
<path d="M147.158 666.47C135.853 668.855 111.572 675.457 104.891 682.784C101.589 686.773 94.7197 696.878 93.6527 705.389C92.7637 712.481 84.9618 712.464 85.9698 704.426C86.3398 701.471 90.0358 694.97 87.6728 690.832C80.6288 692.751 64.8258 698.774 57.0778 714.612C53.4808 721.966 47.1148 717.566 50.9598 710.844C54.2248 705.133 59.3737 696.29 65.8767 692.303C59.9667 691.562 52.2188 700.796 48.3008 708.109C46.0318 712.342 40.8837 712.903 42.6867 705.005C44.0177 699.168 53.9228 687.202 60.9298 683.878C55.0198 683.137 50.8678 688.62 45.0528 695.696C42.7888 698.451 35.9647 696.358 41.6567 689.267C42.9097 687.706 44.3208 686.003 45.8688 684.344C45.9888 684.201 46.1348 684.047 46.3088 683.878C46.3928 683.79 46.4778 683.702 46.5628 683.614C49.1758 680.724 51.4578 673.119 66.9188 669.621C72.0428 667.061 88.3028 660.895 104.083 665.274C118.198 656.437 147.226 639.103 150.417 640.464C154.406 642.164 160.979 651.993 147.158 666.47Z" fill="#834F30"/>
<path d="M157.373 628.127L142.52 636.471C139.379 661.531 147.657 668.932 152.188 669.5L163.864 662.558C157.778 657.473 157.001 637.485 157.373 628.127Z" fill="#174180"/>
<mask id="path-98-outside-15" maskUnits="userSpaceOnUse" x="538.566" y="662.42" width="11" height="5" fill="black">
<rect fill="white" x="538.566" y="662.42" width="11" height="5"/>
<path d="M539.566 663.42C541.364 663.446 545.624 663.94 548.283 665.714Z"/>
</mask>
<path d="M539.581 662.435C539.037 662.427 538.589 662.862 538.581 663.406C538.573 663.95 539.008 664.397 539.552 664.405L539.581 662.435ZM547.737 666.534C548.189 666.836 548.801 666.713 549.103 666.261C549.405 665.808 549.283 665.196 548.83 664.894L547.737 666.534ZM539.552 664.405C540.388 664.417 541.838 664.54 543.395 664.875C544.963 665.212 546.555 665.745 547.737 666.534L548.83 664.894C547.352 663.909 545.485 663.308 543.809 662.948C542.122 662.586 540.542 662.449 539.581 662.435L539.552 664.405Z" fill="black" mask="url(#path-98-outside-15)"/>
<path d="M311.216 434.436C305.855 438.606 295.133 439.202 288.58 439.202L290.963 441.584C298.707 442.776 309.429 439.202 309.429 439.202C309.429 439.202 310.818 436.025 311.216 434.436Z" fill="white"/>
<path d="M312.403 708.973C307.161 714.215 295.923 719.1 290.959 720.887C290.959 723.746 296.519 749.082 299.298 761.392C319.313 751.385 316.374 722.277 312.403 708.973Z" fill="url(#paint15_linear)"/>
<path d="M252.838 707.186C270.112 712.547 280.834 719.695 290.86 720.886C290.86 723.746 288.975 748.486 286.195 760.796C266.181 750.789 248.867 720.489 252.838 707.186Z" fill="url(#paint16_linear)"/>
<path d="M392.229 618.497C401.759 615.638 410.893 607.378 414.268 603.606C414.268 601.223 410.297 602.613 408.312 603.606L405.333 600.627L392.229 618.497Z" fill="url(#paint17_linear)"/>
<path d="M179.613 626.772C179.137 624.389 182.592 621.014 184.379 619.624C184.379 623.913 192.718 626.176 196.888 626.772C191.328 627.765 180.09 629.155 179.613 626.772Z" fill="url(#paint18_linear)"/>
<mask id="path-105-outside-16" maskUnits="userSpaceOnUse" x="46.9355" y="675.211" width="14" height="8" fill="black">
<rect fill="white" x="46.9355" y="675.211" width="14" height="8"/>
<path d="M47.9355 682.168C50.7145 679.587 55.0835 677.403 59.2525 676.211Z"/>
</mask>
<path d="M47.2651 681.446C46.8664 681.816 46.8434 682.44 47.2137 682.838C47.5839 683.237 48.2073 683.26 48.606 682.89L47.2651 681.446ZM59.5234 677.158C60.0465 677.009 60.3494 676.463 60.1998 675.94C60.0502 675.417 59.5048 675.114 58.9817 675.264L59.5234 677.158ZM48.606 682.89C51.2395 680.444 55.4551 678.322 59.5234 677.158L58.9817 675.264C54.712 676.485 50.1896 678.73 47.2651 681.446L48.606 682.89Z" fill="black" mask="url(#path-105-outside-16)"/>
</g>
</g>
</g>
<defs>
<filter id="filter0_d" x="-19" y="-26" width="657.552" height="977.69" filterUnits="userSpaceOnUse" color-interpolation-filters="sRGB">
<feFlood flood-opacity="0" result="BackgroundImageFix"/>
<feColorMatrix in="SourceAlpha" type="matrix" values="0 0 0 0 0 0 0 0 0 0 0 0 0 0 0 0 0 0 127 0"/>
<feOffset dx="10" dy="4"/>
<feGaussianBlur stdDeviation="15"/>
<feColorMatrix type="matrix" values="0 0 0 0 0 0 0 0 0 0 0 0 0 0 0 0 0 0 0.25 0"/>
<feBlend mode="normal" in2="BackgroundImageFix" result="effect1_dropShadow"/>
<feBlend mode="normal" in="SourceGraphic" in2="effect1_dropShadow" result="shape"/>
</filter>
<filter id="filter1_d" x="26.2197" y="187.957" width="583.731" height="919.814" filterUnits="userSpaceOnUse" color-interpolation-filters="sRGB">
<feFlood flood-opacity="0" result="BackgroundImageFix"/>
<feColorMatrix in="SourceAlpha" type="matrix" values="0 0 0 0 0 0 0 0 0 0 0 0 0 0 0 0 0 0 127 0"/>
<feOffset dx="24.7911" dy="3.30548"/>
<feGaussianBlur stdDeviation="12.3955"/>
<feColorMatrix type="matrix" values="0 0 0 0 0.972549 0 0 0 0 0.576471 0 0 0 0 0.0509804 0 0 0 1 0"/>
<feBlend mode="normal" in2="BackgroundImageFix" result="effect1_dropShadow"/>
<feBlend mode="normal" in="SourceGraphic" in2="effect1_dropShadow" result="shape"/>
</filter>
<linearGradient id="paint0_linear" x1="471.145" y1="503.519" x2="471.145" y2="548.202" gradientUnits="userSpaceOnUse">
<stop stop-color="#D7A280"/>
<stop offset="1" stop-color="#F5DAC9"/>
</linearGradient>
<linearGradient id="paint1_linear" x1="428.092" y1="644.012" x2="450.571" y2="667.427" gradientUnits="userSpaceOnUse">
<stop stop-color="#4588ED"/>
<stop offset="1" stop-color="#2B74E3"/>
</linearGradient>
<linearGradient id="paint2_linear" x1="501.612" y1="627.881" x2="501.612" y2="663.308" gradientUnits="userSpaceOnUse">
<stop stop-color="#4588ED"/>
<stop offset="1" stop-color="#2C78EB"/>
</linearGradient>
<linearGradient id="paint3_linear" x1="440.735" y1="607.482" x2="422.471" y2="614.039" gradientUnits="userSpaceOnUse">
<stop/>
<stop offset="1" stop-opacity="0"/>
</linearGradient>
<linearGradient id="paint4_linear" x1="489.665" y1="610.293" x2="494.114" y2="629.494" gradientUnits="userSpaceOnUse">
<stop/>
<stop offset="1" stop-opacity="0"/>
</linearGradient>
<linearGradient id="paint5_linear" x1="119.661" y1="446.194" x2="120.631" y2="472.348" gradientUnits="userSpaceOnUse">
<stop stop-color="#DF9057"/>
<stop offset="1" stop-color="#F5AB75"/>
</linearGradient>
<linearGradient id="paint6_linear" x1="145.117" y1="669.031" x2="156.235" y2="675.586" gradientUnits="userSpaceOnUse">
<stop/>
<stop offset="1" stop-opacity="0"/>
</linearGradient>
<linearGradient id="paint7_linear" x1="176.003" y1="514.565" x2="184.577" y2="516.433" gradientUnits="userSpaceOnUse">
<stop/>
<stop offset="1" stop-opacity="0"/>
</linearGradient>
<linearGradient id="paint8_linear" x1="157.041" y1="594.93" x2="141.296" y2="581.103" gradientUnits="userSpaceOnUse">
<stop/>
<stop offset="1" stop-opacity="0"/>
</linearGradient>
<linearGradient id="paint9_linear" x1="264.153" y1="512.469" x2="378.429" y2="646.296" gradientUnits="userSpaceOnUse">
<stop stop-color="#205BB3"/>
<stop offset="1" stop-color="#123364"/>
</linearGradient>
<linearGradient id="paint10_linear" x1="237.902" y1="641.826" x2="301.833" y2="1027.45" gradientUnits="userSpaceOnUse">
<stop stop-color="#5498FF"/>
<stop offset="1" stop-color="#2666C6"/>
</linearGradient>
<linearGradient id="paint11_linear" x1="304.395" y1="445.735" x2="297.949" y2="493.329" gradientUnits="userSpaceOnUse">
<stop stop-color="#452410"/>
<stop offset="1" stop-color="#834F30"/>
</linearGradient>
<linearGradient id="paint12_linear" x1="359.457" y1="415.97" x2="336.226" y2="410.013" gradientUnits="userSpaceOnUse">
<stop stop-color="#834F30"/>
<stop offset="1" stop-color="#724226"/>
</linearGradient>
<linearGradient id="paint13_linear" x1="244.488" y1="408.225" x2="272.484" y2="408.82" gradientUnits="userSpaceOnUse">
<stop stop-color="#834F30"/>
<stop offset="1" stop-color="#754325"/>
</linearGradient>
<linearGradient id="paint14_linear" x1="239.782" y1="574.287" x2="325.401" y2="609.631" gradientUnits="userSpaceOnUse">
<stop stop-color="white"/>
<stop offset="1" stop-color="#DAE9FF"/>
</linearGradient>
<linearGradient id="paint15_linear" x1="268.324" y1="689.912" x2="311.807" y2="718.504" gradientUnits="userSpaceOnUse">
<stop stop-opacity="0.56"/>
<stop offset="1" stop-opacity="0"/>
</linearGradient>
<linearGradient id="paint16_linear" x1="323.722" y1="666.681" x2="271.304" y2="722.673" gradientUnits="userSpaceOnUse">
<stop stop-opacity="0.56"/>
<stop offset="1" stop-opacity="0"/>
</linearGradient>
<linearGradient id="paint17_linear" x1="405.333" y1="600.627" x2="403.546" y2="618.497" gradientUnits="userSpaceOnUse">
<stop stop-opacity="0"/>
<stop offset="1" stop-opacity="0.16"/>
</linearGradient>
<linearGradient id="paint18_linear" x1="177.826" y1="628.559" x2="192.122" y2="620.22" gradientUnits="userSpaceOnUse">
<stop stop-opacity="0"/>
<stop offset="1" stop-opacity="0.19"/>
</linearGradient>
<clipPath id="clip0">
<rect width="600" height="975" fill="white"/>
</clipPath>
</defs>
</svg>
