<svg width="564" height="446" viewBox="0 0 564 446" fill="none" xmlns="http://www.w3.org/2000/svg">
<path d="M37.7311 221.56C98.8157 269.249 63.183 320.912 37.7311 340.782C-43.3131 426.738 66.5319 465.287 118.999 426.738C235.988 340.782 257.421 445.939 352.754 445.939C429.021 445.939 422.784 386.997 410.133 357.527C397.481 328.056 383.341 325.064 410.133 262.194C443.622 183.605 400.532 126.004 336.01 138.06C284.391 147.705 276.496 113.194 271.71 99.882C207.41 -78.9511 66.5319 30.6708 37.7311 61.7041C25.8606 74.4948 -38.6246 161.949 37.7311 221.56Z" fill="#FFCD40"/>
<mask id="mask0" mask-type="alpha" maskUnits="userSpaceOnUse" x="0" y="0" width="564" height="446">
<path d="M37.3379 221.56C98.4225 269.249 62.7898 320.912 37.3379 340.782C-43.7063 426.738 66.1387 465.287 118.605 426.738C235.595 340.782 257.028 445.939 352.361 445.939C408.948 445.939 420.116 413.491 416.944 384.708C415.841 374.698 567.108 293.731 563.844 286.127C551.192 256.656 533.053 279.543 468.869 256.071C374.495 221.56 439.018 83.5198 374.495 95.5759C322.877 105.221 340.403 49.3784 335.616 36.0664C315.616 -19.5606 223.906 16.5376 194.764 5.68312C130.219 -18.358 57.1801 40.3239 37.3379 61.7041C25.4674 74.4948 -39.0178 161.949 37.3379 221.56Z" fill="#FFCD40"/>
</mask>
<g mask="url(#mask0)">
<g filter="url(#filter0_d)">
<path d="M228.411 13.687C143.177 25.9509 135.154 118.952 141.797 163.919C160.806 247.314 118.036 344.811 91.9753 390.801C200.051 449.054 293.563 435.768 308.892 415.328C325.449 287.784 311.958 193.301 308.892 163.919C316.864 184.768 319.368 223.706 319.623 240.568C329.434 212.975 330.354 167.752 329.588 148.59C333.88 30.8564 263.925 9.59905 228.411 13.687Z" fill="#131313" stroke="black" stroke-width="1.26776"/>
<path d="M180.144 253.602C213.87 248.083 211.06 215.533 205.439 199.948C216.936 186.917 239.624 168.675 238.398 199.948C237.172 231.22 242.997 235.973 249.129 239.805C255.261 243.638 275.701 247.726 284.388 248.236C311.368 248.236 325.778 266.632 329.611 275.83C339.422 316.914 356.182 352.224 363.336 364.743C378.053 353.706 407.793 322.842 420.823 308.789C437.992 298.978 439.73 312.877 438.452 321.053C412.085 378.693 379.432 416.609 366.402 428.362C338.195 427.749 302.528 377.007 288.22 351.713C249.895 345.07 171.253 332.397 163.282 334.85C155.31 337.303 147.952 386.46 147.186 410.733C144.119 428.362 154.34 456.211 163.282 466.687L144.119 492.747C107.328 466.993 102.218 427.34 104.262 410.733L111.16 357.845C115.453 275.677 158.938 254.113 180.144 253.602Z" fill="url(#paint0_linear)"/>
<path d="M163.277 335.613C170.175 308.785 163.532 282.214 161.744 255.897C166.036 252.218 178.862 249.765 184.738 248.999C200.681 271.687 225.107 284.002 235.327 287.324C258.628 273.833 265.987 253.598 266.753 245.167C269.819 246.393 279.783 248.232 284.382 248.999C291.127 256.357 305.589 288.857 311.976 304.186C317.495 325.648 295.88 347.365 284.382 355.541C282.543 362.9 277.995 380.069 275.951 387.734C272.885 409.809 296.135 440.877 308.144 453.652C327.306 474.038 327.817 512.928 327.306 524.936C323.627 567.246 333.438 650.385 338.803 686.666C250.503 719.165 146.669 689.987 105.79 671.336C107.016 658.459 110.285 645.275 115.754 626.879C121.223 608.483 115.521 570.925 115.754 552.53C116.367 504.087 134.223 482.012 141.815 472.048C181.059 420.54 191.892 394.377 192.403 387.734C194.243 374.244 170.942 343.788 163.277 335.613Z" fill="#5296FC"/>
<rect x="260.759" y="128.107" width="41.3905" height="41.3905" rx="15.2131" transform="rotate(7.14369 260.759 128.107)" fill="#DA8755"/>
<rect x="152.2" y="119.128" width="41.3905" height="41.3905" rx="15.2131" transform="rotate(7.14369 152.2 119.128)" fill="#DA8755"/>
<path d="M223.556 215.364C175.11 207.438 167.075 144.169 169.113 113.525C171.492 50.1699 215.563 40.8102 237.302 44.0497C299.284 57.3799 298.793 106.088 290.8 128.776C273.376 206.158 244.851 218.033 223.556 215.364Z" fill="#DA8755"/>
<path d="M294.229 138.475C258.4 97.6774 199.36 100.32 191.294 53.7325C213.744 12.6689 254.461 30.4923 272.013 44.5369C314.827 62.8806 304.663 114.805 294.229 138.475Z" fill="#131313"/>
<path d="M161.132 121.793C158.792 66.4981 179.693 53.8224 190.436 54.3963C203.432 83.8347 180.116 118.249 166.833 131.777L167.596 125.693C166.913 121.281 163.002 121.254 161.132 121.793Z" fill="#131313"/>
<path d="M190.129 119.27C197.93 112.5 207.533 109.841 215.33 114.681M248.504 115.771C256.649 114.475 267.043 115.778 272.934 124.241" stroke="#131313" stroke-width="2.53551" stroke-linecap="round"/>
<rect x="248.029" y="131.136" width="6.13193" height="19.9288" rx="3.06597" transform="rotate(7.14369 248.029 131.136)" fill="#131313"/>
<rect x="209.815" y="127.892" width="6.13193" height="19.9288" rx="3.06597" transform="rotate(7.14369 209.815 127.892)" fill="#131313"/>
<path d="M237.365 135.986C229.936 156.255 251.751 169.248 232.239 173.118" stroke="#131313" stroke-width="1.26776" stroke-linecap="round"/>
<path d="M214.297 182.99L212.009 182.311L213.203 184.377C216.346 189.818 219.563 193.211 222.761 195.029C225.99 196.865 229.144 197.062 232.033 196.214C234.891 195.376 237.437 193.535 239.552 191.377C241.671 189.214 243.404 186.687 244.63 184.392L245.998 181.833L243.381 183.086C239.062 185.155 233.349 185.609 227.867 185.287C222.407 184.966 217.305 183.884 214.297 182.99Z" fill="#131313" stroke="#A40707" stroke-width="1.90164"/>
<circle cx="288.706" cy="121.058" r="2.29947" transform="rotate(7.14369 288.706 121.058)" fill="white"/>
<ellipse cx="202.533" cy="155.069" rx="13.0304" ry="8.43141" transform="rotate(7.14369 202.533 155.069)" fill="#D27B46"/>
<ellipse cx="255.787" cy="161.739" rx="13.0304" ry="8.43141" transform="rotate(7.14369 255.787 161.739)" fill="#D27B46"/>
<ellipse cx="226.751" cy="207.084" rx="11.3208" ry="7.3252" transform="rotate(7.14369 226.751 207.084)" fill="#D27B46"/>
<path d="M209.415 50.8706C215.964 84.9084 262.357 90.7228 282.6 114.117" stroke="white" stroke-width="2.53551" stroke-linecap="round"/>
<path d="M243.732 183.96C235.871 187.778 222.215 185.667 213.967 183.918L216.33 187.553C225.76 191.12 240.211 189.482 240.211 189.482C240.211 189.482 242.808 185.854 243.732 183.96Z" fill="white"/>
<path d="M155.619 350.944C139.676 349.718 120.871 343.279 113.462 340.213C113.462 342.666 111.929 354.01 111.163 359.375C124.04 364.894 143.611 368.318 151.787 369.34C151.787 367.5 154.342 356.309 155.619 350.944Z" fill="#163E7A"/>
<path d="M155.35 208.375C152.897 187.527 159.949 177.205 163.782 174.65C176.659 202.857 166.592 219.106 159.949 223.705C163.628 215.734 158.416 210.164 155.35 208.375Z" fill="white"/>
<path d="M163.782 155.488V174.65M163.782 174.65C159.949 177.205 152.897 187.527 155.35 208.375C158.416 210.164 163.628 215.734 159.949 223.705C166.592 219.106 176.659 202.857 163.782 174.65Z" stroke="white" stroke-width="2.53551" stroke-linecap="round"/>
<path d="M439.152 294.026C433.773 295.401 423.518 305.771 419.062 310.784C418.517 312.409 418.223 318.023 421.411 327.482C424.599 336.942 437.248 339.188 443.174 339.128C453.753 339.498 458.466 337.084 463.708 335.831C468.95 334.577 468.176 330.833 467.998 329.568C475.892 328.458 478.237 323.484 478.423 321.136C483.366 321.06 485.329 318.875 485.693 317.791C487.088 314.499 481.281 312.271 477.885 311.974C471.261 310.772 471.281 307.826 471.862 306.454C473.171 302.554 479.713 301.738 482.82 301.817C485.856 301.39 492.324 301.512 495.178 301.627C504.116 299.131 499.274 295.89 495.735 294.582L483.816 292.388C478.095 291.335 473.7 292.005 472.218 292.471C462.236 296.352 452.87 299.837 449.435 301.094C449.445 296.758 454.728 292.867 457.369 291.464C464.665 286.103 459.911 285.688 456.622 286.15C453.064 287.27 443.493 291.867 439.152 294.026Z" fill="#DC8551"/>
<path d="M477.369 321.099C474.332 321.526 466.375 322.181 458.832 321.384M466.185 329.638C464.196 330.176 458.789 330.988 453.068 329.935" stroke="black" stroke-width="1.26776" stroke-linecap="round"/>
<path d="M364.214 364.599C364.559 364.536 364.787 364.206 364.724 363.862C364.662 363.518 364.332 363.289 363.987 363.352L364.214 364.599ZM353.997 381.694C354.374 379.059 355.355 375.025 357.063 371.515C358.789 367.97 361.158 365.155 364.214 364.599L363.987 363.352C360.299 364.022 357.686 367.339 355.923 370.96C354.144 374.617 353.132 378.785 352.742 381.515L353.997 381.694Z" fill="black"/>
<path d="M249.881 356.308C240.683 360.906 224.587 362.439 211.557 357.84C223.207 373.783 256.78 372.659 272.109 370.104C276.402 364.585 277.986 355.54 278.241 351.708C273.336 346.802 256.098 353.199 249.881 356.308Z" fill="url(#paint1_linear)" fill-opacity="0.2"/>
</g>
</g>
<defs>
<filter id="filter0_d" x="30.9939" y="-18.6667" width="485.949" height="1088.03" filterUnits="userSpaceOnUse" color-interpolation-filters="sRGB">
<feFlood flood-opacity="0" result="BackgroundImageFix"/>
<feColorMatrix in="SourceAlpha" type="matrix" values="0 0 0 0 0 0 0 0 0 0 0 0 0 0 0 0 0 0 127 0"/>
<feOffset dx="-24.0443" dy="4.80885"/>
<feGaussianBlur stdDeviation="18.0332"/>
<feColorMatrix type="matrix" values="0 0 0 0 0.972549 0 0 0 0 0.576471 0 0 0 0 0.0509804 0 0 0 1 0"/>
<feBlend mode="normal" in2="BackgroundImageFix" result="effect1_dropShadow"/>
<feBlend mode="normal" in="SourceGraphic" in2="effect1_dropShadow" result="shape"/>
</filter>
<linearGradient id="paint0_linear" x1="249.895" y1="194.582" x2="255.261" y2="260.5" gradientUnits="userSpaceOnUse">
<stop stop-color="#C36A35"/>
<stop offset="1" stop-color="#DC8551"/>
</linearGradient>
<linearGradient id="paint1_linear" x1="244.899" y1="349" x2="244.899" y2="371.605" gradientUnits="userSpaceOnUse">
<stop stop-opacity="0.54"/>
<stop offset="1" stop-opacity="0"/>
</linearGradient>
</defs>
</svg>
