<svg width="159" height="163" viewBox="0 0 159 163" fill="none" xmlns="http://www.w3.org/2000/svg">
<g filter="url(#filter0_d)">
<rect x="16.1548" y="11.1272" width="127.961" height="127.961" rx="18.916" transform="rotate(1.00558 16.1548 11.1272)" fill="#0063B5"/>
<mask id="mask0" style="mask-type:alpha" maskUnits="userSpaceOnUse" x="-1" y="0" width="160" height="159">
<rect x="122.972" width="127.961" height="127.961" rx="18.916" transform="rotate(73.9481 122.972 0)" fill="#3793DF"/>
</mask>
<g mask="url(#mask0)">
<path fill-rule="evenodd" clip-rule="evenodd" d="M33.4593 62.1719L61.7655 44.6295L63.7191 44.6626L65.9228 42.7457L67.4422 42.7714L60.1469 50.4645L62.1004 50.4976L70.7129 41.9583L72.2323 41.984L67.332 49.2834L73.4208 48.735L75.7164 41.3916L77.2358 41.4173L75.5951 48.5547L83.1924 48.6833L81.1467 41.2664L82.5651 41.2904L85.5801 48.7237L91.6579 48.8265L86.783 41.796L88.5195 41.8254L97.0698 49.7866L98.3722 49.8087L91.1132 42.5207L93.2839 42.5574L125.553 60.2565L124.225 61.7539L126.584 63.5308L124.155 65.8781L126.944 67.8795L124.303 70.006L124.939 70.8853L95.4778 92.5336L93.736 92.5041V169.327H86.7883V89.7197C85.4385 89.5441 83.8552 89.4054 82.0122 89.3147V169.327H64.8624V91.5629C64.4946 91.8848 64.2646 92.2475 64.2096 92.6558L62.4731 92.6264L34.1402 73.2569L34.3867 71.524L31.8076 69.9605L34.2284 68.0473L31.8811 65.6192L34.2982 63.9231L33.4593 62.1719ZM64.8624 89.5706V89.652L39.2366 67.2635L39.6345 65.6406C40.2566 65.352 40.9262 65.0701 41.6398 64.7955L42.2976 66.0126L64.8624 89.5706ZM66.8156 90.539V169.326H68.1182V90.16C67.6551 90.2737 67.218 90.3997 66.8156 90.539ZM76.6572 87.5372L76.6499 87.5374L71.7145 59.7794L71.7607 59.4021C72.2902 59.3695 72.8218 59.3392 73.355 59.3113L73.451 59.8088L76.6572 87.5372ZM81.6805 87.457L81.6757 87.4571L85.169 60.2243L85.4685 59.1072C85.9523 59.1166 86.4359 59.1281 86.9191 59.1418L87.1226 60.2573L81.6805 87.457ZM97.9562 59.8668C94.3552 59.4843 90.6481 59.2475 86.9191 59.1418L86.3278 55.9013L85.4685 59.1072C81.4077 59.0288 77.3337 59.1032 73.355 59.3113L72.6525 55.6699L72.2184 55.6626L71.7607 59.4021C67.9562 59.6367 64.2535 59.9929 60.7491 60.4539L58.9481 57.1746L58.4357 60.7778C55.4319 61.2241 52.5988 61.7488 50.0022 62.3402L48.2793 58.9482L47.4805 62.9551C45.3122 63.5212 43.3497 64.1374 41.6398 64.7955L40.4028 62.5065L39.6345 65.6406C37.984 66.4061 36.6672 67.2188 35.7475 68.0674L35.8247 63.509C44.8639 55.4112 92.9673 48.4088 122.919 61.9433L122.845 66.2846C121.833 65.7618 120.765 65.2707 119.646 64.8104C119.731 63.5719 119.815 61.7605 119.671 61.4598L117.436 63.9639C115.539 63.2873 113.522 62.6882 111.408 62.1621L111.474 58.281L109.274 61.6625C106.519 61.0568 103.624 60.5661 100.638 60.1815L99.5615 56.5593L97.9869 59.7896L97.9562 59.8668ZM87.0018 87.3721L97.9562 59.8668C98.8573 59.9625 99.7517 60.0673 100.638 60.1815L100.794 60.7056L87.1046 87.3704L87.0018 87.3721ZM86.7883 87.908L86.6488 88.2584L86.7883 87.9866V87.908ZM92.6058 87.2826L109.274 61.6625C109.995 61.8211 110.707 61.9876 111.408 62.1621L111.404 62.4052L92.7557 87.2802L92.6058 87.2826ZM117.436 63.9639C118.192 64.2336 118.929 64.5157 119.646 64.8104C119.632 65.0146 119.618 65.2032 119.605 65.3669L94.6613 89.4801L117.436 63.9639ZM47.4805 62.9551C48.293 62.7429 49.1344 62.5378 50.0022 62.3402L50.1705 62.6713L67.7533 88.5898L47.3303 63.7089L47.4805 62.9551ZM58.4357 60.7778L58.2088 62.3731L71.2443 87.5632L61.4757 61.777L60.7491 60.4539C59.9678 60.5567 59.1962 60.6647 58.4357 60.7778ZM63.1507 91.1177L35.9619 68.2936L35.9178 70.8983L63.1507 91.1177ZM123.016 69.1156L123.056 66.7279L96.1628 90.5909L123.016 69.1156Z" fill="white"/>
</g>
<path fill-rule="evenodd" clip-rule="evenodd" d="M128.203 18.1785C125.314 8.13879 114.833 2.34174 104.794 5.23043L18.1783 30.152C8.13855 33.0407 2.34149 43.5212 5.23019 53.561L30.1517 140.176C33.0404 150.216 43.521 156.013 53.5607 153.124L64.8628 149.872V91.5629C64.495 91.8847 64.265 92.2475 64.21 92.6557L62.4735 92.6263L34.1406 73.2568L34.3871 71.524L31.808 69.9605L34.2288 68.0473L31.8815 65.6192L34.2986 63.9231L33.4597 62.1719L61.7659 44.6294L63.7195 44.6625L65.9232 42.7457L67.4426 42.7714L60.1473 50.4645L62.1008 50.4975L70.7133 41.9582L72.2327 41.9839L67.3324 49.2833L73.4212 48.735L75.7168 41.3915L77.2362 41.4172L75.5955 48.5546L83.1928 48.6832L81.147 41.2663L82.5655 41.2903L85.5805 48.7236L91.6583 48.8265L86.7834 41.796L88.5199 41.8253L97.0702 49.7866L98.3726 49.8086L91.1136 42.5206L93.2843 42.5574L125.554 60.2565L124.226 61.7539L126.584 63.5308L124.156 65.8781L126.945 67.8794L124.303 70.006L124.94 70.8853L95.4782 92.5335L93.7364 92.5041V141.565L140.176 128.203C150.216 125.314 156.013 114.834 153.124 104.794L128.203 18.1785ZM86.789 143.564V89.7197C85.4391 89.5441 83.8559 89.4054 82.0129 89.3147V144.938L86.789 143.564ZM68.1183 148.936V90.16C67.6552 90.2737 67.2182 90.3997 66.8158 90.5391V149.311L68.1183 148.936ZM64.8628 89.6518V89.5704L42.298 66.0124L41.6405 64.7958C43.3503 64.1378 45.3128 63.5216 47.481 62.9554L47.3307 63.7093L67.7537 88.5902L50.1709 62.6717L50.0027 62.3405C52.5993 61.7491 55.4325 61.2244 58.4364 60.778L58.2095 62.3733L71.245 87.5635L61.4765 61.7772L60.7499 60.4542C64.2542 59.9932 67.9569 59.6369 71.7614 59.4023L71.7152 59.7795L76.6506 87.5373L76.6579 87.5372L73.4517 59.8089L73.3558 59.3115C77.3345 59.1034 81.4084 59.029 85.4692 59.1074L85.1698 60.2246L81.6765 87.457L81.6813 87.457L87.1233 60.2577L86.9198 59.142C90.6489 59.2477 94.3559 59.4845 97.9569 59.867L87.0026 87.372L87.1055 87.3704L100.795 60.7058L100.639 60.1817C103.625 60.5663 106.52 61.057 109.275 61.6627L92.6066 87.2825L92.7565 87.2801L111.405 62.4053L111.409 62.1623C113.522 62.6883 115.539 63.2874 117.436 63.9638L94.6618 89.4796L119.605 65.3665C119.618 65.2029 119.632 65.0144 119.646 64.8104C120.766 65.2708 121.834 65.7619 122.846 66.2848L122.92 61.9435C92.9683 48.409 44.8648 55.4114 35.8256 63.5093L35.7485 68.0676C36.668 67.2191 37.9846 66.4066 39.6348 65.6411L39.2371 67.2634L64.8628 89.6518ZM119.646 64.8104C118.93 64.5157 118.192 64.2336 117.436 63.9638L119.671 61.4594C119.815 61.76 119.731 63.5719 119.646 64.8104ZM111.409 62.1623C110.708 61.9878 109.996 61.8213 109.275 61.6627L111.475 58.2811L111.409 62.1623ZM100.639 60.1817C99.7525 60.0675 98.858 59.9627 97.9569 59.867L97.9876 59.7898L99.5622 56.5596L100.639 60.1817ZM86.9198 59.142C86.4366 59.1283 85.953 59.1168 85.4692 59.1074L86.3286 55.9017L86.9198 59.142ZM73.3558 59.3115C72.8225 59.3394 72.291 59.3697 71.7614 59.4023L72.2191 55.6626L72.6533 55.67L73.3558 59.3115ZM60.7499 60.4542L58.9488 57.1748L58.4364 60.778C59.197 60.665 59.9685 60.557 60.7499 60.4542ZM50.0027 62.3405C49.1349 62.5382 48.2935 62.7433 47.481 62.9554L48.2798 58.9485L50.0027 62.3405ZM39.6348 65.6411L40.4032 62.5063L41.6405 64.7958C40.9268 65.0705 40.257 65.3524 39.6348 65.6411ZM86.6495 88.2586L86.789 87.9083V87.9869L86.6495 88.2586ZM35.9623 68.2938L63.1511 91.118L35.9183 70.8986L35.9623 68.2938ZM123.056 66.7276L123.016 69.1153L96.1628 90.5906L123.056 66.7276Z" fill="#3793DF"/>
</g>
<defs>
<filter id="filter0_d" x="2.26238" y="4.48804" width="153.83" height="158.318" filterUnits="userSpaceOnUse" color-interpolation-filters="sRGB">
<feFlood flood-opacity="0" result="BackgroundImageFix"/>
<feColorMatrix in="SourceAlpha" type="matrix" values="0 0 0 0 0 0 0 0 0 0 0 0 0 0 0 0 0 0 127 0" result="hardAlpha"/>
<feOffset dy="2.22542"/>
<feGaussianBlur stdDeviation="1.11271"/>
<feColorMatrix type="matrix" values="0 0 0 0 0 0 0 0 0 0 0 0 0 0 0 0 0 0 0.25 0"/>
<feBlend mode="normal" in2="BackgroundImageFix" result="effect1_dropShadow"/>
<feBlend mode="normal" in="SourceGraphic" in2="effect1_dropShadow" result="shape"/>
</filter>
</defs>
</svg>
