<svg width="328" height="682" viewBox="0 0 328 682" fill="none" xmlns="http://www.w3.org/2000/svg">
<rect width="5.81895" height="68.7694" rx="2.90947" transform="matrix(-0.987944 0.154812 0.154812 0.987944 30.3438 175.502)" fill="#163E79"/>
<circle r="26.4498" transform="matrix(-1 0 0 1 27.2358 178.147)" fill="#205BB3"/>
<circle r="21.6888" transform="matrix(-1 0 0 1 27.236 178.147)" fill="#DCDEFF"/>
<mask id="mask0" style="mask-type:alpha" maskUnits="userSpaceOnUse" x="5" y="156" width="44" height="44">
<circle r="21.6888" transform="matrix(-1 0 0 1 27.236 178.148)" fill="#F1F1FF"/>
</mask>
<g mask="url(#mask0)">
<circle r="21.6888" transform="matrix(-1 0 0 1 29.8805 178.147)" fill="#F1F1FF"/>
</g>
<path d="M19.1548 241.702C21.7997 249.637 28.8285 265.58 32.0123 272.56C38.1349 272.56 49.572 271.164 46.3392 265.58C43.1065 259.996 35.441 248.56 32.0123 243.539C35.3185 242.437 35.441 238.764 34.5838 236.56C39.286 232.739 44.204 223.7 41.5636 215.251C38.6247 205.846 19.1548 204.232 19.1548 209.374C18.0527 216.844 16.5098 233.767 19.1548 241.702Z" fill="#834F30"/>
<path d="M178.737 626.357C176.434 630.655 176.144 641.175 176.288 645.898C180.68 660.122 206.684 653.236 205.382 649.545C204.341 646.591 197.46 640.024 194.15 637.11C191.766 635.012 188.953 627.196 188.128 625.329C187.098 622.994 181.615 620.984 178.737 626.357Z" fill="#834F30"/>
<path d="M174.441 653.604C169.541 650.469 174.173 641.661 176.291 638.839C176.03 640.924 180.396 645.97 182.694 647.581C189.362 651.394 195.87 647.127 199.404 643.701C200.265 642.867 201.777 642.964 202.87 643.457C204.896 644.37 207.646 644.092 209.565 644.333C221.724 645.857 220.979 656.496 218.733 662.684C217.508 666.059 211.862 666.674 206.409 669.519C191.684 677.201 185.22 668.481 183.829 663.161C183.178 659.903 177.299 655.432 174.441 653.604Z" fill="#163E7A"/>
<path d="M92.7982 661.01C96.0128 657.885 105.217 644.042 109.417 637.511C111.536 634.248 116.257 635.722 118.97 638.709C121.141 641.098 122.332 648.245 122.657 651.521L118.474 660.259C111.957 670.028 88.78 664.918 92.7982 661.01Z" fill="#834F30"/>
<path d="M108.272 660.747C103.475 662.311 99.3942 659.951 96.9699 657.606C96.0566 656.723 94.4494 656.766 93.3999 657.482C92.0633 658.393 90.7183 658.547 90.0339 658.461C75.4432 656.632 75.3752 665.151 77.1651 669.639C80.1277 677.068 104.466 680.559 106.259 676.814C107.468 674.288 109.011 671.278 110.169 670.247C112.83 666.611 121.473 664.519 123.907 659.178C126.34 653.837 123.584 648.846 122.336 647.072C121.423 651.545 112.58 658.052 108.272 660.747Z" fill="#163E7A"/>
<path d="M122.368 213.946C118.937 215.986 107.8 218.737 102.661 219.857C109.771 258.856 96.9881 305.007 89.7082 323.208C63.4708 346.737 49.9875 389.095 46.5255 407.333C62.3372 393.789 98.3868 399.424 114.435 403.935C122.183 390.439 146.91 363.016 179.541 341.965C187.621 326.786 176.009 303.746 175.704 288.115C92.1132 272.345 124.211 212.851 122.368 213.946Z" fill="url(#paint0_linear)"/>
<path d="M99.9616 336.354C105.609 330.71 116.614 318.446 121.411 313.019C137.569 302.341 153.223 307.89 159.03 312C193.806 338.588 198.291 378.817 196.187 395.608L185.084 484.195C189.944 496.095 190.247 520.422 189.791 531.097C186.136 554.633 186.984 595.729 187.865 613.336C187.082 616.766 189.309 624.102 190.52 627.342C189.217 629.295 181.255 629.709 177.437 629.672C177.265 625.416 178.996 619.575 179.884 617.187C178.366 609.587 168.776 554.486 164.171 527.886C158.314 509.862 161.667 492.728 164.076 486.414C157.656 464.438 145.646 405.887 140.443 379.359C141.612 389.739 129.398 459.279 123.144 492.751C118.884 507.037 118.769 592.179 119.244 632.964C119.547 636.178 120.925 640.673 121.575 642.518C115.929 645.339 109.959 642.533 107.679 640.777C108.769 629.269 100.115 587.342 95.6522 567.816C87.1488 542.756 98.5675 505.844 105.34 490.52C105.04 478.838 92.4573 432.595 86.2036 410.934C71.3173 383.31 89.1729 349.704 99.9616 336.354Z" fill="url(#paint1_linear)"/>
<path d="M78.0694 164.366C61.8186 185.236 90.256 208.352 104.042 196.281C116.861 207.952 129.152 205.013 134.234 195.728C143.268 210.971 165.908 204.34 165.74 195.151C189.035 200.415 188.779 186.413 188.659 179.849C211.143 188.63 218.197 167.49 217.869 149.549C232.65 144.026 236.545 117.692 223.855 117.924C239.111 109.591 233.19 77.9206 216.651 83.0384C232.806 56.9171 202.626 34.2706 186.183 44.6393C184.997 -20.1215 100.396 -2.81437 101.189 40.5053C55.1288 11.1461 39.6304 73.1483 56.4109 81.1577C29.7057 104.846 44.9923 126.89 57.3483 132.354C44.5899 152.722 67.2346 170.254 78.0694 164.366Z" fill="#131313"/>
<path d="M296.004 346.734C285.482 347.209 272.795 340.247 267.766 336.707C261.253 329.836 240.078 347.902 254.024 349.734C265.181 351.2 271.924 357.854 273.901 360.997C276.596 368.076 283.035 374.75 285.917 377.202C291.116 378.028 290.064 374.108 288.889 372.044C286.097 368.535 285.803 363.261 286.005 361.063C297.054 361.427 302.747 369.667 304.212 373.742C306.614 378.957 309.196 376.823 310.186 375.103C311.12 371.007 305.758 363.022 302.96 359.541C306.715 360.397 310.574 364.868 312.034 366.996C313.987 371.032 316.441 371.292 317.424 370.918C319.879 366.45 312.297 359.275 308.2 356.247C311.661 355.24 314.762 356.994 315.88 357.997C321.852 363.308 324.303 363.059 324.782 362.271C326.506 359.432 320.279 355.11 316.95 353.304C321.936 353.093 321.898 351.289 320.289 350.474C318.543 349.589 309.157 346.141 296.004 346.734Z" fill="#834F30"/>
<path d="M131.219 210.201C140.643 208.207 141.232 188.962 140.349 179.589C145.171 174.9 150.174 178.615 152.074 181.058C148.853 201.12 161.003 208.347 167.481 209.453C169.78 216.446 170.059 236.976 169.911 246.367C168.256 262.391 148.445 266.318 138.746 266.278C125.501 267.794 117.018 255.469 114.433 249.117C113.004 235.177 125.029 217.365 131.219 210.201Z" fill="url(#paint2_linear)"/>
<rect x="158.822" y="135.385" width="23.6329" height="23.6329" rx="10.7234" transform="rotate(-1.04906 158.822 135.385)" fill="url(#paint3_linear)"/>
<circle cx="173.278" cy="159.349" r="3.50117" transform="rotate(-1.04906 173.278 159.349)" fill="white"/>
<rect x="95.1221" y="140.262" width="23.6329" height="23.6329" rx="10.7234" transform="rotate(-1.04906 95.1221 140.262)" fill="url(#paint4_linear)"/>
<path d="M143.294 188.842C115.27 188.305 105.581 153.202 104.24 135.718C100.429 99.7194 124.575 90.8439 137.124 90.9059C173.237 93.3962 176.923 120.963 174.251 134.436C170.701 179.586 155.546 188.618 143.294 188.842Z" fill="#834F30"/>
<path d="M176.973 139.64C153.405 119.499 120.254 125.796 111.905 100.123C121.251 75.0898 145.712 81.8497 156.774 88.3588C182.463 95.2421 180.944 125.414 176.973 139.64Z" fill="#131313"/>
<path d="M100.402 141.04C94.581 109.981 105.362 101.116 111.48 100.567C121.22 116.146 110.843 137.493 104.437 146.218L104.373 142.718C103.628 140.28 101.415 140.583 100.402 141.04Z" fill="#131313"/>
<path d="M116.578 137.256C120.436 132.795 125.647 130.511 130.447 132.612M149.284 130.529C153.782 129.133 159.762 129.024 163.78 133.327" stroke="#131313" stroke-width="1.78723" stroke-linecap="round"/>
<rect x="150.266" y="139.252" width="3.50117" height="11.3788" rx="1.75058" transform="rotate(-1.04906 150.266 139.252)" fill="#131313"/>
<rect x="128.4" y="140.528" width="3.50117" height="11.3788" rx="1.75058" transform="rotate(-1.04906 128.4 140.528)" fill="#131313"/>
<path d="M144.642 142.857C146.55 151.431 148.514 167.824 141.105 164.808" stroke="#131313" stroke-width="0.893616" stroke-linecap="round"/>
<path d="M151.845 174.452L153.524 174.568L152.384 173.33C149.946 170.681 147.712 169.174 145.674 168.551C143.612 167.92 141.795 168.208 140.261 169.057C138.748 169.894 137.545 171.257 136.629 172.734C135.71 174.216 135.055 175.852 134.655 177.293L134.109 179.264L135.716 177.998C137.839 176.327 140.94 175.366 144.027 174.863C147.099 174.363 150.067 174.33 151.845 174.452Z" fill="#131313" stroke="#A40707" stroke-width="1.34042"/>
<ellipse cx="143.649" cy="184.176" rx="7.43998" ry="4.81411" transform="rotate(-1.04906 143.649 184.176)" fill="#784527"/>
<ellipse cx="126.51" cy="156.475" rx="7.43998" ry="4.81411" transform="rotate(-1.04906 126.51 156.475)" fill="#784527"/>
<ellipse cx="157.142" cy="155.915" rx="7.43998" ry="4.81411" transform="rotate(-1.04906 157.142 155.915)" fill="#784527"/>
<path d="M122.86 91.4841C128.426 110.476 155.111 111.268 167.884 123.469" stroke="white" stroke-width="1.78723" stroke-linecap="round"/>
<circle cx="106.919" cy="162.524" r="3.50117" transform="rotate(-1.04906 106.919 162.524)" fill="white"/>
<path d="M166.599 75.6408C171.686 74.5263 182.572 68.2573 185.428 52.0969" stroke="white" stroke-width="1.78723" stroke-linecap="round"/>
<path d="M103.943 283.53C104.074 282.488 101.881 282.389 101.501 281.901C92.7157 321.025 66.1939 353.633 54.0313 365.047C28.5154 391.265 43.894 411.907 54.7728 418.951C65.4951 333.404 96.8138 340.416 103.943 283.53Z" fill="#205BB3"/>
<path d="M78.0598 268.38C82.8872 246.755 96.4754 227.023 102.666 219.859C106.179 234.061 104.263 262.255 102.865 274.577C98.4762 284.259 83.8763 312.043 74.351 322.608C59.1964 339.416 50.7471 335.696 29.073 274.577C34.216 268.834 41.5632 260.802 47.4409 260.802C49.2777 272.558 61.7679 297.526 64.3394 295.701C64.9181 295.29 64.3394 291.66 66.7104 292.762C70.0503 287.629 75.1404 277.129 78.0598 268.38Z" fill="#205BB3"/>
<path d="M108.631 239.128C114.916 235.064 118.517 221.254 122.374 213.945C128.15 212.904 131.042 210.474 131.766 209.388C113.298 244.124 126.957 252.451 135.334 254.825C172.764 257.751 163.361 203.644 164.717 206.902C165.802 209.508 171.863 210.885 174.758 211.248C172.713 221.93 176.721 240.163 178.98 247.945C189.18 265.102 176.672 279.265 169.143 284.203C153.46 302.35 159.923 313.187 165.115 316.337C143.045 346.034 121.141 331.703 112.948 320.826C123.635 305.934 113.066 290.554 106.446 284.725C87.3777 267.938 96.6317 246.886 108.631 239.128Z" fill="url(#paint5_linear)"/>
<path d="M189.241 215.617C185.927 216.334 176.06 212.586 170.958 209.888C161.561 259.522 165.939 286.3 169.302 293.484C176.244 314.114 176.125 345.797 175.198 359.06C162.497 420.982 176.209 421.378 189.67 423.065C195.533 424.153 211.329 422.692 218.495 421.826C238.168 419.704 239.897 409.428 235.491 405.872C228.762 400.442 210.151 374.615 201.687 362.38C180.549 328.327 181.279 297.632 184.286 286.541C199.007 257.07 188.532 252.669 183.976 239.748C182.674 236.057 186.941 222.239 189.241 215.617Z" fill="#205BB3"/>
<path d="M209.784 280.002C207.016 265.366 202.833 223.333 189.241 215.618C180.468 222.596 168.865 262.595 182.453 277.812C193.324 289.985 199.437 303.079 201.135 308.104C213.457 332.818 235.027 343.211 244.273 345.318C246.554 344.761 251.295 334.2 253.381 328.99C241.528 322.698 228.747 305.121 223.837 297.12C223.155 296.964 220.514 297.26 219.279 297.427C215.835 295.206 211.514 284.885 209.784 280.002Z" fill="#205BB3"/>
<path d="M254.457 324.246L253.484 328.513C251.246 335.185 245.327 344.609 241.368 348.195C241.722 352.944 247.881 355.066 250.636 354.796C251.755 351.461 255.244 348.365 256.848 347.235C264.207 341.73 268.158 336.347 269.213 334.343C269.758 331.953 259.603 326.616 254.457 324.246Z" fill="#163F7C"/>
<path d="M31.4198 284.481L26.7045 272.886C36.3725 257.048 44.5173 256.585 47.3812 258.333L50.9129 267.667C45.0873 267.802 35.4902 278.933 31.4198 284.481Z" fill="#174180"/>
<path d="M310.748 350.991C312.061 351.141 315.139 351.813 316.954 353.304" stroke="black" stroke-width="0.893616" stroke-linecap="round"/>
<path d="M136.4 174.549C140.304 171.441 143.031 170.349 147.845 170.295C147.337 170.006 147.257 169.88 145.774 169.287C140.774 167.287 137.732 172.286 137.732 172.286C137.732 172.286 136.813 173.468 136.4 174.549Z" fill="white"/>
<path d="M156.495 371.358C152.644 375.209 144.387 378.798 140.74 380.111C140.74 382.211 144.825 400.826 146.867 409.871C161.572 402.518 159.413 381.132 156.495 371.358Z" fill="url(#paint6_linear)"/>
<path d="M112.731 370.044C125.423 373.983 133.3 379.235 140.666 380.11C140.666 382.211 139.282 400.388 137.239 409.433C122.534 402.08 109.813 379.819 112.731 370.044Z" fill="url(#paint7_linear)"/>
<path d="M206.308 307.403C213.484 306.008 220.764 300.635 223.507 298.123C223.681 296.381 220.676 297.108 219.152 297.689L217.192 295.294L206.308 307.403Z" fill="url(#paint8_linear)"/>
<path d="M64.7078 297.539C64.4247 296.298 64.7485 293.854 65.8098 293.13C65.8098 295.364 71.7826 296.91 74.2591 297.221C70.9571 297.738 64.9908 298.78 64.7078 297.539Z" fill="url(#paint9_linear)"/>
<path d="M41.1305 216.294C38.8895 214.637 35.5212 213.4 32.3791 212.872" stroke="black" stroke-width="0.893616" stroke-linecap="round"/>
<path d="M41.9318 224.863C40.095 223.761 36.9919 222.277 33.8499 221.749" stroke="black" stroke-width="0.893616" stroke-linecap="round"/>
<path d="M40.8283 258.006C39.3589 256.904 36.0527 255.802 34.5833 255.628" stroke="black" stroke-width="0.893616" stroke-linecap="round"/>
<defs>
<linearGradient id="paint0_linear" x1="121.045" y1="226.984" x2="205.005" y2="325.308" gradientUnits="userSpaceOnUse">
<stop stop-color="#205BB3"/>
<stop offset="1" stop-color="#123364"/>
</linearGradient>
<linearGradient id="paint1_linear" x1="101.758" y1="322.023" x2="148.729" y2="605.343" gradientUnits="userSpaceOnUse">
<stop stop-color="#5498FF"/>
<stop offset="1" stop-color="#2666C6"/>
</linearGradient>
<linearGradient id="paint2_linear" x1="150.611" y1="177.952" x2="145.875" y2="212.92" gradientUnits="userSpaceOnUse">
<stop stop-color="#452410"/>
<stop offset="1" stop-color="#834F30"/>
</linearGradient>
<linearGradient id="paint3_linear" x1="184.083" y1="149.742" x2="166.603" y2="147.522" gradientUnits="userSpaceOnUse">
<stop stop-color="#834F30"/>
<stop offset="1" stop-color="#724226"/>
</linearGradient>
<linearGradient id="paint4_linear" x1="99.6392" y1="155.766" x2="120.103" y2="153.642" gradientUnits="userSpaceOnUse">
<stop stop-color="#834F30"/>
<stop offset="1" stop-color="#754325"/>
</linearGradient>
<linearGradient id="paint5_linear" x1="103.138" y1="272.402" x2="166.044" y2="298.37" gradientUnits="userSpaceOnUse">
<stop stop-color="white"/>
<stop offset="1" stop-color="#DAE9FF"/>
</linearGradient>
<linearGradient id="paint6_linear" x1="124.11" y1="357.353" x2="156.058" y2="378.36" gradientUnits="userSpaceOnUse">
<stop stop-opacity="0.56"/>
<stop offset="1" stop-opacity="0"/>
</linearGradient>
<linearGradient id="paint7_linear" x1="164.811" y1="340.285" x2="126.298" y2="381.423" gradientUnits="userSpaceOnUse">
<stop stop-opacity="0.56"/>
<stop offset="1" stop-opacity="0"/>
</linearGradient>
<linearGradient id="paint8_linear" x1="217.192" y1="295.294" x2="214.582" y2="308.228" gradientUnits="userSpaceOnUse">
<stop stop-opacity="0"/>
<stop offset="1" stop-opacity="0.16"/>
</linearGradient>
<linearGradient id="paint9_linear" x1="62.9383" y1="298.151" x2="70.8276" y2="292.904" gradientUnits="userSpaceOnUse">
<stop stop-opacity="0"/>
<stop offset="1" stop-opacity="0.19"/>
</linearGradient>
</defs>
</svg>
