<svg width="1440" height="693" fill="none" xmlns="http://www.w3.org/2000/svg"><path d="M0 0h1440v556.827L0 693V0z" fill="#F8FBFF"/><g opacity=".7"><g opacity=".5"><path fill="url(#paint0_linear)" d="M181.454 68.868h6.035V394.07h-6.035z"/><path d="M167.574 179.864v71.077h56.729l1.81-70.103-58.539-.974z" fill="#C5DCFE"/><path d="M160.935 297.19l-8.449-35.051c6.76-6.621 24.543-5.68 32.589-4.382l4.225 39.433c-4.345 3.505-20.72 1.461-28.365 0z" fill="#D8E7FE"/><path transform="matrix(.92845 -.37145 .52374 .85188 124.724 105.109)" fill="url(#paint1_linear)" d="M0 0h5.823v341.997H0z"/><path d="M248.445 265.059l-18.709-25.315-42.245 29.696 27.158 30.671 33.796-35.052z" fill="#DDEBFF"/><path d="M245.423 252.402h-31.985l22.933 36.999c11.587 4.284 24.14-.162 28.968-2.921l-19.916-34.078z" fill="#E9F2FF"/><path transform="matrix(.95097 .3093 -.44708 .8945 253.749 66.92)" fill="url(#paint2_linear)" d="M0 0h5.886v337.185H0z"/><path d="M152.486 262.138v-87.629c3.38-3.116 5.432-1.298 6.035 0l27.761 87.629c-13.035-5.452-27.962-2.271-33.796 0z" fill="#DEEBFE"/><path d="M186.887 240.231l-35.003-55.499c4.345-7.399 13.478-7.627 17.502-6.815l30.778 51.117c-.483 6.231-9.052 10.061-13.277 11.197z" fill="#EBF3FF"/><path fill="url(#paint3_linear)" d="M212.837 27h6.035v325.202h-6.035z"/><path d="M194.73 129.234c-2.414-1.558-10.259-.649-13.88 0v61.827c2.896-3.505 14.484-5.03 19.915-5.355 18.346 0 25.347 9.737 26.554 14.605 6.759 1.168 12.07 3.083 13.88 3.895l-1.81-31.644c-2.414-3.895-17.501-6.167-24.743-6.816-14.967-1.947-19.514-14.118-19.916-19.96v-16.552zM233.96 211.021c-29.933 3.895-49.084 23.693-54.918 33.105 0 11.294 5.23 50.792 7.845 69.13 3.38-11.295 15.893-29.697 21.726-37.486 4.346-5.842 24.342-27.425 33.796-37.486 0-4.674-5.632-20.122-8.449-27.263z" fill="#EBF3FF"/></g><path fill-rule="evenodd" clip-rule="evenodd" d="M521.314 26h1.859v9.352h7.435v1.87h-7.435V53.73l21.324 69.331 4.577-17.254 5.076 20.574V272.898h-64.439V126.381l5.458-20.574 4.229 17.143 21.916-71.252V37.223h-6.816v-1.87h6.816V26z" fill="url(#paint4_linear)"/><path fill-rule="evenodd" clip-rule="evenodd" d="M450.679 441.238V256.172l8.347-48.738 7.763 48.738v21.482l57.311-42.788 53.595 43.02v163.352H450.679zm-55.146-.001h55.144V332.172l-26.573-28.723-28.571 28.723v-38.986l-5.076-38.991L385 293.186v148.052h10.533v-.001zm253.416.001V293.186l5.457-38.991 5.076 38.991v148.052h-10.533zm-71.25-185.066v185.066h16.11v-.001h55.137V332.172l-26.574-28.723-28.563 28.716v-75.993l-7.763-48.738-8.347 48.738z" fill="url(#paint5_linear)"/><mask id="a" fill="#fff"><path fill-rule="evenodd" clip-rule="evenodd" d="M568.987 322.154c-.783-29.511-15.497-58.214-45.427-67.959-28.524 6.081-45.837 39.914-46.816 67.959h-.044v120.331h92.32V322.154h-.033z"/></mask><path fill-rule="evenodd" clip-rule="evenodd" d="M568.987 322.154c-.783-29.511-15.497-58.214-45.427-67.959-28.524 6.081-45.837 39.914-46.816 67.959h-.044v120.331h92.32V322.154h-.033z" fill="url(#paint6_linear)"/><path d="M523.56 254.195l.127-.393-.105-.034-.108.023.086.404zm45.427 67.959l-.412.011.01.401h.402v-.412zm-92.243 0v.412h.399l.013-.398-.412-.014zm-.044 0v-.413h-.412v.413h.412zm0 2.33l.413.001v-.001h-.413zm0 .164h-.412v.412h.412v-.412zm0 0h.413v-.413h-.413v.413zm0 117.837h-.412v.413h.412v-.413zm92.32 0v.413h.413v-.413h-.413zm0-120.331h.413v-.413h-.413v.413zm-45.588-67.567c29.713 9.675 44.362 38.181 45.143 67.578l.825-.022c-.787-29.625-15.565-58.525-45.713-68.341l-.255.785zm-46.276 67.581c.488-13.95 5.039-29.349 13.016-42.01 7.977-12.662 19.353-22.549 33.474-25.56l-.172-.807c-14.403 3.071-25.945 13.141-34 25.927-8.056 12.787-12.65 28.327-13.142 42.421l.824.029zm-.456.398h.044v-.825h-.044v.825zm.413 1.918v-2.33h-.825v2.33h.825zm0 .164v-.163l-.825-.002v.165h.825zm-.413-.413v.825-.825zm.413 118.25V324.648h-.825v117.837h.825zm91.907-.413H476.7v.826h92.32v-.826zm-.412-119.918v120.331h.825V322.154h-.825zm.379.412h.033v-.825h-.033v.825z" fill="#EBF3FF" mask="url(#a)"/><path fill="#E8F1FF" d="M484.136 199.328h78.069v3.117h-78.069zM484.136 140.097h78.069v3.117h-78.069z"/><path fill="url(#paint7_linear)" stroke="#EBF3FF" stroke-width=".413" d="M493.013 364.757h60.308v76.275h-60.308z"/><path d="M501.066 335.119c5.208-8.758 12.774-15.662 22.236-17.739 19.816 6.609 29.334 26.326 29.399 46.341h-59.687c.041-9.367 2.873-19.891 8.052-28.602z" fill="url(#paint8_linear)" stroke="#EBF3FF" stroke-width=".413"/><path fill="url(#paint9_linear)" stroke="#EBF3FF" stroke-width=".413" d="M497.349 364.757h51.014v76.275h-51.014z"/><path d="M504.154 338.199c4.4-7.819 10.786-13.975 18.765-15.83 16.718 5.897 24.762 23.482 24.824 41.352h-50.394c.039-8.361 2.432-17.75 6.805-25.522z" fill="url(#paint10_linear)" stroke="#EBF3FF" stroke-width=".413"/><mask id="b" fill="#fff"><path fill-rule="evenodd" clip-rule="evenodd" d="M542.972 362.678c-.391-14.632-6.909-28.832-20.118-33.666-12.585 3.016-20.244 19.739-20.732 33.666h-.025v78.559h41.513v-78.559h-.638z"/></mask><path fill-rule="evenodd" clip-rule="evenodd" d="M542.972 362.678c-.391-14.632-6.909-28.832-20.118-33.666-12.585 3.016-20.244 19.739-20.732 33.666h-.025v78.559h41.513v-78.559h-.638z" fill="url(#paint11_linear)"/><path d="M522.854 329.012l.142-.387-.117-.043-.121.029.096.401zm20.118 33.666l-.412.011.01.402h.402v-.413zm-40.85 0v.413h.399l.014-.398-.413-.015zm-.025 0v-.412h-.412v.412h.412zm0 78.559h-.412v.412h.412v-.412zm41.513 0v.412h.413v-.412h-.413zm0-78.559h.413v-.412h-.413v.412zM522.712 329.4c12.984 4.751 19.459 18.743 19.848 33.289l.825-.022c-.394-14.718-6.956-29.127-20.389-34.042l-.284.775zm-20.177 33.293c.242-6.901 2.261-14.499 5.776-20.737 3.518-6.244 8.5-11.072 14.639-12.543l-.192-.802c-6.446 1.544-11.586 6.585-15.166 12.94-3.583 6.358-5.636 14.086-5.882 21.113l.825.029zm-.438.398h.025v-.825h-.025v.825zm.413 78.146v-78.559h-.825v78.559h.825zm41.1-.413h-41.513v.825h41.513v-.825zm-.412-78.146v78.559h.825v-78.559h-.825zm-.226.413h.638v-.825h-.638v.825z" fill="#EBF3FF" mask="url(#b)"/><path fill="url(#paint12_linear)" stroke="#EBF3FF" stroke-width=".413" d="M405.031 393.144h36.763v46.539h-36.763z"/><path d="M409.949 374.958c3.177-5.344 7.785-9.547 13.54-10.818 12.048 4.029 17.859 16.01 17.924 28.209H405.03c.041-5.7 1.77-12.095 4.919-17.391z" fill="url(#paint13_linear)" stroke="#EBF3FF" stroke-width=".413"/><path fill="url(#paint14_linear)" stroke="#EBF3FF" stroke-width=".413" d="M407.69 393.144h31.073v46.539H407.69z"/><path d="M411.846 376.843c2.683-4.769 6.569-8.513 11.414-9.648 10.152 3.594 15.062 14.268 15.123 25.154h-30.692c.038-5.085 1.499-10.785 4.155-15.506z" fill="url(#paint15_linear)" stroke="#EBF3FF" stroke-width=".413"/><mask id="c" fill="#fff"><path fill-rule="evenodd" clip-rule="evenodd" d="M435.541 391.794c-.239-8.959-4.23-17.654-12.317-20.614-7.706 1.847-12.395 12.087-12.693 20.614h-.015V439.891h25.417v-48.097h-.392z"/></mask><path fill-rule="evenodd" clip-rule="evenodd" d="M435.541 391.794c-.239-8.959-4.23-17.654-12.317-20.614-7.706 1.847-12.395 12.087-12.693 20.614h-.015V439.891h25.417v-48.097h-.392z" fill="url(#paint16_linear)"/><path d="M423.224 371.18l.141-.387-.116-.043-.121.029.096.401zm12.317 20.614l-.413.011.011.402h.402v-.413zm-25.01 0v.413h.398l.014-.398-.412-.015zm-.015 0v-.412h-.412v.412h.412zm0 .655l.413.004v-.004h-.413zm0 .203h-.413v.413h.413v-.413zm0 0h.413v-.412h-.413v.412zm0 47.239h-.412v.413h.412v-.413zm25.417 0v.413h.412v-.413h-.412zm0-48.097h.412v-.412h-.412v.412zm-12.851-20.226c7.863 2.877 11.81 11.364 12.046 20.237l.825-.022c-.241-9.045-4.275-17.948-12.588-20.99l-.283.775zm-12.139 20.241c.147-4.201 1.377-8.828 3.516-12.625 2.141-3.801 5.161-6.716 8.861-7.602l-.192-.803c-4.007.96-7.184 4.088-9.388 8-2.207 3.917-3.47 8.674-3.622 13.001l.825.029zm-.427.398h.015v-.825h-.015v.825zm.413.242v-.655h-.825v.655h.825zm-.001.203l.001-.199-.825-.007-.001.206h.825zm-.412-.412v.825-.825zm.413 47.651v-47.239h-.825v47.239h.825zm25.004-.412h-25.417v.825h25.417v-.825zm-.413-47.685v48.097h.825v-48.097h-.825zm.021.413h.392v-.825h-.392v.825z" fill="#EBF3FF" mask="url(#c)"/><path fill="url(#paint17_linear)" stroke="#EBF3FF" stroke-width=".413" d="M603.926 394.39h36.763v46.539h-36.763z"/><path d="M608.844 376.205c3.177-5.344 7.786-9.547 13.54-10.818 12.049 4.029 17.86 16.011 17.924 28.209h-36.382c.041-5.7 1.769-12.094 4.918-17.391z" fill="url(#paint18_linear)" stroke="#EBF3FF" stroke-width=".413"/><path fill="url(#paint19_linear)" stroke="#EBF3FF" stroke-width=".413" d="M606.584 394.39h31.073v46.539h-31.073z"/><path d="M610.741 378.089c2.682-4.769 6.569-8.513 11.414-9.648 10.151 3.594 15.061 14.268 15.122 25.154h-30.692c.039-5.085 1.499-10.785 4.156-15.506z" fill="url(#paint20_linear)" stroke="#EBF3FF" stroke-width=".413"/><mask id="d" fill="#fff"><path fill-rule="evenodd" clip-rule="evenodd" d="M634.435 393.039c-.239-8.959-4.23-17.654-12.318-20.613-7.706 1.846-12.394 12.086-12.693 20.613h-.016v48.097h25.416v-48.097h-.389z"/></mask><path fill-rule="evenodd" clip-rule="evenodd" d="M634.435 393.039c-.239-8.959-4.23-17.654-12.318-20.613-7.706 1.846-12.394 12.086-12.693 20.613h-.016v48.097h25.416v-48.097h-.389z" fill="url(#paint21_linear)"/><path d="M622.117 372.426l.142-.388-.117-.043-.121.029.096.402zm12.318 20.613l-.413.011.011.402h.402v-.413zm-25.011 0v.413h.399l.014-.398-.413-.015zm-.016 0v-.412h-.413v.412h.413zm0 48.097h-.413v.413h.413v-.413zm25.416 0v.413h.412v-.413h-.412zm0-48.097h.412v-.412h-.412v.412zm-12.849-20.226c7.863 2.877 11.81 11.364 12.047 20.237l.825-.022c-.241-9.045-4.276-17.948-12.588-20.99l-.284.775zm-12.138 20.241c.147-4.201 1.377-8.828 3.516-12.624 2.141-3.802 5.161-6.717 8.86-7.603l-.192-.803c-4.006.96-7.184 4.088-9.387 8.001-2.207 3.916-3.471 8.673-3.622 13l.825.029zm-.429.398h.016v-.825h-.016v.825zm.412 47.684v-48.097h-.825v48.097h.825zm25.004-.412h-25.416v.825h25.416v-.825zm-.413-47.685v48.097h.825v-48.097h-.825zm.024.413h.389v-.825h-.389v.825z" fill="#EBF3FF" mask="url(#d)"/><path fill="url(#paint22_linear)" stroke="#EBF3FF" stroke-width=".413" d="M501.073 176.797h17.59v22.324h-17.59z"/><path d="M503.44 167.939c1.524-2.563 3.724-4.569 6.46-5.183 5.723 1.929 8.514 7.611 8.578 13.443h-17.403c.04-2.714.87-5.745 2.365-8.26z" fill="url(#paint23_linear)" stroke="#EBF3FF" stroke-width=".413"/><path fill="url(#paint24_linear)" stroke="#EBF3FF" stroke-width=".413" d="M502.361 176.797h14.834v22.324h-14.834z"/><path d="M504.36 168.848c1.285-2.284 3.136-4.064 5.429-4.614 4.804 1.719 7.161 6.766 7.222 11.964h-14.648c.038-2.417.738-5.113 1.997-7.35z" fill="url(#paint25_linear)" stroke="#EBF3FF" stroke-width=".413"/><path fill="url(#paint26_linear)" stroke="#EBF3FF" stroke-width=".413" d="M503.832 176.797h11.895v22.324h-11.895z"/><path d="M505.438 170.12c1.03-1.91 2.508-3.39 4.33-3.851 3.825 1.435 5.716 5.631 5.774 9.976h-11.708c.036-2.017.599-4.261 1.604-6.125z" fill="url(#paint27_linear)" stroke="#EBF3FF" stroke-width=".413"/><path fill="url(#paint28_linear)" stroke="#EBF3FF" stroke-width=".413" d="M525.237 176.797h17.59v22.324h-17.59z"/><path d="M527.606 167.939c1.523-2.563 3.724-4.569 6.459-5.183 5.723 1.929 8.514 7.611 8.579 13.443H525.24c.04-2.714.87-5.745 2.366-8.26z" fill="url(#paint29_linear)" stroke="#EBF3FF" stroke-width=".413"/><path fill="url(#paint30_linear)" stroke="#EBF3FF" stroke-width=".413" d="M526.521 176.797h14.834v22.324h-14.834z"/><path d="M528.52 168.849c1.285-2.284 3.136-4.064 5.428-4.614 4.805 1.719 7.162 6.766 7.222 11.964h-14.648c.038-2.417.739-5.113 1.998-7.35z" fill="url(#paint31_linear)" stroke="#EBF3FF" stroke-width=".413"/><path fill="url(#paint32_linear)" stroke="#EBF3FF" stroke-width=".413" d="M527.996 176.797h11.895v22.324h-11.895z"/><path d="M529.602 170.12c1.03-1.91 2.508-3.39 4.33-3.851 3.825 1.435 5.717 5.631 5.775 9.976h-11.709c.036-2.017.599-4.261 1.604-6.125z" fill="url(#paint33_linear)" stroke="#EBF3FF" stroke-width=".413"/><path d="M539.694 295.032c0 10.045-8.092 18.186-18.072 18.186-9.979 0-18.071-8.141-18.071-18.186 0-10.046 8.092-18.187 18.071-18.187 9.98 0 18.072 8.141 18.072 18.187z" fill="url(#paint34_linear)" fill-opacity=".5" stroke="#EBF3FF" stroke-width=".413"/><path d="M537.217 295.031c0 8.668-6.983 15.692-15.594 15.692-8.61 0-15.593-7.024-15.593-15.692s6.983-15.692 15.593-15.692c8.611 0 15.594 7.024 15.594 15.692z" fill="url(#paint35_linear)" fill-opacity=".5" stroke="#EBF3FF" stroke-width=".413"/><path d="M533.499 295.341c0 6.43-5.179 11.64-11.566 11.64-6.386 0-11.566-5.21-11.566-11.64 0-6.429 5.18-11.639 11.566-11.639 6.387 0 11.566 5.21 11.566 11.639z" fill="url(#paint36_linear)" fill-opacity=".5" stroke="#EBF3FF" stroke-width=".413"/><path d="M521.658 295.11c-.083-2.355 1.176-7.337 6.88-8.434.149 2.274-1.019 7.145-6.88 8.434z" stroke="#EBF3FF" stroke-width=".413"/><path d="M522.102 294.56c1.621-1.699 6.053-4.258 10.806-.9-1.519 1.691-5.807 4.237-10.806.9z" stroke="#EBF3FF" stroke-width=".413"/><path d="M521.884 295.388c2.207-.786 7.309-1.072 10.059 4.074-2.111.825-7.079 1.166-10.059-4.074z" stroke="#EBF3FF" stroke-width=".413"/><path d="M521.798 295.392c2.201.802 6.325 3.838 5.206 9.572-2.152-.711-6.207-3.619-5.206-9.572z" stroke="#EBF3FF" stroke-width=".413"/><path d="M522.195 295.429c.084 2.355-1.175 7.338-6.879 8.434-.149-2.274 1.018-7.144 6.879-8.434z" stroke="#EBF3FF" stroke-width=".413"/><path d="M522.264 295.488c1.422 1.872 3.26 6.669-.762 10.884-1.429-1.768-3.277-6.42.762-10.884zM522.264 284.265c1.422 1.872 3.26 6.669-.762 10.884-1.429-1.768-3.277-6.42.762-10.884zM521.754 295.981c-1.621 1.699-6.053 4.258-10.806.9 1.519-1.691 5.807-4.237 10.806-.9z" stroke="#EBF3FF" stroke-width=".413"/><path d="M521.967 295.152c-2.207.787-7.309 1.072-10.059-4.074 2.111-.825 7.079-1.165 10.059 4.074z" stroke="#EBF3FF" stroke-width=".413"/><path d="M522.056 295.146c-2.202-.801-6.325-3.837-5.206-9.571 2.152.71 6.206 3.619 5.206 9.571z" stroke="#EBF3FF" stroke-width=".413"/><path d="M434.986 343.351c0 6.43-5.179 11.64-11.566 11.64-6.386 0-11.566-5.21-11.566-11.64 0-6.429 5.18-11.639 11.566-11.639 6.387 0 11.566 5.21 11.566 11.639z" fill="url(#paint37_linear)" stroke="#EBF3FF" stroke-width=".413"/><path d="M433.394 343.352c0 5.543-4.464 10.034-9.969 10.034-5.505 0-9.97-4.491-9.97-10.034 0-5.542 4.465-10.033 9.97-10.033 5.505 0 9.969 4.491 9.969 10.033z" fill="url(#paint38_linear)" stroke="#EBF3FF" stroke-width=".413"/><path d="M431.001 343.554c0 4.101-3.303 7.423-7.376 7.423-4.072 0-7.376-3.322-7.376-7.423 0-4.102 3.304-7.424 7.376-7.424 4.073 0 7.376 3.322 7.376 7.424z" fill="url(#paint39_linear)" stroke="#EBF3FF" stroke-width=".413"/><path d="M423.445 343.404c-.054-1.516.757-4.726 4.43-5.432.096 1.465-.655 4.602-4.43 5.432z" stroke="#EBF3FF" stroke-width=".413"/><path d="M423.731 343.049c1.045-1.094 3.899-2.742 6.96-.58-.978 1.089-3.74 2.729-6.96.58z" stroke="#EBF3FF" stroke-width=".413"/><path d="M423.594 343.583c1.422-.507 4.707-.691 6.479 2.624-1.36.531-4.559.751-6.479-2.624z" stroke="#EBF3FF" stroke-width=".413"/><path d="M423.537 343.586c1.418.516 4.074 2.472 3.353 6.165-1.386-.458-3.997-2.331-3.353-6.165z" stroke="#EBF3FF" stroke-width=".413"/><path d="M423.792 343.609c.054 1.517-.757 4.726-4.431 5.432-.096-1.464.656-4.601 4.431-5.432z" stroke="#EBF3FF" stroke-width=".413"/><path d="M423.835 343.647c.916 1.205 2.1 4.295-.49 7.01-.921-1.139-2.111-4.135.49-7.01zM423.835 336.42c.916 1.205 2.1 4.295-.49 7.01-.921-1.139-2.111-4.135.49-7.01zM423.507 343.965c-1.045 1.094-3.899 2.742-6.96.579.978-1.089 3.74-2.729 6.96-.579z" stroke="#EBF3FF" stroke-width=".413"/><path d="M423.646 343.431c-1.422.507-4.707.691-6.478-2.624 1.359-.531 4.559-.751 6.478 2.624z" stroke="#EBF3FF" stroke-width=".413"/><path d="M423.703 343.428c-1.418-.516-4.073-2.471-3.352-6.164 1.386.457 3.997 2.33 3.352 6.164z" stroke="#EBF3FF" stroke-width=".413"/><path d="M633.874 343.975c0 6.43-5.179 11.64-11.566 11.64-6.386 0-11.566-5.21-11.566-11.64 0-6.43 5.18-11.64 11.566-11.64 6.387 0 11.566 5.21 11.566 11.64z" fill="url(#paint40_linear)" stroke="#EBF3FF" stroke-width=".413"/><path d="M632.272 343.975c0 5.542-4.465 10.033-9.969 10.033-5.505 0-9.97-4.491-9.97-10.033 0-5.543 4.465-10.034 9.97-10.034 5.504 0 9.969 4.491 9.969 10.034z" fill="url(#paint41_linear)" stroke="#EBF3FF" stroke-width=".413"/><path d="M629.881 344.177c0 4.101-3.304 7.423-7.376 7.423-4.072 0-7.376-3.322-7.376-7.423s3.304-7.424 7.376-7.424c4.072 0 7.376 3.323 7.376 7.424z" fill="url(#paint42_linear)" stroke="#EBF3FF" stroke-width=".413"/><path d="M622.327 344.027c-.054-1.517.757-4.726 4.431-5.432.096 1.464-.656 4.601-4.431 5.432z" stroke="#EBF3FF" stroke-width=".413"/><path d="M622.611 343.671c1.045-1.094 3.899-2.742 6.96-.579-.978 1.089-3.74 2.729-6.96.579z" stroke="#EBF3FF" stroke-width=".413"/><path d="M622.475 344.206c1.421-.506 4.707-.69 6.478 2.624-1.36.532-4.559.751-6.478-2.624z" stroke="#EBF3FF" stroke-width=".413"/><path d="M622.419 344.209c1.418.516 4.074 2.471 3.353 6.164-1.386-.457-3.997-2.33-3.353-6.164z" stroke="#EBF3FF" stroke-width=".413"/><path d="M622.674 344.232c.054 1.516-.757 4.726-4.431 5.432-.096-1.465.656-4.602 4.431-5.432z" stroke="#EBF3FF" stroke-width=".413"/><path d="M622.715 344.27c.916 1.205 2.1 4.295-.49 7.01-.921-1.139-2.111-4.135.49-7.01zM622.715 337.041c.916 1.205 2.1 4.295-.49 7.01-.921-1.139-2.111-4.135.49-7.01zM622.389 344.587c-1.044 1.094-3.899 2.742-6.959.579.978-1.088 3.739-2.729 6.959-.579z" stroke="#EBF3FF" stroke-width=".413"/><path d="M622.523 344.054c-1.421.506-4.707.69-6.478-2.625 1.36-.531 4.559-.75 6.478 2.625z" stroke="#EBF3FF" stroke-width=".413"/><path d="M622.583 344.05c-1.418-.516-4.073-2.472-3.352-6.165 1.386.458 3.997 2.331 3.352 6.165z" stroke="#EBF3FF" stroke-width=".413"/><path d="M532.262 124.198c0 5.913-4.764 10.705-10.637 10.705s-10.636-4.792-10.636-10.705 4.763-10.705 10.636-10.705c5.873 0 10.637 4.792 10.637 10.705z" fill="url(#paint43_linear)" stroke="#EBF3FF" stroke-width=".413"/><path d="M530.794 124.197c0 5.096-4.106 9.225-9.167 9.225s-9.166-4.129-9.166-9.225c0-5.097 4.105-9.226 9.166-9.226s9.167 4.129 9.167 9.226z" fill="url(#paint44_linear)" stroke="#EBF3FF" stroke-width=".413"/><path d="M528.593 124.383c0 3.768-3.035 6.821-6.777 6.821s-6.777-3.053-6.777-6.821c0-3.769 3.035-6.821 6.777-6.821s6.777 3.052 6.777 6.821z" fill="url(#paint45_linear)" stroke="#EBF3FF" stroke-width=".413"/><path d="M521.65 124.245c-.05-1.396.697-4.352 4.081-5.002.088 1.349-.604 4.238-4.081 5.002z" stroke="#EBF3FF" stroke-width=".413"/><path d="M521.913 123.917c.962-1.008 3.591-2.526 6.411-.534-.901 1.003-3.445 2.514-6.411.534z" stroke="#EBF3FF" stroke-width=".413"/><path d="M521.786 124.41c1.31-.466 4.336-.636 5.967 2.417-1.252.49-4.199.692-5.967-2.417z" stroke="#EBF3FF" stroke-width=".413"/><path d="M521.731 124.414c1.306.475 3.752 2.276 3.088 5.677-1.277-.421-3.682-2.146-3.088-5.677z" stroke="#EBF3FF" stroke-width=".413"/><path d="M521.967 124.434c.05 1.397-.697 4.353-4.081 5.003-.088-1.349.604-4.238 4.081-5.003z" stroke="#EBF3FF" stroke-width=".413"/><path d="M522.012 124.469c.843 1.11 1.934 3.956-.452 6.457-.848-1.049-1.945-3.809.452-6.457zM522.012 117.811c.843 1.11 1.934 3.956-.452 6.457-.848-1.049-1.945-3.809.452-6.457zM521.71 124.762c-.962 1.008-3.591 2.526-6.411.534.901-1.003 3.445-2.514 6.411-.534z" stroke="#EBF3FF" stroke-width=".413"/><path d="M521.835 124.27c-1.309.467-4.335.636-5.967-2.417 1.253-.489 4.199-.691 5.967 2.417z" stroke="#EBF3FF" stroke-width=".413"/><path d="M521.888 124.266c-1.306-.475-3.752-2.276-3.088-5.678 1.276.421 3.681 2.147 3.088 5.678z" stroke="#EBF3FF" stroke-width=".413"/><path d="M92.073 262.372c12.489-3.475 40.823 5.462 37.124 18.476-3.348 11.776 12.169 6.593 5.109 22.825-6.576 15.118-39.244 19.888-55.682 13.988-10.887-3.887-11.74-12.164-8.325-17.012 3.416-4.847-21.668-13.765 2.562-19.801 13.769-3.43 1.92-13.583 19.212-18.476z" fill="url(#paint46_linear)"/><path d="M109.696 298.211l-.823-.605-8.904 8.467v-29.815h-1.346v23.404l-9.952-6.712-.748.725 10.7 7.197v55.698h1.346v-49.409l.225.121 9.502-9.071z" fill="url(#paint47_linear)"/><path d="M33.082 247.081c8.455-5.02 27.117-4.42 33.536 11.167 4.933 11.982 35.299 11.798 12.876 32.606-7.74 7.182-24.036 20.529-36.082 13.272-7.931-4.838-20.76 1.034-32.492-6.117-9.648-5.88-18.773-32.199 0-32.199 11.315 0 8.865-10.835 22.162-18.729z" fill="url(#paint48_linear)"/><path d="M22.653 283.623l1.483-.544 16.05 8.407v-20.625h2.427v14.214l17.937-6.714 1.214.726-19.151 7.198v55.707h-2.428v-49.417l-.404.121-17.128-9.073z" fill="url(#paint49_linear)"/><path d="M299.103 378.008h-36.411v62.71h36.411v-62.71z" fill="url(#paint50_linear)"/><path d="M384.613 320h-75.088v144.091h75.088V320z" fill="url(#paint51_linear)"/><path d="M205.734 354.776h45.174v81.951h-45.174v-81.951z" fill="url(#paint52_linear)"/><path d="M374.19 333.255h-53.786v6.699h53.786v-6.699zM374.19 347.365h-53.786v6.698h53.786v-6.698zM374.19 361.475h-53.786v6.699h53.786v-6.699zM374.19 375.584h-53.786v6.699h53.786v-6.699zM374.19 389.694h-53.786v6.698h53.786v-6.698zM374.19 403.804h-53.786v6.699h53.786v-6.699zM374.19 417.914h-53.786v6.698h53.786v-6.698z" fill="#fff"/><path fill-rule="evenodd" clip-rule="evenodd" d="M650.176 169.675l88.704-55.318 6.122.105 6.906-6.045 4.761.081-22.862 24.259 6.122.105 26.99-26.928 4.761.081-15.356 23.018 19.08-1.729 7.194-23.157 4.762.081-5.142 22.507 23.808.405-6.411-23.388 4.445.076 9.448 23.44 19.046.324-15.276-22.17 5.442.093 26.794 25.105 4.081.069-22.747-22.982 6.802.116 101.123 55.812-4.162 4.722 7.391 5.603-7.609 7.402 8.739 6.311-8.278 6.706 1.995 2.772-92.324 68.265-5.46-.093v242.25h-90.482V262.357c-1.152 1.015-1.872 2.158-2.044 3.445l-5.442-.093-88.787-61.079.772-5.464-8.082-4.931 7.586-6.033-7.356-7.656 7.575-5.349-2.629-5.522zm98.407 86.399v.256l-80.305-70.599 1.246-5.115c1.95-.91 4.049-1.8 6.286-2.666l2.06 3.836 70.713 74.288zm6.123 3.053v248.446h4.082V257.931a45.874 45.874 0 00-4.082 1.196zm30.839-9.466l-.023.001-15.466-87.531.145-1.189c1.659-.103 3.325-.198 4.996-.286l.301 1.568 10.047 87.437zm15.741-.252h-.015l10.948-85.875.938-3.522c1.516.029 3.031.066 4.546.109l.638 3.517-17.055 85.771zm1.042 5.857v252.307h14.967v-251.03c-4.23-.554-9.192-.991-14.967-1.277zm33.667-6.415l-.47.007 52.233-80.789c2.26.501 4.491 1.026 6.688 1.576l-.013.767-58.438 78.439zm77.34-73.525c-5.944-2.133-12.266-4.022-18.889-5.681l.206-12.239-6.894 10.663c-8.633-1.91-17.706-3.457-27.063-4.67l-3.374-11.421-4.935 10.186-.096.243c-11.284-1.206-22.901-1.953-34.587-2.286l-1.853-10.219-2.693 10.11a529.164 529.164 0 00-37.96.644l-2.201-11.484-1.361-.023-1.434 11.793c-11.922.74-23.526 1.863-34.507 3.317l-5.644-10.341-1.606 11.362c-9.413 1.408-18.292 3.062-26.429 4.927l-5.399-10.696-2.503 12.636c-6.795 1.785-12.945 3.728-18.303 5.803l-3.878-7.22-2.408 9.886c-5.17 2.414-9.295 4.975-12.176 7.651l.242-14.374c28.326-25.536 179.069-47.617 272.929-4.938l-.23 13.69a126.941 126.941 0 00-10.029-4.649c.267-3.906.531-9.618.079-10.567l-7.004 7.897zm0 0c2.37.851 4.68 1.74 6.925 2.67-.043.643-.087 1.238-.128 1.754l-78.166 76.038 71.369-80.462zm-219.222-3.179a259.742 259.742 0 017.902-1.94l.527 1.044 55.1 81.731-64-78.459.471-2.376zm34.331-6.867l-.711 5.031 40.85 79.434-30.612-81.313-2.277-4.173a438.46 438.46 0 00-7.25 1.021zm89.518 83.861l.323-.006 42.898-84.082-.488-1.654a379.04 379.04 0 00-8.405-.992l-34.328 86.734zm-.667 1.686v.249l-.439.861.439-1.11zm-74.076 10.126l-85.202-71.973-.138 8.213 85.34 63.76zm187.601-69.382l.126-7.529-84.276 75.249 84.15-67.72z" fill="url(#paint53_linear)"/></g><defs><linearGradient id="paint0_linear" x1="184.472" y1="68.868" x2="184.472" y2="394.07" gradientUnits="userSpaceOnUse"><stop stop-color="#EBF3FF"/><stop offset="1" stop-color="#EBF3FF" stop-opacity="0"/></linearGradient><linearGradient id="paint1_linear" x1="2.912" y1="0" x2="2.912" y2="341.997" gradientUnits="userSpaceOnUse"><stop stop-color="#EBF3FF"/><stop offset="1" stop-color="#EBF3FF" stop-opacity="0"/></linearGradient><linearGradient id="paint2_linear" x1="2.943" y1="0" x2="9.751" y2="433.408" gradientUnits="userSpaceOnUse"><stop offset=".281" stop-color="#EBF3FF"/><stop offset=".745" stop-color="#6CA4F9" stop-opacity="0"/></linearGradient><linearGradient id="paint3_linear" x1="215.855" y1="27" x2="215.855" y2="352.202" gradientUnits="userSpaceOnUse"><stop stop-color="#EBF3FF"/><stop offset="1" stop-color="#EBF3FF" stop-opacity="0"/></linearGradient><linearGradient id="paint4_linear" x1="455.633" y1="149.449" x2="507.351" y2="345.998" gradientUnits="userSpaceOnUse"><stop stop-color="#EBF3FF"/><stop offset="1" stop-color="#EBF3FF" stop-opacity="0"/></linearGradient><linearGradient id="paint5_linear" x1="621.377" y1="303.449" x2="621.377" y2="441.238" gradientUnits="userSpaceOnUse"><stop stop-color="#EBF3FF"/><stop offset="1" stop-color="#EBF3FF" stop-opacity="0"/></linearGradient><linearGradient id="paint6_linear" x1="522.86" y1="254.195" x2="522.86" y2="442.485" gradientUnits="userSpaceOnUse"><stop stop-color="#CFE2FE" stop-opacity=".44"/><stop offset="1" stop-color="#EBF3FF" stop-opacity="0"/></linearGradient><linearGradient id="paint7_linear" x1="572.735" y1="377.332" x2="483.449" y2="440.711" gradientUnits="userSpaceOnUse"><stop stop-color="#EBF3FF"/><stop offset="1" stop-color="#fff"/></linearGradient><linearGradient id="paint8_linear" x1="557.245" y1="325.272" x2="489.217" y2="360.772" gradientUnits="userSpaceOnUse"><stop stop-color="#EBF3FF"/><stop offset="1" stop-color="#fff"/></linearGradient><linearGradient id="paint9_linear" x1="582.337" y1="370.162" x2="520.661" y2="424.334" gradientUnits="userSpaceOnUse"><stop stop-color="#EBF3FF"/><stop offset="1" stop-color="#fff"/></linearGradient><linearGradient id="paint10_linear" x1="575.212" y1="347.093" x2="492.455" y2="363.726" gradientUnits="userSpaceOnUse"><stop stop-color="#EBF3FF"/><stop offset="1" stop-color="#fff"/></linearGradient><linearGradient id="paint11_linear" x1="522.544" y1="329.012" x2="523.171" y2="441.237" gradientUnits="userSpaceOnUse"><stop stop-color="#EBF3FF"/><stop offset="1" stop-color="#fff" stop-opacity="0"/></linearGradient><linearGradient id="paint12_linear" x1="453.76" y1="400.763" x2="399.094" y2="439.567" gradientUnits="userSpaceOnUse"><stop stop-color="#EBF3FF"/><stop offset="1" stop-color="#fff"/></linearGradient><linearGradient id="paint13_linear" x1="444.275" y1="368.888" x2="402.625" y2="390.623" gradientUnits="userSpaceOnUse"><stop stop-color="#EBF3FF"/><stop offset="1" stop-color="#fff"/></linearGradient><linearGradient id="paint14_linear" x1="459.643" y1="396.373" x2="421.883" y2="429.54" gradientUnits="userSpaceOnUse"><stop stop-color="#EBF3FF"/><stop offset="1" stop-color="#fff"/></linearGradient><linearGradient id="paint15_linear" x1="455.281" y1="382.249" x2="404.614" y2="392.433" gradientUnits="userSpaceOnUse"><stop stop-color="#EBF3FF"/><stop offset="1" stop-color="#fff"/></linearGradient><linearGradient id="paint16_linear" x1="423.034" y1="371.18" x2="423.419" y2="439.891" gradientUnits="userSpaceOnUse"><stop stop-color="#EBF3FF"/><stop offset="1" stop-color="#fff" stop-opacity="0"/></linearGradient><linearGradient id="paint17_linear" x1="652.655" y1="402.009" x2="597.989" y2="440.813" gradientUnits="userSpaceOnUse"><stop stop-color="#EBF3FF"/><stop offset="1" stop-color="#fff"/></linearGradient><linearGradient id="paint18_linear" x1="643.171" y1="370.135" x2="601.521" y2="391.87" gradientUnits="userSpaceOnUse"><stop stop-color="#EBF3FF"/><stop offset="1" stop-color="#fff"/></linearGradient><linearGradient id="paint19_linear" x1="658.538" y1="397.62" x2="620.777" y2="430.786" gradientUnits="userSpaceOnUse"><stop stop-color="#EBF3FF"/><stop offset="1" stop-color="#fff"/></linearGradient><linearGradient id="paint20_linear" x1="654.175" y1="383.495" x2="603.508" y2="393.679" gradientUnits="userSpaceOnUse"><stop stop-color="#EBF3FF"/><stop offset="1" stop-color="#fff"/></linearGradient><linearGradient id="paint21_linear" x1="621.926" y1="372.426" x2="622.31" y2="441.136" gradientUnits="userSpaceOnUse"><stop stop-color="#EBF3FF"/><stop offset="1" stop-color="#fff" stop-opacity="0"/></linearGradient><linearGradient id="paint22_linear" x1="509.868" y1="176.59" x2="509.868" y2="199.327" gradientUnits="userSpaceOnUse"><stop stop-color="#fff"/><stop offset="1" stop-color="#fff" stop-opacity="0"/></linearGradient><linearGradient id="paint23_linear" x1="509.776" y1="162.542" x2="509.776" y2="176.406" gradientUnits="userSpaceOnUse"><stop stop-color="#fff"/><stop offset="1" stop-color="#fff" stop-opacity="0"/></linearGradient><linearGradient id="paint24_linear" x1="509.778" y1="176.59" x2="509.778" y2="199.327" gradientUnits="userSpaceOnUse"><stop stop-color="#fff"/><stop offset="1" stop-color="#fff" stop-opacity="0"/></linearGradient><linearGradient id="paint25_linear" x1="509.686" y1="164.02" x2="509.686" y2="176.405" gradientUnits="userSpaceOnUse"><stop stop-color="#fff"/><stop offset="1" stop-color="#fff" stop-opacity="0"/></linearGradient><linearGradient id="paint26_linear" x1="509.78" y1="176.59" x2="509.78" y2="199.327" gradientUnits="userSpaceOnUse"><stop stop-color="#fff"/><stop offset="1" stop-color="#fff" stop-opacity="0"/></linearGradient><linearGradient id="paint27_linear" x1="509.688" y1="166.053" x2="509.688" y2="176.451" gradientUnits="userSpaceOnUse"><stop stop-color="#fff"/><stop offset="1" stop-color="#fff" stop-opacity="0"/></linearGradient><linearGradient id="paint28_linear" x1="534.032" y1="176.591" x2="534.032" y2="199.327" gradientUnits="userSpaceOnUse"><stop stop-color="#fff"/><stop offset="1" stop-color="#fff" stop-opacity="0"/></linearGradient><linearGradient id="paint29_linear" x1="533.942" y1="162.542" x2="533.942" y2="176.406" gradientUnits="userSpaceOnUse"><stop stop-color="#fff"/><stop offset="1" stop-color="#fff" stop-opacity="0"/></linearGradient><linearGradient id="paint30_linear" x1="533.938" y1="176.591" x2="533.938" y2="199.327" gradientUnits="userSpaceOnUse"><stop stop-color="#fff"/><stop offset="1" stop-color="#fff" stop-opacity="0"/></linearGradient><linearGradient id="paint31_linear" x1="533.846" y1="164.021" x2="533.846" y2="176.406" gradientUnits="userSpaceOnUse"><stop stop-color="#fff"/><stop offset="1" stop-color="#fff" stop-opacity="0"/></linearGradient><linearGradient id="paint32_linear" x1="533.944" y1="176.591" x2="533.944" y2="199.327" gradientUnits="userSpaceOnUse"><stop stop-color="#fff"/><stop offset="1" stop-color="#fff" stop-opacity="0"/></linearGradient><linearGradient id="paint33_linear" x1="533.852" y1="166.053" x2="533.852" y2="176.451" gradientUnits="userSpaceOnUse"><stop stop-color="#fff"/><stop offset="1" stop-color="#fff" stop-opacity="0"/></linearGradient><linearGradient id="paint34_linear" x1="521.622" y1="276.639" x2="521.622" y2="313.424" gradientUnits="userSpaceOnUse"><stop stop-color="#fff"/><stop offset="1" stop-color="#fff"/></linearGradient><linearGradient id="paint35_linear" x1="521.623" y1="279.132" x2="521.623" y2="310.93" gradientUnits="userSpaceOnUse"><stop stop-color="#fff"/><stop offset="1" stop-color="#fff"/></linearGradient><linearGradient id="paint36_linear" x1="521.933" y1="283.495" x2="521.933" y2="307.188" gradientUnits="userSpaceOnUse"><stop stop-color="#fff"/><stop offset="1" stop-color="#fff"/></linearGradient><linearGradient id="paint37_linear" x1="423.42" y1="331.505" x2="423.42" y2="355.198" gradientUnits="userSpaceOnUse"><stop stop-color="#fff"/><stop offset="1" stop-color="#fff"/></linearGradient><linearGradient id="paint38_linear" x1="423.425" y1="333.112" x2="423.425" y2="353.592" gradientUnits="userSpaceOnUse"><stop stop-color="#fff"/><stop offset="1" stop-color="#fff"/></linearGradient><linearGradient id="paint39_linear" x1="423.625" y1="335.924" x2="423.625" y2="351.183" gradientUnits="userSpaceOnUse"><stop stop-color="#fff"/><stop offset="1" stop-color="#fff"/></linearGradient><linearGradient id="paint40_linear" x1="622.308" y1="332.129" x2="622.308" y2="355.821" gradientUnits="userSpaceOnUse"><stop stop-color="#fff"/><stop offset="1" stop-color="#fff"/></linearGradient><linearGradient id="paint41_linear" x1="622.303" y1="333.735" x2="622.303" y2="354.215" gradientUnits="userSpaceOnUse"><stop stop-color="#fff"/><stop offset="1" stop-color="#fff"/></linearGradient><linearGradient id="paint42_linear" x1="622.505" y1="336.547" x2="622.505" y2="351.807" gradientUnits="userSpaceOnUse"><stop stop-color="#fff"/><stop offset="1" stop-color="#fff"/></linearGradient><linearGradient id="paint43_linear" x1="521.625" y1="113.287" x2="521.625" y2="135.109" gradientUnits="userSpaceOnUse"><stop stop-color="#fff"/><stop offset="1" stop-color="#EBF3FF" stop-opacity="0"/></linearGradient><linearGradient id="paint44_linear" x1="521.627" y1="114.765" x2="521.627" y2="133.628" gradientUnits="userSpaceOnUse"><stop stop-color="#fff"/><stop offset="1" stop-color="#EBF3FF" stop-opacity="0"/></linearGradient><linearGradient id="paint45_linear" x1="521.816" y1="117.355" x2="521.816" y2="131.41" gradientUnits="userSpaceOnUse"><stop stop-color="#fff"/><stop offset="1" stop-color="#EBF3FF" stop-opacity="0"/></linearGradient><linearGradient id="paint46_linear" x1="106.512" y1="280.13" x2="116.655" y2="321.611" gradientUnits="userSpaceOnUse"><stop offset=".011" stop-color="#EBF3FF"/><stop offset="1" stop-color="#EBF3FF" stop-opacity="0"/></linearGradient><linearGradient id="paint47_linear" x1="109.641" y1="282.234" x2="116.885" y2="307.224" gradientUnits="userSpaceOnUse"><stop offset=".011" stop-color="#D6E5FA"/><stop offset="1" stop-color="#fff"/></linearGradient><linearGradient id="paint48_linear" x1="24.833" y1="241.031" x2="45.343" y2="307.16" gradientUnits="userSpaceOnUse"><stop offset=".011" stop-color="#EBF3FF"/><stop offset="1" stop-color="#fff"/></linearGradient><linearGradient id="paint49_linear" x1="28.86" y1="249.601" x2="33.534" y2="313.618" gradientUnits="userSpaceOnUse"><stop offset=".011" stop-color="#CFE1FC"/><stop offset="1" stop-color="#fff"/></linearGradient><linearGradient id="paint50_linear" x1="280.723" y1="367.923" x2="280.723" y2="433.766" gradientUnits="userSpaceOnUse"><stop offset=".011" stop-color="#EBF3FF"/><stop offset="1" stop-color="#fff" stop-opacity="0"/></linearGradient><linearGradient id="paint51_linear" x1="347.094" y1="289.425" x2="347.094" y2="424.268" gradientUnits="userSpaceOnUse"><stop offset=".011" stop-color="#EBF3FF"/><stop offset="1" stop-color="#fff" stop-opacity="0"/></linearGradient><linearGradient id="paint52_linear" x1="228.321" y1="354.776" x2="228.321" y2="436.727" gradientUnits="userSpaceOnUse"><stop stop-color="#EBF3FF"/><stop offset="1" stop-color="#fff" stop-opacity="0"/></linearGradient><linearGradient id="paint53_linear" x1="794.066" y1="103.752" x2="794.066" y2="507.573" gradientUnits="userSpaceOnUse"><stop stop-color="#EBF3FF"/><stop offset="1" stop-color="#EBF3FF" stop-opacity="0"/></linearGradient></defs></svg>