<svg width="107" height="46" viewBox="0 0 107 46" fill="none" xmlns="http://www.w3.org/2000/svg">
<g filter="url(#filter0_d)">
<path d="M4.49636 8.53658C4.54846 5.56828 6.99697 3.20424 9.96527 3.25634L35.5736 3.70583C38.5419 3.75793 40.9059 6.20645 40.8538 9.17474L40.4043 34.783C40.3522 37.7513 37.9037 40.1154 34.9354 40.0633L9.32711 39.6138C6.35881 39.5617 3.99476 37.1132 4.04687 34.1449L4.49636 8.53658Z" fill="#0063B5"/>
<mask id="mask0" mask-type="alpha" maskUnits="userSpaceOnUse" x="1" y="1" width="43" height="43">
<rect x="34.9452" width="36.363" height="36.363" rx="6.97645" transform="rotate(73.9481 34.9452 0)" fill="#3793DF"/>
</mask>
<g mask="url(#mask0)">
<path fill-rule="evenodd" clip-rule="evenodd" d="M9.54416 17.7047L17.5914 12.6604L18.1453 12.6679L18.7725 12.1176L19.2032 12.1235L17.1253 14.3305L17.6791 14.338L20.1316 11.8877L20.5623 11.8935L19.1639 13.9856L20.8909 13.8227L21.5509 11.7207L21.9816 11.7265L21.5076 13.769L23.6614 13.7982L23.0906 11.6794L23.4927 11.6849L24.3383 13.8073L26.0614 13.8307L24.688 11.8253L25.1803 11.8319L27.5946 14.0998L27.9638 14.1048L25.9148 12.0282L26.5302 12.0365L35.6572 17.0651L35.2788 17.4946L35.9452 18.0003L35.2539 18.6739L36.0421 19.2434L35.2905 19.8541L35.4699 20.1049L27.09 26.3243L26.637 26.3181V48.1178H24.6629V25.5326C24.2804 25.4826 23.8305 25.4436 23.3056 25.4187V48.1178H19.3572V25.6676C19.2259 25.6999 19.1017 25.7357 18.9871 25.7752V48.1178H18.432V26.0594C18.3151 26.1562 18.2417 26.266 18.2246 26.3904L17.7323 26.3837L9.7234 20.8736L9.79543 20.3778L9.06616 19.9333L9.75489 19.3839L9.0924 18.6919L9.77981 18.2045L9.54416 17.7047ZM18.432 25.5057V25.5204L11.1922 19.1207L11.3049 18.6678C11.484 18.5848 11.6766 18.5037 11.8816 18.4248L12.0586 18.7593L18.432 25.5057ZM13.5383 17.9C12.9246 18.0617 12.3681 18.2373 11.8816 18.4248L11.5305 17.7611L11.3049 18.6678C10.8165 18.894 10.4279 19.1345 10.1586 19.3856L10.1832 18.0769C12.756 15.7471 26.4255 13.7108 34.9261 17.5804L34.9026 18.8268C34.6149 18.6769 34.311 18.5363 33.9926 18.4045C34.0193 18.0508 34.048 17.5186 34.0074 17.4316L33.3615 18.1614C32.8234 17.9685 32.2512 17.798 31.6517 17.6483L31.6777 16.5354L31.0495 17.507C30.266 17.3343 29.4423 17.1948 28.5929 17.086L28.2982 16.0556L27.8513 16.9776L27.843 16.9984C26.8165 16.8899 25.7594 16.8237 24.696 16.7953L24.5412 15.8799L24.3018 16.7866C23.1538 16.766 22.0019 16.7889 20.8765 16.8499L20.6913 15.8187L20.5723 15.8172L20.4405 16.8755C19.3573 16.944 18.3027 17.0475 17.3041 17.1811L16.8043 16.2466L16.6538 17.2736C15.8001 17.4024 14.9942 17.5535 14.255 17.7236L13.7721 16.7503L13.5383 17.9ZM13.5383 17.9C13.7693 17.8392 14.0084 17.7803 14.255 17.7236L14.2975 17.8093L19.1985 25.1748L13.4958 18.109L13.5383 17.9ZM16.6538 17.2736L16.5873 17.728L20.1902 24.8831L17.5034 17.5537L17.3041 17.1811C17.0845 17.2105 16.8677 17.2414 16.6538 17.2736ZM21.728 24.8765L20.4264 16.9887L20.4405 16.8755C20.5853 16.8663 20.7307 16.8578 20.8765 16.8499L20.9025 16.9946L21.7299 24.8765L21.728 24.8765ZM23.2108 24.8528L24.2162 17.1108L24.3018 16.7866C24.4332 16.7889 24.5646 16.7918 24.696 16.7953L24.7504 17.1175L23.2126 24.8528L23.2108 24.8528ZM24.7309 24.8286L27.843 16.9984C28.0949 17.025 28.345 17.0542 28.5929 17.086L28.6354 17.2345L24.7617 24.8281L24.7309 24.8286ZM24.6629 24.9997L24.6232 25.0994L24.6629 25.0218V24.9997ZM26.3316 24.803L31.0495 17.507C31.253 17.5519 31.4538 17.599 31.6517 17.6483L31.6502 17.7109L26.376 24.8023L26.3316 24.803ZM33.3615 18.1614C33.5775 18.2388 33.7881 18.3198 33.9926 18.4045C33.9887 18.4563 33.9848 18.5044 33.9812 18.5466L26.9002 25.4614L33.3615 18.1614ZM17.9033 25.8931L10.262 19.4071L10.2445 20.1517L17.9033 25.8931ZM34.953 19.6082L34.969 18.9261L27.3267 25.7795L34.953 19.6082Z" fill="white"/>
</g>
<path d="M36.4317 5.16572C35.6108 2.31271 32.6325 0.66535 29.7795 1.48624L5.16584 8.56824C2.31283 9.38913 0.665472 12.3674 1.48636 15.2204L8.56836 39.8341C9.38925 42.6871 12.3675 44.3344 15.2205 43.5135L18.4322 42.5894V26.0194C18.3277 26.1109 18.2623 26.214 18.2467 26.33L17.7532 26.3216L9.70183 20.8174L9.77186 20.325L9.03897 19.8806L9.72688 19.337L9.05984 18.647L9.74671 18.165L9.50833 17.6673L17.5522 12.6823L18.1073 12.6917L18.7335 12.147L19.1653 12.1543L17.0922 14.3404L17.6473 14.3498L20.0947 11.9232L20.5265 11.9305L19.134 14.0048L20.8643 13.849L21.5166 11.7622L21.9484 11.7695L21.4822 13.7977L23.6411 13.8342L23.0597 11.7266L23.4628 11.7334L24.3196 13.8457L26.0467 13.875L24.6614 11.8771L25.1549 11.8854L27.5846 14.1478L27.9547 14.1541L25.892 12.083L26.5088 12.0934L35.6788 17.123L35.3014 17.5486L35.9716 18.0535L35.2816 18.7205L36.0741 19.2893L35.3235 19.8936L35.5043 20.1434L27.1323 26.2953L26.6373 26.2869V40.2286L39.8342 36.4315C42.6872 35.6106 44.3345 32.6324 43.5137 29.7794L36.4317 5.16572Z" fill="#3793DF"/>
<path d="M24.663 40.7967V25.4957C24.2794 25.4458 23.8295 25.4064 23.3058 25.3806V41.1872L24.663 40.7967Z" fill="#3793DF"/>
<path d="M19.3575 42.3232V25.6207C19.2259 25.6531 19.1017 25.6889 18.9873 25.7285V42.4297L19.3575 42.3232Z" fill="#3793DF"/>
<path fill-rule="evenodd" clip-rule="evenodd" d="M18.4322 25.4763V25.4532L12.02 18.7587L11.8332 18.413C12.319 18.226 12.8767 18.0509 13.4929 17.89L13.4501 18.1042L19.2538 25.1747L14.2573 17.8094L14.2094 17.7153C14.9473 17.5472 15.7525 17.3981 16.6061 17.2712L16.5416 17.7246L20.2459 24.8829L17.47 17.5552L17.2635 17.1792C18.2593 17.0482 19.3115 16.947 20.3926 16.8803L20.3795 16.9875L21.782 24.8756L21.784 24.8755L20.8729 16.9958L20.8457 16.8545C21.9763 16.7954 23.1339 16.7743 24.2879 16.7965L24.2028 17.1139L23.2101 24.8528L23.2115 24.8527L24.758 17.1233L24.7001 16.8063C25.7598 16.8364 26.8133 16.9037 27.8366 17.0124L24.7236 24.8286L24.7529 24.8281L28.643 17.2507L28.5988 17.1018C29.4472 17.2111 30.27 17.3505 31.0528 17.5227L26.3162 24.8032L26.3588 24.8025L31.6582 17.7336L31.6593 17.6647C32.2599 17.8141 32.8331 17.9844 33.3721 18.1766L26.9003 25.4275L33.9885 18.5753C33.9922 18.5288 33.9962 18.4752 34.0002 18.4172C34.3182 18.548 34.6219 18.6875 34.9095 18.8361L34.9304 17.6025C26.419 13.7563 12.7493 15.7462 10.1807 18.0474L10.1587 19.3428C10.4201 19.1016 10.7942 18.8707 11.2632 18.6532L11.1502 19.1142L18.4322 25.4763ZM34.0002 18.4172C33.7966 18.3334 33.5871 18.2533 33.3721 18.1766L34.0073 17.465C34.0482 17.5504 34.0243 18.0652 34.0002 18.4172ZM31.6593 17.6647C31.4601 17.615 31.2578 17.5677 31.0528 17.5227L31.678 16.5616L31.6593 17.6647ZM28.5988 17.1018C28.3468 17.0694 28.0927 17.0396 27.8366 17.0124L27.8453 16.9904L28.2928 16.0725L28.5988 17.1018ZM24.7001 16.8063C24.5628 16.8025 24.4254 16.7992 24.2879 16.7965L24.5321 15.8854L24.7001 16.8063ZM20.8457 16.8545C20.6941 16.8624 20.5431 16.8711 20.3926 16.8803L20.5227 15.8176L20.646 15.8197L20.8457 16.8545ZM17.2635 17.1792L16.7517 16.2473L16.6061 17.2712C16.8222 17.2391 17.0414 17.2084 17.2635 17.1792ZM14.2094 17.7153C13.9628 17.7714 13.7237 17.8297 13.4929 17.89L13.7198 16.7514L14.2094 17.7153ZM11.2632 18.6532L11.4816 17.7624L11.8332 18.413C11.6303 18.491 11.44 18.5712 11.2632 18.6532Z" fill="#3793DF"/>
<path d="M24.6233 25.0804L24.663 24.9808V25.0031L24.6233 25.0804Z" fill="#3793DF"/>
<path d="M10.2196 19.407L17.9459 25.893L10.2071 20.1472L10.2196 19.407Z" fill="#3793DF"/>
<path d="M34.9693 18.962L34.9578 19.6406L27.327 25.7432L34.9693 18.962Z" fill="#3793DF"/>
</g>
<path d="M56.774 11.8921H59.5013C60.1179 11.8921 60.6607 12.0054 61.1297 12.232C61.604 12.4534 61.9703 12.7722 62.2285 13.1885C62.492 13.6049 62.6238 14.095 62.6238 14.6589C62.6238 15.2227 62.492 15.7129 62.2285 16.1292C61.9703 16.5455 61.604 16.867 61.1297 17.0936C60.6607 17.3149 60.1179 17.4256 59.5013 17.4256H56.774V11.8921ZM59.4222 15.9711C59.8227 15.9711 60.1416 15.8578 60.3787 15.6312C60.6212 15.3993 60.7424 15.0752 60.7424 14.6589C60.7424 14.2425 60.6212 13.9211 60.3787 13.6944C60.1416 13.4626 59.8227 13.3466 59.4222 13.3466H58.6396V15.9711H59.4222Z" fill="#0063B5"/>
<path d="M66.9984 16.4612H64.8957L64.5242 17.4256H62.627L65.0459 11.8921H66.8799L69.2988 17.4256H67.37L66.9984 16.4612ZM66.4846 15.1173L65.9471 13.7261L65.4095 15.1173H66.4846Z" fill="#0063B5"/>
<path d="M69.5965 11.8921H72.3238C72.9403 11.8921 73.4832 12.0054 73.9522 12.232C74.4265 12.4534 74.7928 12.7722 75.051 13.1885C75.3145 13.6049 75.4462 14.095 75.4462 14.6589C75.4462 15.2227 75.3145 15.7129 75.051 16.1292C74.7928 16.5455 74.4265 16.867 73.9522 17.0936C73.4832 17.3149 72.9403 17.4256 72.3238 17.4256H69.5965V11.8921ZM72.2447 15.9711C72.6452 15.9711 72.9641 15.8578 73.2012 15.6312C73.4436 15.3993 73.5648 15.0752 73.5648 14.6589C73.5648 14.2425 73.4436 13.9211 73.2012 13.6944C72.9641 13.4626 72.6452 13.3466 72.2447 13.3466H71.4621V15.9711H72.2447Z" fill="#0063B5"/>
<path d="M79.0286 17.5521C78.4331 17.5521 77.8981 17.4282 77.4238 17.1806C76.9495 16.9329 76.578 16.5903 76.3092 16.1529C76.0405 15.7102 75.9061 15.2122 75.9061 14.6589C75.9061 14.1055 76.0405 13.6101 76.3092 13.1727C76.578 12.73 76.9495 12.3849 77.4238 12.1372C77.8981 11.8895 78.4331 11.7656 79.0286 11.7656C79.6241 11.7656 80.159 11.8895 80.6333 12.1372C81.1076 12.3849 81.4791 12.73 81.7479 13.1727C82.0167 13.6101 82.151 14.1055 82.151 14.6589C82.151 15.2122 82.0167 15.7102 81.7479 16.1529C81.4791 16.5903 81.1076 16.9329 80.6333 17.1806C80.159 17.4282 79.6241 17.5521 79.0286 17.5521ZM79.0286 16.0422C79.2604 16.0422 79.4686 15.9869 79.6531 15.8762C79.8428 15.7603 79.993 15.5996 80.1036 15.394C80.2143 15.1832 80.2696 14.9382 80.2696 14.6589C80.2696 14.3795 80.2143 14.1371 80.1036 13.9316C79.993 13.7208 79.8428 13.5601 79.6531 13.4494C79.4686 13.3335 79.2604 13.2755 79.0286 13.2755C78.7967 13.2755 78.5859 13.3335 78.3962 13.4494C78.2117 13.5601 78.0642 13.7208 77.9535 13.9316C77.8428 14.1371 77.7875 14.3795 77.7875 14.6589C77.7875 14.9382 77.8428 15.1832 77.9535 15.394C78.0642 15.5996 78.2117 15.7603 78.3962 15.8762C78.5859 15.9869 78.7967 16.0422 79.0286 16.0422Z" fill="#0063B5"/>
<path d="M84.8914 17.5521C84.4329 17.5521 83.9849 17.502 83.5475 17.4019C83.1154 17.2965 82.7596 17.1568 82.4803 16.9829L83.0811 15.6233C83.3446 15.7761 83.6397 15.8999 83.9665 15.9948C84.2932 16.0844 84.6068 16.1292 84.9072 16.1292C85.1654 16.1292 85.3499 16.1055 85.4605 16.058C85.5712 16.0053 85.6265 15.9289 85.6265 15.8288C85.6265 15.7129 85.5527 15.6259 85.4052 15.5679C85.2629 15.51 85.0257 15.4467 84.6937 15.3782C84.2669 15.2886 83.9111 15.1938 83.6266 15.0936C83.342 14.9882 83.0943 14.8196 82.8835 14.5877C82.6727 14.3506 82.5673 14.0317 82.5673 13.6312C82.5673 13.2834 82.6648 12.9672 82.8598 12.6826C83.0548 12.398 83.3446 12.1741 83.7293 12.0107C84.1193 11.8473 84.591 11.7656 85.1443 11.7656C85.5238 11.7656 85.8953 11.8078 86.2589 11.8921C86.6278 11.9712 86.9519 12.0897 87.2312 12.2478L86.67 13.5996C86.1272 13.3255 85.6134 13.1885 85.1285 13.1885C84.6489 13.1885 84.4092 13.3045 84.4092 13.5363C84.4092 13.647 84.4803 13.7313 84.6226 13.7893C84.7649 13.842 84.9994 13.9 85.3261 13.9632C85.7477 14.0423 86.1035 14.1345 86.3933 14.2399C86.6832 14.34 86.9335 14.506 87.1443 14.7379C87.3604 14.9698 87.4684 15.286 87.4684 15.6865C87.4684 16.0343 87.3709 16.3505 87.1759 16.6351C86.9809 16.9144 86.6884 17.1384 86.2985 17.307C85.9137 17.4704 85.4447 17.5521 84.8914 17.5521Z" fill="#0063B5"/>
<path d="M61.5336 23.9052H58.9382L58.4796 25.0955H56.1379L59.1236 18.2656H61.3872L64.3729 25.0955H61.9922L61.5336 23.9052ZM60.8994 22.2465L60.2359 20.5292L59.5724 22.2465H60.8994Z" fill="#3793DF"/>
<path d="M70.2043 21.5245C70.6076 21.6741 70.9198 21.892 71.141 22.1782C71.3622 22.4644 71.4727 22.8091 71.4727 23.2124C71.4727 23.8109 71.2256 24.2759 70.7312 24.6077C70.2368 24.9329 69.5213 25.0955 68.5846 25.0955H64.7404V18.2656H68.3895C69.3002 18.2656 69.9864 18.4282 70.4482 18.7535C70.9166 19.0787 71.1508 19.5113 71.1508 20.0511C71.1508 20.3699 71.0694 20.6561 70.9068 20.9098C70.7507 21.1635 70.5165 21.3683 70.2043 21.5245ZM67.004 19.8755V20.8903H68.0773C68.5781 20.8903 68.8286 20.7211 68.8286 20.3829C68.8286 20.0446 68.5781 19.8755 68.0773 19.8755H67.004ZM68.3895 23.4856C68.8969 23.4856 69.1506 23.3067 69.1506 22.949C69.1506 22.5912 68.8969 22.4124 68.3895 22.4124H67.004V23.4856H68.3895Z" fill="#3793DF"/>
<path d="M77.9654 23.3588V25.0955H72.2868V18.2656H77.8386V20.0024H74.5505V20.8024H77.4386V22.4611H74.5505V23.3588H77.9654Z" fill="#3793DF"/>
<path d="M81.779 23.3783H81.1545V25.0955H78.8519V18.2656H82.14C82.771 18.2656 83.3206 18.3697 83.7889 18.5778C84.2573 18.786 84.6183 19.0852 84.872 19.4755C85.1257 19.8658 85.2525 20.3211 85.2525 20.8415C85.2525 21.3293 85.1419 21.7554 84.9208 22.1196C84.6996 22.4839 84.3809 22.7734 83.9646 22.988L85.3989 25.0955H82.9401L81.779 23.3783ZM82.9303 20.8415C82.9303 20.5878 82.8523 20.3926 82.6961 20.256C82.54 20.1129 82.3059 20.0414 81.9936 20.0414H81.1545V21.6415H81.9936C82.3059 21.6415 82.54 21.5732 82.6961 21.4366C82.8523 21.2935 82.9303 21.0952 82.9303 20.8415Z" fill="#3793DF"/>
<path d="M87.5098 20.0511H85.5096V18.2656H91.8127V20.0511H89.8125V25.0955H87.5098V20.0511Z" fill="#3793DF"/>
<path d="M95.8963 25.2517C95.1613 25.2517 94.501 25.0988 93.9156 24.7931C93.3302 24.4873 92.8716 24.0645 92.5399 23.5247C92.2081 22.9783 92.0423 22.3636 92.0423 21.6806C92.0423 20.9976 92.2081 20.3861 92.5399 19.8462C92.8716 19.2999 93.3302 18.8738 93.9156 18.5681C94.501 18.2624 95.1613 18.1095 95.8963 18.1095C96.6313 18.1095 97.2915 18.2624 97.877 18.5681C98.4624 18.8738 98.921 19.2999 99.2527 19.8462C99.5844 20.3861 99.7503 20.9976 99.7503 21.6806C99.7503 22.3636 99.5844 22.9783 99.2527 23.5247C98.921 24.0645 98.4624 24.4873 97.877 24.7931C97.2915 25.0988 96.6313 25.2517 95.8963 25.2517ZM95.8963 23.3881C96.1825 23.3881 96.4394 23.3198 96.6671 23.1832C96.9013 23.0401 97.0866 22.8417 97.2232 22.588C97.3598 22.3278 97.4281 22.0253 97.4281 21.6806C97.4281 21.3358 97.3598 21.0366 97.2232 20.7829C97.0866 20.5227 96.9013 20.3243 96.6671 20.1877C96.4394 20.0446 96.1825 19.9731 95.8963 19.9731C95.6101 19.9731 95.3499 20.0446 95.1157 20.1877C94.8881 20.3243 94.7059 20.5227 94.5693 20.7829C94.4327 21.0366 94.3644 21.3358 94.3644 21.6806C94.3644 22.0253 94.4327 22.3278 94.5693 22.588C94.7059 22.8417 94.8881 23.0401 95.1157 23.1832C95.3499 23.3198 95.6101 23.3881 95.8963 23.3881Z" fill="#3793DF"/>
<path d="M103.133 25.2517C102.567 25.2517 102.014 25.1899 101.474 25.0663C100.941 24.9362 100.502 24.7638 100.157 24.5491L100.898 22.8709C101.224 23.0596 101.588 23.2124 101.991 23.3295C102.394 23.4401 102.781 23.4954 103.152 23.4954C103.471 23.4954 103.699 23.4661 103.835 23.4076C103.972 23.3425 104.04 23.2482 104.04 23.1246C104.04 22.9815 103.949 22.8742 103.767 22.8026C103.591 22.7311 103.299 22.653 102.889 22.5685C102.362 22.4579 101.923 22.3408 101.572 22.2172C101.22 22.0871 100.915 21.879 100.654 21.5928C100.394 21.3 100.264 20.9065 100.264 20.4122C100.264 19.9828 100.384 19.5926 100.625 19.2413C100.866 18.8901 101.224 18.6136 101.698 18.412C102.18 18.2103 102.762 18.1095 103.445 18.1095C103.913 18.1095 104.372 18.1615 104.821 18.2656C105.276 18.3632 105.676 18.5095 106.021 18.7047L105.328 20.3731C104.658 20.0349 104.024 19.8658 103.425 19.8658C102.833 19.8658 102.537 20.0089 102.537 20.2951C102.537 20.4317 102.625 20.5357 102.801 20.6073C102.977 20.6723 103.266 20.7439 103.669 20.822C104.19 20.9195 104.629 21.0334 104.986 21.1635C105.344 21.287 105.653 21.4919 105.913 21.7781C106.18 22.0644 106.313 22.4546 106.313 22.949C106.313 23.3783 106.193 23.7686 105.952 24.1198C105.712 24.4646 105.351 24.741 104.869 24.9492C104.395 25.1508 103.816 25.2517 103.133 25.2517Z" fill="#3793DF"/>
<path d="M56.774 26.121H59.5013C60.1179 26.121 60.6607 26.2343 61.1297 26.4609C61.604 26.6822 61.9703 27.0011 62.2285 27.4174C62.492 27.8337 62.6238 28.3238 62.6238 28.8877C62.6238 29.4516 62.492 29.9417 62.2285 30.3581C61.9703 30.7744 61.604 31.0959 61.1297 31.3225C60.6607 31.5438 60.1179 31.6545 59.5013 31.6545H56.774V26.121ZM59.4222 30.2C59.8227 30.2 60.1416 30.0867 60.3787 29.86C60.6212 29.6282 60.7424 29.3041 60.7424 28.8877C60.7424 28.4714 60.6212 28.1499 60.3787 27.9233C60.1416 27.6914 59.8227 27.5755 59.4222 27.5755H58.6396V30.2H59.4222Z" fill="#0063B5"/>
<path d="M67.9057 30.2474V31.6545H63.3049V26.121H67.8029V27.5281H65.1389V28.1763H67.4788V29.5201H65.1389V30.2474H67.9057Z" fill="#0063B5"/>
<path d="M72.8594 27.5281V28.4767H75.1677V29.8838H72.8594V31.6545H70.9938V26.121H75.4918V27.5281H72.8594Z" fill="#0063B5"/>
<path d="M80.6818 30.2474V31.6545H76.0811V26.121H80.5791V27.5281H77.9151V28.1763H80.255V29.5201H77.9151V30.2474H80.6818Z" fill="#0063B5"/>
<path d="M81.4 26.121H83.2656V31.6545H81.4V26.121Z" fill="#0063B5"/>
<path d="M86.5352 30.2632H86.0293V31.6545H84.1637V26.121H86.8277C87.3389 26.121 87.7842 26.2053 88.1636 26.3739C88.5431 26.5426 88.8355 26.785 89.0411 27.1012C89.2466 27.4174 89.3494 27.7863 89.3494 28.2079C89.3494 28.6031 89.2598 28.9483 89.0806 29.2435C88.9014 29.5386 88.6432 29.7731 88.3059 29.947L89.4679 31.6545H87.4759L86.5352 30.2632ZM87.468 28.2079C87.468 28.0024 87.4047 27.8443 87.2782 27.7336C87.1518 27.6177 86.962 27.5597 86.7091 27.5597H86.0293V28.8561H86.7091C86.962 28.8561 87.1518 28.8008 87.2782 28.6901C87.4047 28.5742 87.468 28.4134 87.468 28.2079Z" fill="#0063B5"/>
<path d="M93.8245 30.6901H91.7218L91.3503 31.6545H89.4531L91.872 26.121H93.706L96.1249 31.6545H94.1961L93.8245 30.6901ZM93.3107 29.3462L92.7732 27.9549L92.2356 29.3462H93.3107Z" fill="#0063B5"/>
<defs>
<filter id="filter0_d" x="0.454632" y="1.27527" width="44.0908" height="44.0908" filterUnits="userSpaceOnUse" color-interpolation-filters="sRGB">
<feFlood flood-opacity="0" result="BackgroundImageFix"/>
<feColorMatrix in="SourceAlpha" type="matrix" values="0 0 0 0 0 0 0 0 0 0 0 0 0 0 0 0 0 0 127 0"/>
<feOffset dy="0.820758"/>
<feGaussianBlur stdDeviation="0.410379"/>
<feColorMatrix type="matrix" values="0 0 0 0 0 0 0 0 0 0 0 0 0 0 0 0 0 0 0.25 0"/>
<feBlend mode="normal" in2="BackgroundImageFix" result="effect1_dropShadow"/>
<feBlend mode="normal" in="SourceGraphic" in2="effect1_dropShadow" result="shape"/>
</filter>
</defs>
</svg>
