<svg width="340" height="163" viewBox="0 0 340 163" fill="none" xmlns="http://www.w3.org/2000/svg">
<g filter="url(#filter0_d)">
<rect x="16.1548" y="11.1272" width="127.961" height="127.961" rx="18.916" transform="rotate(1.00558 16.1548 11.1272)" fill="#0063B5"/>
<mask id="mask0" style="mask-type:alpha" maskUnits="userSpaceOnUse" x="-1" y="0" width="160" height="159">
<rect x="122.972" width="127.961" height="127.961" rx="18.916" transform="rotate(73.9481 122.972 0)" fill="#3793DF"/>
</mask>
<g mask="url(#mask0)">
<path fill-rule="evenodd" clip-rule="evenodd" d="M33.4593 62.1719L61.7655 44.6295L63.7191 44.6626L65.9228 42.7457L67.4422 42.7714L60.1469 50.4645L62.1004 50.4976L70.7129 41.9583L72.2323 41.984L67.332 49.2834L73.4208 48.735L75.7164 41.3916L77.2358 41.4173L75.5951 48.5547L83.1924 48.6833L81.1467 41.2664L82.5651 41.2904L85.5801 48.7237L91.6579 48.8265L86.783 41.796L88.5195 41.8254L97.0698 49.7866L98.3722 49.8087L91.1132 42.5207L93.2839 42.5574L125.553 60.2565L124.225 61.7539L126.584 63.5308L124.155 65.8781L126.944 67.8795L124.303 70.006L124.939 70.8853L95.4778 92.5336L93.736 92.5041V169.327H86.7883V89.7197C85.4385 89.5441 83.8552 89.4054 82.0122 89.3147V169.327H64.8624V91.5629C64.4946 91.8848 64.2646 92.2475 64.2096 92.6558L62.4731 92.6264L34.1402 73.2569L34.3867 71.524L31.8076 69.9605L34.2284 68.0473L31.8811 65.6192L34.2982 63.9231L33.4593 62.1719ZM64.8624 89.5706V89.652L39.2366 67.2635L39.6345 65.6406C40.2566 65.352 40.9262 65.0701 41.6398 64.7955L42.2976 66.0126L64.8624 89.5706ZM66.8156 90.539V169.326H68.1182V90.16C67.6551 90.2737 67.218 90.3997 66.8156 90.539ZM76.6572 87.5372L76.6499 87.5374L71.7145 59.7794L71.7607 59.4021C72.2902 59.3695 72.8218 59.3392 73.355 59.3113L73.451 59.8088L76.6572 87.5372ZM81.6805 87.457L81.6757 87.4571L85.169 60.2243L85.4685 59.1072C85.9523 59.1166 86.4359 59.1281 86.9191 59.1418L87.1226 60.2573L81.6805 87.457ZM97.9562 59.8668C94.3552 59.4843 90.6481 59.2475 86.9191 59.1418L86.3278 55.9013L85.4685 59.1072C81.4077 59.0288 77.3337 59.1032 73.355 59.3113L72.6525 55.6699L72.2184 55.6626L71.7607 59.4021C67.9562 59.6367 64.2535 59.9929 60.7491 60.4539L58.9481 57.1746L58.4357 60.7778C55.4319 61.2241 52.5988 61.7488 50.0022 62.3402L48.2793 58.9482L47.4805 62.9551C45.3122 63.5212 43.3497 64.1374 41.6398 64.7955L40.4028 62.5065L39.6345 65.6406C37.984 66.4061 36.6672 67.2188 35.7475 68.0674L35.8247 63.509C44.8639 55.4112 92.9673 48.4088 122.919 61.9433L122.845 66.2846C121.833 65.7618 120.765 65.2707 119.646 64.8104C119.731 63.5719 119.815 61.7605 119.671 61.4598L117.436 63.9639C115.539 63.2873 113.522 62.6882 111.408 62.1621L111.474 58.281L109.274 61.6625C106.519 61.0568 103.624 60.5661 100.638 60.1815L99.5615 56.5593L97.9869 59.7896L97.9562 59.8668ZM87.0018 87.3721L97.9562 59.8668C98.8573 59.9625 99.7517 60.0673 100.638 60.1815L100.794 60.7056L87.1046 87.3704L87.0018 87.3721ZM86.7883 87.908L86.6488 88.2584L86.7883 87.9866V87.908ZM92.6058 87.2826L109.274 61.6625C109.995 61.8211 110.707 61.9876 111.408 62.1621L111.404 62.4052L92.7557 87.2802L92.6058 87.2826ZM117.436 63.9639C118.192 64.2336 118.929 64.5157 119.646 64.8104C119.632 65.0146 119.618 65.2032 119.605 65.3669L94.6613 89.4801L117.436 63.9639ZM47.4805 62.9551C48.293 62.7429 49.1344 62.5378 50.0022 62.3402L50.1705 62.6713L67.7533 88.5898L47.3303 63.7089L47.4805 62.9551ZM58.4357 60.7778L58.2088 62.3731L71.2443 87.5632L61.4757 61.777L60.7491 60.4539C59.9678 60.5567 59.1962 60.6647 58.4357 60.7778ZM63.1507 91.1177L35.9619 68.2936L35.9178 70.8983L63.1507 91.1177ZM123.016 69.1156L123.056 66.7279L96.1628 90.5909L123.016 69.1156Z" fill="white"/>
</g>
<path fill-rule="evenodd" clip-rule="evenodd" d="M128.203 18.1785C125.314 8.13879 114.833 2.34174 104.794 5.23043L18.1783 30.152C8.13855 33.0407 2.34149 43.5212 5.23019 53.561L30.1517 140.176C33.0404 150.216 43.521 156.013 53.5607 153.124L64.8628 149.872V91.5629C64.495 91.8847 64.265 92.2475 64.21 92.6557L62.4735 92.6263L34.1406 73.2568L34.3871 71.524L31.808 69.9605L34.2288 68.0473L31.8815 65.6192L34.2986 63.9231L33.4597 62.1719L61.7659 44.6294L63.7195 44.6625L65.9232 42.7457L67.4426 42.7714L60.1473 50.4645L62.1008 50.4975L70.7133 41.9582L72.2327 41.9839L67.3324 49.2833L73.4212 48.735L75.7168 41.3915L77.2362 41.4172L75.5955 48.5546L83.1928 48.6832L81.147 41.2663L82.5655 41.2903L85.5805 48.7236L91.6583 48.8265L86.7834 41.796L88.5199 41.8253L97.0702 49.7866L98.3726 49.8086L91.1136 42.5206L93.2843 42.5574L125.554 60.2565L124.226 61.7539L126.584 63.5308L124.156 65.8781L126.945 67.8794L124.303 70.006L124.94 70.8853L95.4782 92.5335L93.7364 92.5041V141.565L140.176 128.203C150.216 125.314 156.013 114.834 153.124 104.794L128.203 18.1785ZM86.789 143.564V89.7197C85.4391 89.5441 83.8559 89.4054 82.0129 89.3147V144.938L86.789 143.564ZM68.1183 148.936V90.16C67.6552 90.2737 67.2182 90.3997 66.8158 90.5391V149.311L68.1183 148.936ZM64.8628 89.6518V89.5704L42.298 66.0124L41.6405 64.7958C43.3503 64.1378 45.3128 63.5216 47.481 62.9554L47.3307 63.7093L67.7537 88.5902L50.1709 62.6717L50.0027 62.3405C52.5993 61.7491 55.4325 61.2244 58.4364 60.778L58.2095 62.3733L71.245 87.5635L61.4765 61.7772L60.7499 60.4542C64.2542 59.9932 67.9569 59.6369 71.7614 59.4023L71.7152 59.7795L76.6506 87.5373L76.6579 87.5372L73.4517 59.8089L73.3558 59.3115C77.3345 59.1034 81.4084 59.029 85.4692 59.1074L85.1698 60.2246L81.6765 87.457L81.6813 87.457L87.1233 60.2577L86.9198 59.142C90.6489 59.2477 94.3559 59.4845 97.9569 59.867L87.0026 87.372L87.1055 87.3704L100.795 60.7058L100.639 60.1817C103.625 60.5663 106.52 61.057 109.275 61.6627L92.6066 87.2825L92.7565 87.2801L111.405 62.4053L111.409 62.1623C113.522 62.6883 115.539 63.2874 117.436 63.9638L94.6618 89.4796L119.605 65.3665C119.618 65.2029 119.632 65.0144 119.646 64.8104C120.766 65.2708 121.834 65.7619 122.846 66.2848L122.92 61.9435C92.9683 48.409 44.8648 55.4114 35.8256 63.5093L35.7485 68.0676C36.668 67.2191 37.9846 66.4066 39.6348 65.6411L39.2371 67.2634L64.8628 89.6518ZM119.646 64.8104C118.93 64.5157 118.192 64.2336 117.436 63.9638L119.671 61.4594C119.815 61.76 119.731 63.5719 119.646 64.8104ZM111.409 62.1623C110.708 61.9878 109.996 61.8213 109.275 61.6627L111.475 58.2811L111.409 62.1623ZM100.639 60.1817C99.7525 60.0675 98.858 59.9627 97.9569 59.867L97.9876 59.7898L99.5622 56.5596L100.639 60.1817ZM86.9198 59.142C86.4366 59.1283 85.953 59.1168 85.4692 59.1074L86.3286 55.9017L86.9198 59.142ZM73.3558 59.3115C72.8225 59.3394 72.291 59.3697 71.7614 59.4023L72.2191 55.6626L72.6533 55.67L73.3558 59.3115ZM60.7499 60.4542L58.9488 57.1748L58.4364 60.778C59.197 60.665 59.9685 60.557 60.7499 60.4542ZM50.0027 62.3405C49.1349 62.5382 48.2935 62.7433 47.481 62.9554L48.2798 58.9485L50.0027 62.3405ZM39.6348 65.6411L40.4032 62.5063L41.6405 64.7958C40.9268 65.0705 40.257 65.3524 39.6348 65.6411ZM86.6495 88.2586L86.789 87.9083V87.9869L86.6495 88.2586ZM35.9623 68.2938L63.1511 91.118L35.9183 70.8986L35.9623 68.2938ZM123.056 66.7276L123.016 69.1153L96.1628 90.5906L123.056 66.7276Z" fill="#3793DF"/>
</g>
<path d="M164.597 42.0216H174.194C176.364 42.0216 178.274 42.4203 179.925 43.2178C181.594 43.9967 182.883 45.1187 183.791 46.5837C184.719 48.0488 185.182 49.7735 185.182 51.7578C185.182 53.7422 184.719 55.4668 183.791 56.9319C182.883 58.397 181.594 59.5282 179.925 60.3257C178.274 61.1046 176.364 61.494 174.194 61.494H164.597V42.0216ZM173.916 56.3756C175.325 56.3756 176.447 55.9768 177.282 55.1794C178.135 54.3634 178.562 53.2229 178.562 51.7578C178.562 50.2928 178.135 49.1615 177.282 48.3641C176.447 47.5481 175.325 47.1401 173.916 47.1401H171.162V56.3756H173.916ZM200.577 58.1003H193.177L191.87 61.494H185.193L193.706 42.0216H200.159L208.672 61.494H201.884L200.577 58.1003ZM198.769 53.3712L196.877 48.4753L194.985 53.3712H198.769ZM209.719 42.0216H219.316C221.486 42.0216 223.396 42.4203 225.047 43.2178C226.716 43.9967 228.005 45.1187 228.914 46.5837C229.841 48.0488 230.304 49.7735 230.304 51.7578C230.304 53.7422 229.841 55.4668 228.914 56.9319C228.005 58.397 226.716 59.5282 225.047 60.3257C223.396 61.1046 221.486 61.494 219.316 61.494H209.719V42.0216ZM219.038 56.3756C220.448 56.3756 221.57 55.9768 222.404 55.1794C223.257 54.3634 223.684 53.2229 223.684 51.7578C223.684 50.2928 223.257 49.1615 222.404 48.3641C221.57 47.5481 220.448 47.1401 219.038 47.1401H216.284V56.3756H219.038ZM242.911 61.9391C240.815 61.9391 238.933 61.5033 237.264 60.6317C235.595 59.76 234.287 58.5546 233.341 57.0154C232.396 55.4576 231.923 53.7051 231.923 51.7578C231.923 49.8106 232.396 48.0673 233.341 46.5281C234.287 44.9703 235.595 43.7556 237.264 42.884C238.933 42.0124 240.815 41.5765 242.911 41.5765C245.006 41.5765 246.889 42.0124 248.558 42.884C250.227 43.7556 251.534 44.9703 252.48 46.5281C253.426 48.0673 253.899 49.8106 253.899 51.7578C253.899 53.7051 253.426 55.4576 252.48 57.0154C251.534 58.5546 250.227 59.76 248.558 60.6317C246.889 61.5033 245.006 61.9391 242.911 61.9391ZM242.911 56.6259C243.727 56.6259 244.459 56.4312 245.108 56.0417C245.776 55.6338 246.304 55.0681 246.694 54.3449C247.083 53.6031 247.278 52.7407 247.278 51.7578C247.278 50.7749 247.083 49.9219 246.694 49.1986C246.304 48.4568 245.776 47.8912 245.108 47.5017C244.459 47.0937 243.727 46.8897 242.911 46.8897C242.095 46.8897 241.353 47.0937 240.685 47.5017C240.036 47.8912 239.517 48.4568 239.127 49.1986C238.738 49.9219 238.543 50.7749 238.543 51.7578C238.543 52.7407 238.738 53.6031 239.127 54.3449C239.517 55.0681 240.036 55.6338 240.685 56.0417C241.353 56.4312 242.095 56.6259 242.911 56.6259ZM263.542 61.9391C261.928 61.9391 260.352 61.7629 258.813 61.4106C257.292 61.0397 256.04 60.5482 255.057 59.9362L257.172 55.1516C258.099 55.6894 259.137 56.1252 260.287 56.459C261.437 56.7743 262.54 56.9319 263.597 56.9319C264.506 56.9319 265.155 56.8485 265.545 56.6816C265.934 56.4961 266.129 56.2272 266.129 55.8748C266.129 55.4668 265.869 55.1609 265.35 54.9569C264.849 54.7529 264.015 54.5303 262.846 54.2892C261.344 53.974 260.092 53.6402 259.091 53.2878C258.09 52.9169 257.218 52.3234 256.476 51.5075C255.734 50.6729 255.363 49.551 255.363 48.1415C255.363 46.9175 255.707 45.8048 256.393 44.8034C257.079 43.802 258.099 43.0138 259.453 42.4389C260.825 41.864 262.485 41.5765 264.432 41.5765C265.767 41.5765 267.075 41.7249 268.354 42.0216C269.652 42.2998 270.793 42.7171 271.776 43.2734L269.801 48.0303C267.891 47.0659 266.083 46.5837 264.376 46.5837C262.689 46.5837 261.845 46.9917 261.845 47.8077C261.845 48.1972 262.095 48.4939 262.596 48.6979C263.097 48.8833 263.922 49.0873 265.072 49.3099C266.555 49.588 267.807 49.9126 268.827 50.2835C269.847 50.6358 270.728 51.22 271.47 52.036C272.23 52.852 272.61 53.9647 272.61 55.3741C272.61 56.5981 272.267 57.7108 271.581 58.7122C270.895 59.6951 269.866 60.4833 268.493 61.0768C267.14 61.6517 265.489 61.9391 263.542 61.9391Z" fill="#0063B5"/>
<path d="M181.346 83.89H172.213L170.6 88.0789H162.359L172.866 64.0444H180.831L191.338 88.0789H182.96L181.346 83.89ZM179.115 78.053L176.78 72.0101L174.445 78.053H179.115ZM211.859 75.5122C213.278 76.0387 214.377 76.8055 215.155 77.8127C215.933 78.8199 216.322 80.033 216.322 81.4522C216.322 83.5581 215.452 85.1947 213.713 86.3621C211.973 87.5066 209.455 88.0789 206.159 88.0789H192.631V64.0444H205.472C208.677 64.0444 211.092 64.6166 212.717 65.7611C214.365 66.9056 215.189 68.4278 215.189 70.3277C215.189 71.4493 214.903 72.4564 214.331 73.3491C213.781 74.2419 212.957 74.9629 211.859 75.5122ZM200.597 69.7096V73.2805H204.374C206.136 73.2805 207.017 72.6853 207.017 71.4951C207.017 70.3048 206.136 69.7096 204.374 69.7096H200.597ZM205.472 82.4136C207.258 82.4136 208.15 81.7841 208.15 80.5252C208.15 79.2662 207.258 78.6367 205.472 78.6367H200.597V82.4136H205.472ZM239.17 81.9672V88.0789H219.187V64.0444H238.724V70.156H227.153V72.9715H237.316V78.8084H227.153V81.9672H239.17ZM252.59 82.0359H250.392V88.0789H242.289V64.0444H253.86C256.081 64.0444 258.015 64.4106 259.663 65.1431C261.311 65.8756 262.581 66.9285 263.474 68.3019C264.367 69.6753 264.813 71.2776 264.813 73.1088C264.813 74.8255 264.424 76.3248 263.646 77.6067C262.867 78.8885 261.746 79.9071 260.281 80.6625L265.328 88.0789H256.676L252.59 82.0359ZM256.641 73.1088C256.641 72.2161 256.367 71.5294 255.817 71.0487C255.268 70.5451 254.444 70.2933 253.345 70.2933H250.392V75.9243H253.345C254.444 75.9243 255.268 75.6839 255.817 75.2032C256.367 74.6997 256.641 74.0015 256.641 73.1088ZM272.757 70.3277H265.718V64.0444H287.898V70.3277H280.86V88.0789H272.757V70.3277ZM302.269 88.6282C299.682 88.6282 297.359 88.0903 295.299 87.0145C293.239 85.9386 291.625 84.4508 290.457 82.5509C289.29 80.6282 288.706 78.4651 288.706 76.0616C288.706 73.6582 289.29 71.5065 290.457 69.6066C291.625 67.6839 293.239 66.1846 295.299 65.1087C297.359 64.0329 299.682 63.495 302.269 63.495C304.855 63.495 307.179 64.0329 309.239 65.1087C311.299 66.1846 312.912 67.6839 314.08 69.6066C315.247 71.5065 315.831 73.6582 315.831 76.0616C315.831 78.4651 315.247 80.6282 314.08 82.5509C312.912 84.4508 311.299 85.9386 309.239 87.0145C307.179 88.0903 304.855 88.6282 302.269 88.6282ZM302.269 82.0702C303.276 82.0702 304.18 81.8299 304.981 81.3492C305.805 80.8456 306.457 80.1475 306.938 79.2548C307.419 78.3392 307.659 77.2748 307.659 76.0616C307.659 74.8484 307.419 73.7955 306.938 72.9028C306.457 71.9872 305.805 71.289 304.981 70.8084C304.18 70.3048 303.276 70.053 302.269 70.053C301.261 70.053 300.346 70.3048 299.522 70.8084C298.721 71.289 298.08 71.9872 297.599 72.9028C297.118 73.7955 296.878 74.8484 296.878 76.0616C296.878 77.2748 297.118 78.3392 297.599 79.2548C298.08 80.1475 298.721 80.8456 299.522 81.3492C300.346 81.8299 301.261 82.0702 302.269 82.0702ZM327.733 88.6282C325.742 88.6282 323.796 88.4108 321.896 87.9759C320.019 87.5181 318.474 86.9115 317.261 86.1561L319.871 80.2505C321.015 80.9143 322.297 81.4522 323.716 81.8642C325.135 82.2534 326.497 82.4479 327.802 82.4479C328.924 82.4479 329.725 82.3449 330.206 82.1389C330.686 81.91 330.927 81.5781 330.927 81.1432C330.927 80.6396 330.606 80.2619 329.965 80.0101C329.347 79.7583 328.317 79.4837 326.875 79.1861C325.021 78.797 323.476 78.3849 322.24 77.95C321.004 77.4922 319.928 76.7598 319.012 75.7526C318.097 74.7225 317.639 73.3377 317.639 71.5981C317.639 70.0873 318.062 68.7139 318.909 67.4779C319.756 66.2418 321.015 65.269 322.686 64.5594C324.38 63.8498 326.429 63.495 328.832 63.495C330.48 63.495 332.094 63.6781 333.673 64.0444C335.276 64.3877 336.683 64.9027 337.897 65.5894L335.459 71.4607C333.101 70.2704 330.869 69.6753 328.763 69.6753C326.68 69.6753 325.639 70.1789 325.639 71.186C325.639 71.6667 325.948 72.033 326.566 72.2848C327.184 72.5137 328.203 72.7654 329.622 73.0401C331.453 73.3835 332.998 73.7841 334.257 74.2419C335.516 74.6768 336.603 75.3978 337.519 76.405C338.457 77.4121 338.927 78.7855 338.927 80.5252C338.927 82.0359 338.503 83.4093 337.656 84.6454C336.809 85.8585 335.539 86.8314 333.845 87.5638C332.174 88.2734 330.137 88.6282 327.733 88.6282Z" fill="#3793DF"/>
<path d="M164.597 92.0935H174.194C176.364 92.0935 178.274 92.4922 179.925 93.2897C181.594 94.0686 182.883 95.1906 183.791 96.6556C184.719 98.1207 185.182 99.8454 185.182 101.83C185.182 103.814 184.719 105.539 183.791 107.004C182.883 108.469 181.594 109.6 179.925 110.398C178.274 111.176 176.364 111.566 174.194 111.566H164.597V92.0935ZM173.916 106.447C175.325 106.447 176.447 106.049 177.282 105.251C178.135 104.435 178.562 103.295 178.562 101.83C178.562 100.365 178.135 99.2334 177.282 98.436C176.447 97.62 175.325 97.212 173.916 97.212H171.162V106.447H173.916ZM203.769 106.614V111.566H187.579V92.0935H203.408V97.0451H194.033V99.3261H202.267V104.055H194.033V106.614H203.769ZM221.201 97.0451V100.383H229.324V105.335H221.201V111.566H214.636V92.0935H230.465V97.0451H221.201ZM248.728 106.614V111.566H232.539V92.0935H248.367V97.0451H238.992V99.3261H247.226V104.055H238.992V106.614H248.728ZM251.256 92.0935H257.821V111.566H251.256V92.0935ZM269.326 106.67H267.546V111.566H260.981V92.0935H270.356C272.155 92.0935 273.722 92.3902 275.057 92.9837C276.392 93.5771 277.421 94.4302 278.145 95.5429C278.868 96.6556 279.229 97.9538 279.229 99.4374C279.229 100.828 278.914 102.043 278.284 103.082C277.653 104.12 276.744 104.945 275.558 105.557L279.647 111.566H272.637L269.326 106.67ZM272.609 99.4374C272.609 98.7141 272.386 98.1578 271.941 97.7683C271.496 97.3603 270.829 97.1563 269.938 97.1563H267.546V101.718H269.938C270.829 101.718 271.496 101.524 271.941 101.134C272.386 100.726 272.609 100.161 272.609 99.4374ZM294.978 108.172H287.578L286.271 111.566H279.594L288.107 92.0935H294.56L303.073 111.566H296.285L294.978 108.172ZM293.169 103.443L291.278 98.5472L289.386 103.443H293.169Z" fill="#0063B5"/>
<defs>
<filter id="filter0_d" x="2.26238" y="4.48804" width="153.83" height="158.318" filterUnits="userSpaceOnUse" color-interpolation-filters="sRGB">
<feFlood flood-opacity="0" result="BackgroundImageFix"/>
<feColorMatrix in="SourceAlpha" type="matrix" values="0 0 0 0 0 0 0 0 0 0 0 0 0 0 0 0 0 0 127 0" result="hardAlpha"/>
<feOffset dy="2.22542"/>
<feGaussianBlur stdDeviation="1.11271"/>
<feColorMatrix type="matrix" values="0 0 0 0 0 0 0 0 0 0 0 0 0 0 0 0 0 0 0.25 0"/>
<feBlend mode="normal" in2="BackgroundImageFix" result="effect1_dropShadow"/>
<feBlend mode="normal" in="SourceGraphic" in2="effect1_dropShadow" result="shape"/>
</filter>
</defs>
</svg>
