<svg width="100" height="100" viewBox="0 0 100 100" fill="none" xmlns="http://www.w3.org/2000/svg">
<circle cx="50" cy="50" r="50" fill="#FFD000"/>
<path d="M27.2563 28.6463C27.2546 28.6464 27.2528 28.6466 27.2512 28.6468C26.6789 28.6986 26.1608 28.9705 25.7911 29.4128C25.4173 29.86 25.2405 30.4263 25.2931 31.0074L28.2364 63.4759C28.3443 64.6666 29.4048 65.5494 30.6006 65.4441C35.6417 64.9992 44.181 65.2843 50.5589 70.8522L47.4787 36.8729C47.4421 36.4693 47.3046 36.0995 47.0816 35.8034C41.6026 28.5372 32.3088 28.2002 27.2563 28.6463Z" fill="#163E7A"/>
<path d="M74.5527 59.2774L71.6095 26.8086C71.5568 26.2275 71.281 25.7023 70.8329 25.3296C70.3897 24.961 69.8308 24.7867 69.2591 24.8386C69.2572 24.8387 69.2554 24.8389 69.2538 24.839C64.2036 25.3089 55.1219 27.3117 51.0386 35.4447C50.8725 35.7761 50.804 36.1646 50.8405 36.5682L53.9207 70.5473C59.1934 63.9232 67.5422 62.1073 72.5812 61.6384C73.7762 61.527 74.6607 60.4678 74.5527 59.2774Z" fill="#163E7A"/>
<path d="M77.0236 31.6842L75.4536 31.8265L77.9144 58.9727C78.1899 62.0126 75.9378 64.716 72.8938 64.9995C68.6197 65.3973 61.6466 66.8722 57.0828 72.0496C65.5251 69.1529 74.7514 69.7021 80.0457 70.4139C80.7068 70.5027 81.3622 70.2897 81.8437 69.829C82.3234 69.3696 82.5641 68.726 82.5041 68.0641L79.3847 33.6529C79.2767 32.4592 78.2173 31.576 77.0236 31.6842Z" fill="#163E7A"/>
<path d="M24.8745 63.7807L22.4137 36.6345L20.8437 36.7769C19.6502 36.8851 18.7668 37.9443 18.875 39.138L21.9943 73.5486C22.0544 74.2108 22.4069 74.8004 22.9614 75.1661C23.5173 75.5324 24.1999 75.6248 24.8352 75.4181C29.9151 73.7656 38.8925 71.5665 47.7177 72.8979C42.2975 68.6257 35.1728 68.429 30.8969 68.8063C27.8518 69.075 25.15 66.8206 24.8745 63.7807Z" fill="#163E7A"/>
<path d="M31.2655 24.648C31.2639 24.648 31.262 24.648 31.2604 24.648C30.6857 24.648 30.1453 24.872 29.7371 25.2791C29.3245 25.6907 29.0972 26.2387 29.0972 26.8222V59.4239C29.0972 60.6194 30.0737 61.5944 31.2741 61.5974C36.3348 61.6095 44.8135 62.6643 50.6627 68.7853V34.6667C50.6627 34.2615 50.5591 33.8807 50.3638 33.5657C45.5631 25.8345 36.3377 24.6598 31.2655 24.648Z" fill="#3793DF"/>
<path d="M75.6035 59.4239V26.822C75.6035 26.2385 75.3762 25.6905 74.9636 25.2789C74.5555 24.8718 74.0146 24.6478 73.4406 24.6478C73.4387 24.6478 73.4369 24.6478 73.4352 24.6478C68.3633 24.6598 59.1379 25.8345 54.337 33.5657C54.1416 33.8807 54.0383 34.2614 54.0383 34.6667V68.7851C59.8874 62.6641 68.3661 61.6093 73.4269 61.5972C74.6271 61.5942 75.6035 60.6192 75.6035 59.4239Z" fill="#3793DF"/>
<path d="M80.5553 32.1664H78.9789V59.4239C78.9789 62.4763 76.4919 64.9653 73.4348 64.9729C69.1422 64.9831 62.0644 65.8225 57.0518 70.5667C65.7212 68.4441 74.8602 69.8239 80.0687 71.0108C80.719 71.1589 81.391 71.0059 81.9121 70.5906C82.4313 70.1764 82.7291 69.5571 82.7291 68.8925V34.3402C82.7293 33.1416 81.7539 32.1664 80.5553 32.1664Z" fill="#3793DF"/>
<path d="M25.7215 59.4239V32.1664H24.1451C22.9467 32.1664 21.9713 33.1416 21.9713 34.3402V68.8919C21.9713 69.5567 22.2692 70.1758 22.7884 70.59C23.309 71.0051 23.9804 71.1587 24.6318 71.0102C29.8402 69.8231 38.9795 68.4435 47.6484 70.5661C42.636 65.8221 35.5582 64.9829 31.2657 64.9727C28.2087 64.9653 25.7215 62.4763 25.7215 59.4239Z" fill="#3793DF"/>
</svg>
