<svg width="11" height="11" viewBox="0 0 11 11" fill="none" xmlns="http://www.w3.org/2000/svg">
<path d="M9.375 0.25H1.125C0.492188 0.25 0 0.765625 0 1.375V9.625C0 10.2578 0.492188 10.75 1.125 10.75H4.33594V7.1875H2.85938V5.5H4.33594V4.23438C4.33594 2.78125 5.20312 1.96094 6.51562 1.96094C7.17188 1.96094 7.82812 2.07812 7.82812 2.07812V3.50781H7.10156C6.375 3.50781 6.14062 3.95312 6.14062 4.42188V5.5H7.75781L7.5 7.1875H6.14062V10.75H9.375C9.98438 10.75 10.5 10.2578 10.5 9.625V1.375C10.5 0.765625 9.98438 0.25 9.375 0.25Z" fill="#0764E3"/>
</svg>
