<svg width="16" height="20" viewBox="0 0 16 20" fill="none" xmlns="http://www.w3.org/2000/svg">
<path d="M15.7144 8.20396C15.7862 7.74975 15.831 7.25174 15.8423 6.6933C15.8379 4.29877 14.6917 3.45147 14.4711 3.05425C14.796 1.23994 14.4173 0.414675 14.2412 0.132162C13.5917 -0.0983758 11.9815 0.727177 11.1017 1.30833C9.66732 0.88844 6.63594 0.929423 5.49913 1.41701C3.40166 -0.0848766 2.29231 0.144125 2.29231 0.144125C2.29231 0.144125 1.57511 1.43019 2.10271 3.31163C1.41259 4.19106 0.89821 4.81283 0.89821 6.46207C0.89821 6.85707 0.922742 7.23032 0.964372 7.58942C1.5587 10.7144 4.03483 12.0625 6.46712 12.295C6.1011 12.5731 5.66169 13.0994 5.6009 13.7092C5.141 14.0066 4.2159 14.1049 3.49652 13.8787C2.48857 13.5602 2.10271 11.5642 0.593265 11.8489C0.266657 11.9101 0.331566 12.1255 0.614403 12.3091C1.07427 12.6074 1.50737 12.9782 1.84121 13.7716C2.09762 14.3808 2.6369 15.4684 4.34192 15.4684C5.01878 15.4684 5.49287 15.3884 5.49287 15.3884C5.49287 15.3884 5.50576 16.9406 5.50576 17.5461C5.50576 18.2428 4.56551 18.4384 4.56551 18.7726C4.56551 18.9056 4.87672 18.9182 5.12681 18.9182C5.62107 18.9182 6.64944 18.5065 6.64944 17.7823C6.64944 17.2069 6.65861 15.2732 6.65861 14.9346C6.65861 14.1947 7.05514 13.9591 7.05514 13.9591C7.05514 13.9591 7.10368 17.9089 6.95972 18.4384C6.79089 19.0612 6.48506 18.9727 6.48506 19.2498C6.48506 19.6634 7.72137 19.3509 8.13144 18.4456C8.44867 17.7386 8.3066 13.8652 8.3066 13.8652L8.63733 13.858C8.63733 13.858 8.64113 15.632 8.62974 16.4424C8.61781 17.2818 8.5312 18.343 9.02978 18.8438C9.35704 19.1732 10.3596 19.7512 10.3596 19.223C10.3596 18.9169 9.65754 18.6639 9.65754 17.8346V14.0141C10.0841 14.0141 10.1722 15.2699 10.1722 15.2699L10.3259 17.603C10.3259 17.603 10.2239 18.4544 11.2457 18.8097C11.6064 18.9361 12.3781 18.9704 12.4142 18.7584C12.4505 18.5458 11.4851 18.2314 11.4759 17.5724C11.4709 17.1711 11.4939 16.9362 11.4939 15.1905C11.4939 13.4458 11.2595 12.8004 10.4428 12.2861C12.8112 12.043 15.2713 10.9852 15.7144 8.20396Z" fill="#205BB3"/>
</svg>
