<svg width="100" height="100" viewBox="0 0 100 100" fill="none" xmlns="http://www.w3.org/2000/svg">
<circle cx="50" cy="50" r="50" fill="#FFD000"/>
<path d="M45.9621 18.3977C43.1619 18.6779 41.0122 20.8171 40.6084 23.4713L34.4306 24.0894L35.1799 31.5776L59.142 29.1799L58.3927 21.6917L52.215 22.3099C51.2933 19.7883 48.7623 18.1175 45.9621 18.3977ZM22.7493 28.2836L28.294 83.6959L76.2182 78.9005L70.6735 23.4881L60.1901 24.5371L60.7895 30.5277L33.8321 33.2251L33.2327 27.2346L22.7493 28.2836ZM48.8141 46.8995C55.4285 46.2376 61.4727 49.0363 64.6146 53.6379C62.4488 58.7743 57.08 62.7113 50.4625 63.3734C43.8449 64.0356 37.8027 61.2405 34.662 56.635C36.8299 51.5021 42.1997 47.5613 48.8141 46.8995ZM48.9639 48.3971C45.2419 48.7696 42.5265 52.0888 42.8989 55.8108C43.2714 59.5328 46.5906 62.2482 50.3126 61.8758C54.0347 61.5034 56.7501 58.1841 56.3776 54.4621C56.0052 50.7401 52.686 48.0247 48.9639 48.3971Z" fill="#163E7A"/>
<path d="M50.9897 17.2962C48.1863 17.3979 45.9125 19.3901 45.343 22.005L39.1583 22.2295L39.4303 29.7261L63.4197 28.8556L63.1476 21.3589L56.9629 21.5833C56.2053 19.0166 53.7931 17.1944 50.9897 17.2962ZM27.2724 25.6634L29.2856 81.1388L77.2644 79.3977L75.2512 23.9223L64.7558 24.3032L64.9734 30.3005L37.9854 31.2799L37.7678 25.2825L27.2724 25.6634ZM52.0252 45.8304C58.6472 45.5901 64.4831 48.7563 67.3179 53.5326C64.8386 58.5055 59.2488 62.0827 52.6238 62.3231C45.9986 62.5635 40.1644 59.401 37.3311 54.6209C39.8123 49.6516 45.4033 46.0707 52.0252 45.8304ZM52.0797 47.3297C48.3534 47.465 45.4423 50.5954 45.5775 54.3216C45.7127 58.0478 48.843 60.959 52.5693 60.8238C56.2956 60.6885 59.2067 57.5581 59.0715 53.8319C58.9363 50.1057 55.8059 47.1945 52.0797 47.3297Z" fill="#3793DF"/>
</svg>
