<svg width="20" height="20" viewBox="0 0 20 20" fill="none" xmlns="http://www.w3.org/2000/svg">
<path d="M19.4299 5.78431C19.3846 4.75566 19.2182 4.04847 18.98 3.43568C18.7341 2.78522 18.3559 2.20287 17.8604 1.71875C17.3763 1.2271 16.7901 0.845072 16.1472 0.603088C15.5309 0.364798 14.8274 0.198452 13.7987 0.153099C12.7624 0.103905 12.4334 0.0925293 9.80497 0.0925293C7.17653 0.0925293 6.84754 0.103905 5.81504 0.149258C4.78639 0.194612 4.0792 0.361104 3.46656 0.599247C2.81596 0.845072 2.2336 1.22326 1.74948 1.71875C1.25784 2.20287 0.87595 2.78907 0.633819 3.43199C0.395529 4.04847 0.229184 4.75182 0.18383 5.78047C0.134636 6.81681 0.12326 7.1458 0.12326 9.77424C0.12326 12.4027 0.134636 12.7317 0.179989 13.7642C0.225343 14.7928 0.391836 15.5 0.630126 16.1128C0.87595 16.7632 1.25784 17.3456 1.74948 17.8297C2.2336 18.3214 2.8198 18.7034 3.46272 18.9454C4.0792 19.1837 4.78255 19.35 5.81135 19.3954C6.8437 19.4409 7.17284 19.4521 9.80127 19.4521C12.4297 19.4521 12.7587 19.4409 13.7912 19.3954C14.8198 19.35 15.527 19.1837 16.1397 18.9454C17.4407 18.4424 18.4694 17.4137 18.9724 16.1128C19.2106 15.4963 19.3771 14.7928 19.4224 13.7642C19.4678 12.7317 19.4791 12.4027 19.4791 9.77424C19.4791 7.1458 19.4753 6.81681 19.4299 5.78431ZM17.6866 13.6885C17.6449 14.634 17.4861 15.1446 17.3537 15.4849C17.0284 16.3283 16.3591 16.9977 15.5157 17.323C15.1753 17.4554 14.661 17.6142 13.7192 17.6557C12.6981 17.7012 12.3919 17.7124 9.80881 17.7124C7.22573 17.7124 6.91564 17.7012 5.89822 17.6557C4.95274 17.6142 4.44218 17.4554 4.10181 17.323C3.6821 17.1679 3.30007 16.9221 2.98998 16.6006C2.66852 16.2867 2.4227 15.9085 2.26758 15.4888C2.13521 15.1484 1.9764 14.634 1.93489 13.6924C1.88939 12.6712 1.87816 12.3648 1.87816 9.78177C1.87816 7.19869 1.88939 6.8886 1.93489 5.87133C1.9764 4.92585 2.13521 4.41529 2.26758 4.07492C2.4227 3.65507 2.66852 3.27318 2.99382 2.96294C3.3076 2.64148 3.6858 2.39566 4.10565 2.24069C4.44602 2.10832 4.96042 1.94951 5.90206 1.90785C6.92318 1.8625 7.22957 1.85112 9.8125 1.85112C12.3994 1.85112 12.7057 1.8625 13.7231 1.90785C14.6686 1.94951 15.1791 2.10832 15.5195 2.24069C15.9392 2.39566 16.3212 2.64148 16.6313 2.96294C16.9528 3.27687 17.1986 3.65507 17.3537 4.07492C17.4861 4.41529 17.6449 4.92954 17.6866 5.87133C17.7319 6.89244 17.7433 7.19869 17.7433 9.78177C17.7433 12.3648 17.7319 12.6674 17.6866 13.6885Z" fill="#205BB3"/>
<path d="M9.80496 4.80103C7.05938 4.80103 4.83174 7.02852 4.83174 9.77425C4.83174 12.52 7.05938 14.7475 9.80496 14.7475C12.5507 14.7475 14.7782 12.52 14.7782 9.77425C14.7782 7.02852 12.5507 4.80103 9.80496 4.80103ZM9.80496 13.0002C8.02377 13.0002 6.57896 11.5556 6.57896 9.77425C6.57896 7.9929 8.02377 6.54824 9.80496 6.54824C11.5863 6.54824 13.031 7.9929 13.031 9.77425C13.031 11.5556 11.5863 13.0002 9.80496 13.0002Z" fill="#205BB3"/>
<path d="M16.136 4.6045C16.136 5.24565 15.6161 5.76552 14.9748 5.76552C14.3337 5.76552 13.8138 5.24565 13.8138 4.6045C13.8138 3.9632 14.3337 3.44348 14.9748 3.44348C15.6161 3.44348 16.136 3.9632 16.136 4.6045Z" fill="#205BB3"/>
</svg>
