<svg width="20" height="19" viewBox="0 0 20 19" fill="none" xmlns="http://www.w3.org/2000/svg">
<path d="M19.2235 18.9672V18.9664H19.2283V12.0441C19.2283 8.6577 18.4992 6.04907 14.5403 6.04907C12.6371 6.04907 11.3599 7.09347 10.8385 8.0836H10.7834V6.36522H7.02974V18.9664H10.9384V12.7268C10.9384 11.0839 11.2498 9.49527 13.2843 9.49527C15.289 9.49527 15.3189 11.3701 15.3189 12.8321V18.9672H19.2235Z" fill="#205BB3"/>
<path d="M0.665039 6.36609H4.57838V18.9673H0.665039V6.36609Z" fill="#205BB3"/>
<path d="M2.62012 0.0925293C1.36889 0.0925293 0.353592 1.10783 0.353592 2.35906C0.353592 3.61029 1.36889 4.64682 2.62012 4.64682C3.87135 4.64682 4.88665 3.61029 4.88665 2.35906C4.88586 1.10783 3.87057 0.0925293 2.62012 0.0925293V0.0925293Z" fill="#205BB3"/>
</svg>
