<svg width="12" height="11" viewBox="0 0 12 11" fill="none" xmlns="http://www.w3.org/2000/svg">
<path d="M10.7578 3.0625C11.2266 2.71094 11.6484 2.28906 11.9766 1.79688C11.5547 1.98438 11.0625 2.125 10.5703 2.17188C11.0859 1.86719 11.4609 1.39844 11.6484 0.8125C11.1797 1.09375 10.6406 1.30469 10.1016 1.42188C9.63281 0.929688 9 0.648438 8.29688 0.648438C6.9375 0.648438 5.83594 1.75 5.83594 3.10938C5.83594 3.29688 5.85938 3.48438 5.90625 3.67188C3.86719 3.55469 2.03906 2.57031 0.820312 1.09375C0.609375 1.44531 0.492188 1.86719 0.492188 2.33594C0.492188 3.17969 0.914062 3.92969 1.59375 4.375C1.19531 4.35156 0.796875 4.25781 0.46875 4.07031V4.09375C0.46875 5.28906 1.3125 6.27344 2.4375 6.50781C2.25 6.55469 2.01562 6.60156 1.80469 6.60156C1.64062 6.60156 1.5 6.57812 1.33594 6.55469C1.64062 7.53906 2.55469 8.24219 3.63281 8.26562C2.78906 8.92188 1.73438 9.32031 0.585938 9.32031C0.375 9.32031 0.1875 9.29688 0 9.27344C1.07812 9.97656 2.36719 10.375 3.77344 10.375C8.29688 10.375 10.7578 6.64844 10.7578 3.39062C10.7578 3.27344 10.7578 3.17969 10.7578 3.0625Z" fill="#0764E3"/>
</svg>
