<svg width="107" height="46" fill="none" xmlns="http://www.w3.org/2000/svg"><g filter="url(#filter0_d)"><path d="M4.496 8.537a5.375 5.375 0 015.47-5.28l25.608.449a5.375 5.375 0 015.28 5.469l-.45 25.608a5.375 5.375 0 01-5.469 5.28l-25.608-.45a5.375 5.375 0 01-5.28-5.468l.45-25.608z" fill="#0063B5"/><mask id="a" maskUnits="userSpaceOnUse" x="1" y="1" width="43" height="43"><rect x="34.945" width="36.363" height="36.363" rx="6.976" transform="rotate(73.948 34.945 0)" fill="#3793DF"/></mask><g mask="url(#a)"><path fill-rule="evenodd" clip-rule="evenodd" d="M9.544 17.705l8.047-5.045.554.008.628-.55.43.005-2.078 2.208.554.007 2.453-2.45.43.005-1.398 2.093 1.727-.163.66-2.102.43.005-.473 2.043 2.153.03-.57-2.12.402.006.845 2.122 1.723.024-1.373-2.006.492.007 2.415 2.268.369.005-2.05-2.077.616.008 9.127 5.03-.378.429.666.505-.691.674.788.57-.752.61.18.25-8.38 6.22-.453-.006v21.8h-1.974V25.533c-.383-.05-.832-.09-1.357-.114v22.699h-3.949v-22.45a4.277 4.277 0 00-.37.107v22.343h-.555V26.059a.53.53 0 00-.207.331l-.493-.006-8.009-5.51.072-.496-.729-.445.689-.55-.663-.691.688-.488-.236-.5zm8.888 7.8v.015l-7.24-6.4.113-.452c.179-.083.372-.164.577-.243l.177.334 6.373 6.747zM13.538 17.9a15.95 15.95 0 00-1.656.525l-.351-.664-.226.907c-.489.226-.877.466-1.146.718l.024-1.31c2.573-2.329 16.242-4.365 24.743-.496l-.023 1.247c-.288-.15-.592-.29-.91-.423.026-.353.055-.885.014-.972l-.645.73a18 18 0 00-1.71-.514l.026-1.113-.629.972a27.946 27.946 0 00-2.456-.421l-.295-1.03-.447.922-.008.02a40.287 40.287 0 00-3.147-.203l-.155-.915-.24.907c-1.147-.021-2.3.002-3.424.063l-.186-1.031-.119-.002-.131 1.058a45.344 45.344 0 00-3.137.306l-.5-.934-.15 1.027c-.854.128-1.66.28-2.399.45l-.483-.974-.234 1.15zm0 0c.231-.06.47-.12.717-.176l.042.085 4.901 7.366-5.702-7.066.042-.209zm3.116-.626l-.067.454 3.603 7.155-2.687-7.33-.199-.372c-.22.03-.436.06-.65.093zm5.074 7.602l-1.302-7.887.015-.114.436-.025.026.145.827 7.881h-.002zm1.483-.023l1.005-7.742.086-.324.394.008.054.322-1.537 7.736h-.002zm1.52-.024l3.112-7.83c.252.026.502.055.75.087l.042.149-3.873 7.593h-.031zm-.068.17l-.04.1.04-.077V25zm1.669-.196l4.717-7.296c.204.045.405.092.603.141l-.002.063-5.274 7.091-.044.001zm7.03-6.642c.215.078.426.159.63.243l-.01.143L26.9 25.46l6.462-7.3zm-15.459 7.732l-7.641-6.486-.018.745 7.66 5.741zm17.05-6.285l.016-.682-7.642 6.854 7.626-6.172z" fill="#fff"/></g><path d="M36.432 5.166a5.375 5.375 0 00-6.653-3.68L5.166 8.568c-2.853.821-4.5 3.8-3.68 6.652l7.082 24.614c.821 2.853 3.8 4.5 6.652 3.68l3.212-.925V26.02a.506.506 0 00-.185.311l-.494-.008-8.051-5.505.07-.492-.733-.444.688-.544-.667-.69.687-.482-.239-.498 8.044-4.985.555.01.627-.545.431.007-2.073 2.186.555.01 2.448-2.427.431.008-1.392 2.074 1.73-.156.653-2.087.431.008-.466 2.028 2.16.036-.582-2.107.403.006.857 2.113 1.727.029-1.386-1.998.494.008 2.43 2.263.37.006-2.063-2.071.617.01 9.17 5.03-.378.426.67.505-.69.667.793.568-.75.605.18.25-8.372 6.151-.495-.008v13.942l13.197-3.797c2.853-.821 4.5-3.8 3.68-6.653L36.432 5.166z" fill="#3793DF"/><path d="M24.663 40.797V25.496c-.384-.05-.834-.09-1.357-.115v15.806l1.357-.39zM19.358 42.323V25.621a4.227 4.227 0 00-.37.108v16.7l.37-.106z" fill="#3793DF"/><path fill-rule="evenodd" clip-rule="evenodd" d="M18.432 25.476v-.023L12.02 18.76l-.187-.346a15.723 15.723 0 011.66-.523l-.043.214 5.804 7.07-4.997-7.365-.048-.094a32.133 32.133 0 012.397-.444l-.064.454 3.704 7.158-2.776-7.328-.206-.376a45.665 45.665 0 013.129-.299l-.014.108 1.403 7.888h.002l-.911-7.88-.027-.141a48.38 48.38 0 013.442-.058l-.085.317-.993 7.739h.002l1.546-7.73-.058-.317c1.06.03 2.113.098 3.137.206l-3.113 7.817h.029l3.89-7.578-.044-.15c.848.11 1.671.25 2.454.422l-4.737 7.28h.043l5.3-7.07v-.068c.6.15 1.174.32 1.713.512l-6.472 7.25 7.089-6.852.011-.158c.318.131.622.27.91.42l.02-1.235c-8.511-3.846-22.18-1.856-24.75.445l-.021 1.296c.261-.241.635-.472 1.104-.69l-.113.461 7.282 6.362zM34 18.417a14.084 14.084 0 00-.628-.24l.635-.712c.041.085.017.6-.007.952zm-2.34-.752c-.2-.05-.402-.097-.607-.142l.625-.961-.019 1.103zm-3.061-.563a34.794 34.794 0 00-.762-.09l.008-.022.448-.917.306 1.029zm-3.899-.296a51.31 51.31 0 00-.412-.01l.244-.91.168.92zm-3.854.049c-.152.007-.303.016-.453.025l.13-1.062.123.002.2 1.035zm-3.582.324l-.512-.932-.146 1.024c.216-.032.435-.063.657-.092zm-3.055.536a23.17 23.17 0 00-.716.175l.227-1.139.49.964zm-2.946.938l.219-.89.351.65a9.223 9.223 0 00-.57.24z" fill="#3793DF"/><path d="M24.623 25.08l.04-.1v.023l-.04.077zM10.22 19.407l7.726 6.486-7.739-5.746.013-.74zM34.97 18.962l-.012.679-7.631 6.102 7.642-6.781z" fill="#3793DF"/></g><path d="M56.774 11.892h2.727c.617 0 1.16.113 1.629.34.474.221.84.54 1.098.957.264.416.396.906.396 1.47s-.132 1.054-.396 1.47a2.551 2.551 0 01-1.098.965c-.47.22-1.012.332-1.629.332h-2.727v-5.534zm2.648 4.08c.4 0 .72-.114.957-.34.242-.233.363-.557.363-.973 0-.417-.12-.738-.363-.965-.237-.231-.556-.347-.957-.347h-.782v2.624h.782zM66.998 16.461h-2.102l-.372.965h-1.897l2.419-5.534h1.834l2.419 5.534H67.37l-.372-.965zm-.513-1.344l-.538-1.39-.538 1.39h1.076zM69.597 11.892h2.727c.616 0 1.16.113 1.628.34.475.221.84.54 1.099.957.263.416.395.906.395 1.47s-.132 1.054-.395 1.47a2.551 2.551 0 01-1.099.965c-.469.22-1.012.332-1.628.332h-2.727v-5.534zm2.648 4.08c.4 0 .72-.114.956-.34.243-.233.364-.557.364-.973 0-.417-.121-.738-.364-.965-.237-.231-.556-.347-.956-.347h-.783v2.624h.783zM79.029 17.552c-.596 0-1.13-.124-1.605-.371a2.8 2.8 0 01-1.115-1.028 2.822 2.822 0 01-.403-1.494 2.782 2.782 0 011.518-2.522 3.414 3.414 0 011.605-.371c.595 0 1.13.123 1.604.371a2.782 2.782 0 011.518 2.522c0 .553-.134 1.051-.403 1.494a2.8 2.8 0 01-1.115 1.028 3.415 3.415 0 01-1.604.371zm0-1.51c.231 0 .44-.055.624-.166.19-.116.34-.276.45-.482.111-.21.167-.456.167-.735 0-.28-.056-.522-.166-.727-.111-.211-.261-.372-.45-.483a1.15 1.15 0 00-.625-.174 1.19 1.19 0 00-1.075.657c-.111.205-.166.447-.166.727 0 .28.055.524.166.735.11.206.258.366.442.482.19.11.4.166.633.166zM84.891 17.552c-.458 0-.906-.05-1.344-.15-.432-.105-.787-.245-1.067-.42l.601-1.359c.264.153.559.277.885.372.327.09.64.134.941.134.258 0 .443-.024.553-.071.111-.053.166-.13.166-.23 0-.115-.073-.202-.22-.26a4.519 4.519 0 00-.712-.19 8.603 8.603 0 01-1.067-.284 1.871 1.871 0 01-.743-.506c-.211-.237-.317-.556-.317-.957 0-.348.098-.664.293-.948.195-.285.485-.509.87-.672.39-.164.861-.245 1.414-.245.38 0 .751.042 1.115.126.369.08.693.198.972.356L86.67 13.6c-.543-.274-1.057-.412-1.541-.412-.48 0-.72.117-.72.348 0 .111.071.195.214.253.142.053.376.111.703.174.422.08.778.171 1.067.277.29.1.54.266.751.498.216.232.324.548.324.949 0 .347-.097.664-.292.948-.195.28-.488.503-.877.672-.385.163-.854.245-1.408.245z" fill="#0063B5"/><path d="M61.534 23.905h-2.596l-.458 1.19h-2.342l2.986-6.83h2.263l2.986 6.83h-2.38l-.46-1.19zm-.635-1.659l-.663-1.717-.664 1.718H60.9zM70.204 21.524c.404.15.716.368.937.654.221.286.332.631.332 1.034 0 .599-.247 1.064-.742 1.396-.494.325-1.21.488-2.146.488H64.74v-6.83h3.65c.91 0 1.596.162 2.058.488.469.325.703.757.703 1.297 0 .319-.082.605-.244.859-.156.253-.39.458-.703.614zm-3.2-1.649v1.015h1.073c.501 0 .752-.169.752-.507 0-.338-.25-.508-.752-.508h-1.073zm1.385 3.61c.508 0 .762-.178.762-.536 0-.358-.254-.537-.761-.537h-1.386v1.074h1.385zM77.965 23.359v1.736h-5.678v-6.83h5.552v1.737H74.55v.8h2.888v1.66H74.55v.897h3.414zM81.779 23.378h-.624v1.718h-2.303v-6.83h3.288c.631 0 1.18.104 1.649.312.468.208.83.507 1.083.898.254.39.38.845.38 1.366 0 .487-.11.913-.331 1.278-.221.364-.54.653-.956.868l1.434 2.108H82.94l-1.161-1.718zm1.151-2.537c0-.253-.078-.448-.234-.585-.156-.143-.39-.215-.702-.215h-.84v1.6h.84c.312 0 .546-.068.702-.204.156-.143.234-.342.234-.596zM87.51 20.051h-2v-1.785h6.303v1.785h-2v5.045H87.51V20.05zM95.896 25.252c-.735 0-1.395-.153-1.98-.459a3.457 3.457 0 01-1.376-1.268 3.482 3.482 0 01-.498-1.844 3.433 3.433 0 011.873-3.112c.586-.307 1.246-.46 1.981-.46.735 0 1.395.153 1.981.46a3.433 3.433 0 011.873 3.112c0 .683-.166 1.297-.497 1.844-.332.54-.79.962-1.376 1.268-.585.306-1.246.459-1.98.459zm0-1.864c.287 0 .543-.068.771-.205.234-.143.42-.341.556-.595.137-.26.205-.563.205-.907 0-.345-.068-.644-.205-.898a1.45 1.45 0 00-.556-.595 1.418 1.418 0 00-.77-.215 1.468 1.468 0 00-1.328.81 1.867 1.867 0 00-.205.898c0 .344.069.647.205.907.137.254.32.452.547.595.234.137.494.205.78.205zM103.133 25.252a7.412 7.412 0 01-1.659-.186c-.533-.13-.972-.302-1.317-.517l.741-1.678c.326.189.69.341 1.093.459.403.11.79.165 1.161.165.319 0 .547-.029.683-.087.137-.066.205-.16.205-.283 0-.143-.091-.25-.273-.322-.176-.072-.468-.15-.878-.235-.527-.11-.966-.227-1.317-.35a2.313 2.313 0 01-.918-.625c-.26-.293-.39-.686-.39-1.18 0-.43.12-.82.361-1.172.241-.35.599-.627 1.073-.829.482-.202 1.064-.302 1.747-.302.468 0 .927.052 1.376.156.455.097.855.244 1.2.439l-.693 1.668c-.67-.338-1.304-.507-1.903-.507-.592 0-.888.143-.888.43 0 .136.088.24.264.311.176.065.465.137.868.215.521.098.96.211 1.317.341.358.124.667.329.927.615.267.286.4.677.4 1.171 0 .43-.12.82-.361 1.17-.24.346-.601.622-1.083.83-.474.202-1.053.303-1.736.303z" fill="#3793DF"/><path d="M56.774 26.121h2.727c.617 0 1.16.113 1.629.34.474.221.84.54 1.098.956.264.417.396.907.396 1.47 0 .565-.132 1.055-.396 1.471a2.551 2.551 0 01-1.098.965c-.47.22-1.012.331-1.629.331h-2.727v-5.533zm2.648 4.079c.4 0 .72-.113.957-.34.242-.232.363-.556.363-.972 0-.417-.12-.738-.363-.965-.237-.232-.556-.347-.957-.347h-.782V30.2h.782zM67.906 30.247v1.407h-4.601v-5.533h4.498v1.407h-2.664v.648h2.34v1.344h-2.34v.727h2.767zM72.86 27.528v.949h2.308v1.407h-2.309v1.77h-1.865v-5.533h4.498v1.407h-2.633zM80.682 30.247v1.407h-4.6v-5.533h4.497v1.407h-2.664v.648h2.34v1.344h-2.34v.727h2.767zM81.4 26.121h1.866v5.534H81.4V26.12zM86.535 30.263h-.506v1.391h-1.865v-5.533h2.664c.51 0 .956.084 1.336.253.38.169.671.411.877.727.206.316.308.685.308 1.107 0 .395-.09.74-.268 1.036-.18.295-.438.53-.775.703l1.162 1.707h-1.992l-.94-1.39zm.933-2.055c0-.206-.063-.364-.19-.474-.126-.116-.316-.174-.569-.174h-.68v1.296h.68c.253 0 .443-.055.57-.166.126-.116.189-.277.189-.482z" fill="#0063B5"/><path d="M93.825 30.69h-2.103l-.372.964h-1.897l2.419-5.533h1.834l2.419 5.534h-1.929l-.371-.965zm-.514-1.344l-.538-1.391-.537 1.391h1.075z" fill="#0063B5"/><defs><filter id="filter0_d" x=".455" y="1.275" width="44.091" height="44.091" filterUnits="userSpaceOnUse" color-interpolation-filters="sRGB"><feFlood flood-opacity="0" result="BackgroundImageFix"/><feColorMatrix in="SourceAlpha" values="0 0 0 0 0 0 0 0 0 0 0 0 0 0 0 0 0 0 127 0"/><feOffset dy=".821"/><feGaussianBlur stdDeviation=".41"/><feColorMatrix values="0 0 0 0 0 0 0 0 0 0 0 0 0 0 0 0 0 0 0.25 0"/><feBlend in2="BackgroundImageFix" result="effect1_dropShadow"/><feBlend in="SourceGraphic" in2="effect1_dropShadow" result="shape"/></filter></defs></svg>
