<svg width="45" height="46" fill="none" xmlns="http://www.w3.org/2000/svg"><g filter="url(#filter0_d)"><path d="M4.496 8.537a5.375 5.375 0 015.47-5.28l25.608.449a5.375 5.375 0 015.28 5.469l-.45 25.608a5.375 5.375 0 01-5.469 5.28l-25.608-.45a5.375 5.375 0 01-5.28-5.468l.45-25.608z" fill="#0063B5"/><mask id="a" maskUnits="userSpaceOnUse" x="1" y="1" width="43" height="43"><rect x="34.945" width="36.363" height="36.363" rx="6.976" transform="rotate(73.948 34.945 0)" fill="#3793DF"/></mask><g mask="url(#a)"><path fill-rule="evenodd" clip-rule="evenodd" d="M9.544 17.705l8.047-5.045.554.008.628-.55.43.005-2.078 2.208.554.007 2.453-2.45.43.005-1.398 2.093 1.727-.163.66-2.102.43.005-.473 2.043 2.153.03-.57-2.12.402.006.845 2.122 1.723.024-1.373-2.006.492.007 2.415 2.268.369.005-2.05-2.077.616.008 9.127 5.03-.378.429.666.505-.691.674.788.57-.752.61.18.25-8.38 6.22-.453-.006v21.8h-1.974V25.533c-.383-.05-.832-.09-1.357-.114v22.699h-3.949v-22.45a4.277 4.277 0 00-.37.107v22.343h-.555V26.059a.53.53 0 00-.207.331l-.493-.006-8.009-5.51.072-.496-.729-.445.689-.55-.663-.691.688-.488-.236-.5zm8.888 7.8v.015l-7.24-6.4.113-.452c.179-.083.372-.164.577-.243l.177.334 6.373 6.747zM13.538 17.9a15.95 15.95 0 00-1.656.525l-.351-.664-.226.907c-.489.226-.877.466-1.146.718l.024-1.31c2.573-2.329 16.242-4.365 24.743-.496l-.023 1.247c-.288-.15-.592-.29-.91-.423.026-.353.055-.885.014-.972l-.645.73a18 18 0 00-1.71-.514l.026-1.113-.629.972a27.946 27.946 0 00-2.456-.421l-.295-1.03-.447.922-.008.02a40.287 40.287 0 00-3.147-.203l-.155-.915-.24.907c-1.147-.021-2.3.002-3.424.063l-.186-1.031-.119-.002-.131 1.058a45.344 45.344 0 00-3.137.306l-.5-.934-.15 1.027c-.854.128-1.66.28-2.399.45l-.483-.974-.234 1.15zm0 0c.231-.06.47-.12.717-.176l.042.085 4.901 7.366-5.702-7.066.042-.209zm3.116-.626l-.067.454 3.603 7.155-2.687-7.33-.199-.372c-.22.03-.436.06-.65.093zm5.074 7.602l-1.302-7.887.015-.114.436-.025.026.145.827 7.881h-.002zm1.483-.023l1.005-7.742.086-.324.394.008.054.322-1.537 7.736h-.002zm1.52-.024l3.112-7.83c.252.026.502.055.75.087l.042.149-3.873 7.593h-.031zm-.068.17l-.04.1.04-.077V25zm1.669-.196l4.717-7.296c.204.045.405.092.603.141l-.002.063-5.274 7.091-.044.001zm7.03-6.642c.215.078.426.159.63.243l-.01.143L26.9 25.46l6.462-7.3zm-15.459 7.732l-7.641-6.486-.018.745 7.66 5.741zm17.05-6.285l.016-.682-7.642 6.854 7.626-6.172z" fill="#fff"/></g><path d="M36.432 5.166a5.375 5.375 0 00-6.653-3.68L5.166 8.568c-2.853.821-4.5 3.8-3.68 6.652l7.082 24.614c.821 2.853 3.8 4.5 6.652 3.68l3.212-.925V26.02a.506.506 0 00-.185.311l-.494-.008-8.051-5.505.07-.492-.733-.444.688-.544-.667-.69.687-.482-.239-.498 8.044-4.985.555.01.627-.545.431.007-2.073 2.186.555.01 2.448-2.427.431.008-1.392 2.074 1.73-.156.653-2.087.431.008-.466 2.028 2.16.036-.582-2.107.403.006.857 2.113 1.727.029-1.386-1.998.494.008 2.43 2.263.37.006-2.063-2.071.617.01 9.17 5.03-.378.426.67.505-.69.667.793.568-.75.605.18.25-8.372 6.151-.495-.008v13.942l13.197-3.797c2.853-.821 4.5-3.8 3.68-6.653L36.432 5.166z" fill="#3793DF"/><path d="M24.663 40.797V25.496c-.384-.05-.834-.09-1.357-.115v15.806l1.357-.39zM19.358 42.323V25.621a4.227 4.227 0 00-.37.108v16.7l.37-.106z" fill="#3793DF"/><path fill-rule="evenodd" clip-rule="evenodd" d="M18.432 25.476v-.023L12.02 18.76l-.187-.346a15.723 15.723 0 011.66-.523l-.043.214 5.804 7.07-4.997-7.365-.048-.094a32.133 32.133 0 012.397-.444l-.064.454 3.704 7.158-2.776-7.328-.206-.376a45.665 45.665 0 013.129-.299l-.014.108 1.403 7.888h.002l-.911-7.88-.027-.141a48.38 48.38 0 013.442-.058l-.085.317-.993 7.739h.002l1.546-7.73-.058-.317c1.06.03 2.113.098 3.137.206l-3.113 7.817h.029l3.89-7.578-.044-.15c.848.11 1.671.25 2.454.422l-4.737 7.28h.043l5.3-7.07v-.068c.6.15 1.174.32 1.713.512l-6.472 7.25 7.089-6.852.011-.158c.318.131.622.27.91.42l.02-1.235c-8.511-3.846-22.18-1.856-24.75.445l-.021 1.296c.261-.241.635-.472 1.104-.69l-.113.461 7.282 6.362zM34 18.417a14.084 14.084 0 00-.628-.24l.635-.712c.041.085.017.6-.007.952zm-2.34-.752c-.2-.05-.402-.097-.607-.142l.625-.961-.019 1.103zm-3.061-.563a34.794 34.794 0 00-.762-.09l.008-.022.448-.917.306 1.029zm-3.899-.296a51.31 51.31 0 00-.412-.01l.244-.91.168.92zm-3.854.049c-.152.007-.303.016-.453.025l.13-1.062.123.002.2 1.035zm-3.582.324l-.512-.932-.146 1.024c.216-.032.435-.063.657-.092zm-3.055.536a23.17 23.17 0 00-.716.175l.227-1.139.49.964zm-2.946.938l.219-.89.351.65a9.223 9.223 0 00-.57.24z" fill="#3793DF"/><path d="M24.623 25.08l.04-.1v.023l-.04.077zM10.22 19.407l7.726 6.486-7.739-5.746.013-.74zM34.97 18.962l-.012.679-7.631 6.102 7.642-6.781z" fill="#3793DF"/></g><defs><filter id="filter0_d" x=".455" y="1.275" width="44.091" height="44.091" filterUnits="userSpaceOnUse" color-interpolation-filters="sRGB"><feFlood flood-opacity="0" result="BackgroundImageFix"/><feColorMatrix in="SourceAlpha" values="0 0 0 0 0 0 0 0 0 0 0 0 0 0 0 0 0 0 127 0"/><feOffset dy=".821"/><feGaussianBlur stdDeviation=".41"/><feColorMatrix values="0 0 0 0 0 0 0 0 0 0 0 0 0 0 0 0 0 0 0.25 0"/><feBlend in2="BackgroundImageFix" result="effect1_dropShadow"/><feBlend in="SourceGraphic" in2="effect1_dropShadow" result="shape"/></filter></defs></svg>
